<svg width="20" height="20" viewBox="0 0 20 20" fill="none" xmlns="http://www.w3.org/2000/svg">
<g clip-path="url(#clip0_10539_36990)">
<path d="M10.7263 12.1403L10.7263 12.1403L10.723 12.1429C10.3045 12.4742 9.70944 12.4745 9.2903 12.1486L3.65857 7.76647C3.65837 7.76632 3.65818 7.76616 3.65798 7.76601C3.48898 7.63285 3.48901 7.37016 3.65807 7.23704C3.65824 7.23692 3.6584 7.23679 3.65857 7.23666L9.28909 2.84719C9.71901 2.51839 10.3085 2.52132 10.7263 2.84618C10.7263 2.8462 10.7263 2.84622 10.7264 2.84624L16.3581 7.22832C16.3583 7.22848 16.3585 7.22863 16.3587 7.22879C16.5277 7.36195 16.5277 7.62461 16.3586 7.75773C16.3584 7.75787 16.3583 7.758 16.3581 7.75814L10.7263 12.1403Z" stroke="#8361FE"/>
<path d="M16.6615 10L11.0115 14.3833C10.4115 14.8583 9.56146 14.8583 8.96146 14.3917L3.32812 10" stroke="#8361FE"/>
</g>
<defs>
<clipPath id="clip0_10539_36990">
<rect width="20" height="20" fill="white"/>
</clipPath>
</defs>
</svg>
