<svg xmlns="http://www.w3.org/2000/svg" width="14" height="14" viewBox="0 0 14 14" fill="none">
  <g clip-path="url(#clip0_8662_10740)">
    <path d="M10.6769 3.33271C10.4494 3.10521 10.0819 3.10521 9.85437 3.33271L7.00188 6.17938L4.14938 3.32688C3.92188 3.09937 3.55438 3.09937 3.32688 3.32688C3.09937 3.55438 3.09937 3.92188 3.32688 4.14938L6.17938 7.00188L3.32688 9.85437C3.09937 10.0819 3.09937 10.4494 3.32688 10.6769C3.55438 10.9044 3.92188 10.9044 4.14938 10.6769L7.00188 7.82438L9.85437 10.6769C10.0819 10.9044 10.4494 10.9044 10.6769 10.6769C10.9044 10.4494 10.9044 10.0819 10.6769 9.85437L7.82438 7.00188L10.6769 4.14938C10.8985 3.92771 10.8985 3.55438 10.6769 3.33271Z" fill="#8361FE"/>
  </g>
  <defs>
    <clipPath id="clip0_8662_10740">
      <rect width="14" height="14" fill="white"/>
    </clipPath>
  </defs>
</svg>