<svg xmlns="http://www.w3.org/2000/svg" width="24" height="24" viewBox="0 0 24 24" fill="none">
  <g clip-path="url(#clip0_9595_24087)">
    <mask id="path-1-inside-1_9595_24087" fill="white">
      <path d="M19 3H14.82C14.4 1.84 13.3 1 12 1C10.7 1 9.6 1.84 9.18 3H5C3.9 3 3 3.9 3 5V19C3 20.1 3.9 21 5 21H19C20.1 21 21 20.1 21 19V5C21 3.9 20.1 3 19 3ZM12 4C12 3.45 12.55 4 12 4C12 4.55 12.55 4 12 4C12 4.55 11.45 4 12 4C12 3.45 11.45 4 12 4Z"/>
    </mask>
    <path d="M14 14.5C14.2761 14.5 14.5 14.2761 14.5 14C14.5 13.7239 14.2761 13.5 14 13.5V14.5ZM17 11.5C17.2761 11.5 17.5 11.2761 17.5 11C17.5 10.7239 17.2761 10.5 17 10.5V11.5ZM17 8.5C17.2761 8.5 17.5 8.27614 17.5 8C17.5 7.72386 17.2761 7.5 17 7.5V8.5ZM6 7.5C5.72386 7.5 5.5 7.72386 5.5 8C5.5 8.27614 5.72386 8.5 6 8.5V7.5ZM6 10.5C5.72386 10.5 5.5 10.7239 5.5 11C5.5 11.2761 5.72386 11.5 6 11.5V10.5ZM6 13.5C5.72386 13.5 5.5 13.7239 5.5 14C5.5 14.2761 5.72386 14.5 6 14.5V13.5ZM6 8.5H17V7.5H6V8.5ZM6 11.5H17V10.5H6V11.5ZM6 14.5H14V13.5H6V14.5ZM14.82 3L13.8797 3.34044L14.1185 4H14.82V3ZM9.18 3V4H9.88146L10.1203 3.34044L9.18 3ZM19 2H14.82V4H19V2ZM15.7603 2.65956C15.2055 1.12733 13.7456 0 12 0V2C12.8544 2 13.5945 2.55267 13.8797 3.34044L15.7603 2.65956ZM12 0C10.2544 0 8.79451 1.12733 8.23973 2.65956L10.1203 3.34044C10.4055 2.55267 11.1456 2 12 2V0ZM9.18 2H5V4H9.18V2ZM5 2C3.34772 2 2 3.34772 2 5H4C4 4.45228 4.45228 4 5 4V2ZM2 5V19H4V5H2ZM2 19C2 20.6523 3.34771 22 5 22V20C4.45228 20 4 19.5477 4 19H2ZM5 22H19V20H5V22ZM19 22C20.6523 22 22 20.6523 22 19H20C20 19.5477 19.5477 20 19 20V22ZM22 19V5H20V19H22ZM22 5C22 3.34771 20.6523 2 19 2V4C19.5477 4 20 4.45229 20 5H22ZM12 5C12.1433 5 12.322 4.98326 12.5061 4.91487C12.6943 4.84498 12.9297 4.70357 13.0895 4.43715C13.4411 3.85115 13.1299 3.30321 12.9134 3.08664C12.6968 2.87007 12.1489 2.55887 11.5628 2.91048C11.2964 3.07032 11.155 3.30573 11.0851 3.4939C11.0167 3.67803 11 3.85671 11 4H13C13 4.00579 13.0004 4.08135 12.96 4.19028C12.918 4.30325 12.8153 4.49139 12.5918 4.62546C12.0918 4.9255 11.647 4.64868 11.4991 4.50086C11.3513 4.35304 11.0745 3.90823 11.3745 3.40816C11.5086 3.18472 11.6967 3.08198 11.8097 3.04002C11.9187 2.99956 11.9942 3 12 3V5ZM11 4C11 4.14329 11.0167 4.32197 11.0851 4.5061C11.155 4.69427 11.2964 4.92968 11.5628 5.08952C12.1489 5.44113 12.6968 5.12993 12.9134 4.91336C13.1299 4.69679 13.4411 4.14885 13.0895 3.56285C12.9297 3.29643 12.6943 3.15502 12.5061 3.08513C12.322 3.01674 12.1433 3 12 3V5C11.9942 5 11.9187 5.00044 11.8097 4.95998C11.6967 4.91802 11.5086 4.81528 11.3745 4.59184C11.0745 4.09177 11.3513 3.64696 11.4991 3.49914C11.647 3.35132 12.0918 3.0745 12.5918 3.37454C12.8153 3.50861 12.918 3.69675 12.96 3.80972C13.0004 3.91865 13 3.99421 13 4H11ZM12 3C11.8567 3 11.678 3.01674 11.4939 3.08513C11.3057 3.15502 11.0703 3.29643 10.9105 3.56285C10.5589 4.14885 10.8701 4.69679 11.0866 4.91336C11.3032 5.12993 11.8511 5.44113 12.4372 5.08952C12.7036 4.92968 12.845 4.69427 12.9149 4.5061C12.9833 4.32197 13 4.14329 13 4H11C11 3.99421 10.9996 3.91865 11.04 3.80972C11.082 3.69675 11.1847 3.50861 11.4082 3.37454C11.9082 3.0745 12.353 3.35132 12.5009 3.49914C12.6487 3.64696 12.9255 4.09177 12.6255 4.59184C12.4914 4.81528 12.3033 4.91802 12.1903 4.95998C12.0813 5.00044 12.0058 5 12 5V3ZM13 4C13 3.85671 12.9833 3.67803 12.9149 3.4939C12.845 3.30573 12.7036 3.07032 12.4372 2.91048C11.8511 2.55887 11.3032 2.87007 11.0866 3.08664C10.8701 3.30321 10.5589 3.85115 10.9105 4.43715C11.0703 4.70357 11.3057 4.84498 11.4939 4.91487C11.678 4.98326 11.8567 5 12 5V3C12.0058 3 12.0813 2.99956 12.1903 3.04002C12.3033 3.08198 12.4914 3.18472 12.6255 3.40816C12.9255 3.90823 12.6487 4.35304 12.5009 4.50086C12.353 4.64868 11.9082 4.9255 11.4082 4.62546C11.1847 4.49139 11.082 4.30325 11.04 4.19028C10.9996 4.08135 11 4.00579 11 4H13Z" fill="#8361FE" mask="url(#path-1-inside-1_9595_24087)"/>
  </g>
  <defs>
    <clipPath id="clip0_9595_24087">
      <rect width="24" height="24" fill="white"/>
    </clipPath>
  </defs>
</svg>