<svg width="48" height="48" viewBox="0 0 48 48" fill="none" xmlns="http://www.w3.org/2000/svg">
<rect width="48" height="48" rx="8" fill="#FEF5E7"/>
<path d="M23.986 10.6641C16.626 10.6641 10.666 16.6374 10.666 23.9974C10.666 31.3574 16.626 37.3307 23.986 37.3307C31.3593 37.3307 37.3327 31.3574 37.3327 23.9974C37.3327 16.6374 31.3593 10.6641 23.986 10.6641ZM23.9993 34.6641C18.106 34.6641 13.3327 29.8907 13.3327 23.9974C13.3327 18.1041 18.106 13.3307 23.9993 13.3307C29.8927 13.3307 34.666 18.1041 34.666 23.9974C34.666 29.8907 29.8927 34.6641 23.9993 34.6641ZM23.706 17.3307H23.626C23.0927 17.3307 22.666 17.7574 22.666 18.2907V24.5841C22.666 25.0507 22.906 25.4907 23.3193 25.7307L28.8527 29.0507C29.306 29.3174 29.8927 29.1841 30.1593 28.7307C30.4393 28.2774 30.2927 27.6774 29.826 27.4107L24.666 24.3441V18.2907C24.666 17.7574 24.2393 17.3307 23.706 17.3307Z" fill="#C6720E"/>
</svg>
