<svg width="12" height="12" viewBox="0 0 12 12" fill="none" xmlns="http://www.w3.org/2000/svg">
<path d="M11.2516 0.759896C10.9266 0.434896 10.4016 0.434896 10.0766 0.759896L6.00156 4.82656L1.92656 0.751562C1.60156 0.426563 1.07656 0.426563 0.751562 0.751562C0.426563 1.07656 0.426563 1.60156 0.751562 1.92656L4.82656 6.00156L0.751562 10.0766C0.426563 10.4016 0.426563 10.9266 0.751562 11.2516C1.07656 11.5766 1.60156 11.5766 1.92656 11.2516L6.00156 7.17656L10.0766 11.2516C10.4016 11.5766 10.9266 11.5766 11.2516 11.2516C11.5766 10.9266 11.5766 10.4016 11.2516 10.0766L7.17656 6.00156L11.2516 1.92656C11.5682 1.6099 11.5682 1.07656 11.2516 0.759896Z" fill="#70757A"/>
</svg>
