<svg xmlns="http://www.w3.org/2000/svg" width="12" height="12" viewBox="0 0 12 12" fill="none">
  <g clip-path="url(#clip0_387_1092)">
    <path d="M9.14937 2.85511C8.95437 2.66011 8.63937 2.66011 8.44437 2.85511L5.99938 5.29511L3.55438 2.85011C3.35938 2.65511 3.04438 2.65511 2.84937 2.85011C2.65438 3.04511 2.65438 3.36011 2.84937 3.55511L5.29438 6.00011L2.84937 8.44511C2.65438 8.64011 2.65438 8.95511 2.84937 9.15011C3.04438 9.34511 3.35938 9.34511 3.55438 9.15011L5.99938 6.70511L8.44437 9.15011C8.63937 9.34511 8.95437 9.34511 9.14937 9.15011C9.34437 8.95511 9.34437 8.64011 9.14937 8.44511L6.70437 6.00011L9.14937 3.55511C9.33937 3.36511 9.33937 3.04511 9.14937 2.85511Z" fill="#8361FE"/>
  </g>
  <defs>
    <clipPath id="clip0_387_1092">
      <rect width="12" height="12" fill="white"/>
    </clipPath>
  </defs>
</svg>