<svg xmlns="http://www.w3.org/2000/svg" width="28" height="28" viewBox="0 0 28 28" fill="none">
  <g clip-path="url(#clip0_9595_24028)">
    <path d="M23.8801 6.5699C24.3351 7.0249 24.3351 7.74823 23.8801 8.20323L10.6501 21.4332C10.1951 21.8882 9.47177 21.8882 9.01677 21.4332L4.11677 16.5332C3.66177 16.0782 3.66177 15.3549 4.11677 14.8999C4.57177 14.4449 5.2951 14.4449 5.7501 14.8999L9.83344 18.9832L22.2468 6.5699C22.7018 6.1149 23.4251 6.1149 23.8801 6.5699ZM21.4184 4.09656L9.83344 15.6816L6.57844 12.4266C5.66844 11.5166 4.18677 11.5166 3.27677 12.4266L1.64344 14.0599C0.733438 14.9699 0.733438 16.4516 1.64344 17.3616L8.17677 23.8949C9.08677 24.8049 10.5684 24.8049 11.4784 23.8949L26.3534 9.03156C27.2634 8.12156 27.2634 6.6399 26.3534 5.7299L24.7201 4.09656C23.7984 3.18656 22.3284 3.18656 21.4184 4.09656Z" fill="#3AB65D"/>
  </g>
  <defs>
    <clipPath id="clip0_9595_24028">
      <rect width="28" height="28" fill="white"/>
    </clipPath>
  </defs>
</svg>