<svg xmlns="http://www.w3.org/2000/svg" width="24" height="24" viewBox="0 0 24 24" fill="none">
  <g clip-path="url(#clip0_9595_25005)">
    <path d="M20.4692 5.62688C20.8592 6.01688 20.8592 6.63688 20.4692 7.02688L9.12922 18.3669C8.73922 18.7569 8.11922 18.7569 7.72922 18.3669L3.52922 14.1669C3.13922 13.7769 3.13922 13.1569 3.52922 12.7669C3.91922 12.3769 4.53922 12.3769 4.92922 12.7669L8.42922 16.2669L19.0692 5.62688C19.4592 5.23688 20.0792 5.23688 20.4692 5.62688ZM18.3592 3.50688L8.42922 13.4369L5.63922 10.6469C4.85922 9.86688 3.58922 9.86688 2.80922 10.6469L1.40922 12.0469C0.629219 12.8269 0.629219 14.0969 1.40922 14.8769L7.00922 20.4769C7.78922 21.2569 9.05922 21.2569 9.83922 20.4769L22.5892 7.73688C23.3692 6.95688 23.3692 5.68688 22.5892 4.90688L21.1892 3.50688C20.3992 2.72687 19.1392 2.72687 18.3592 3.50688Z" fill="#8361FE"/>
  </g>
  <defs>
    <clipPath id="clip0_9595_25005">
      <rect width="24" height="24" fill="white"/>
    </clipPath>
  </defs>
</svg>