<svg width="56" height="56" viewBox="0 0 56 56" fill="none" xmlns="http://www.w3.org/2000/svg">
<g filter="url(#filter0_d_11457_6774)">
<rect x="12" y="8" width="32" height="32" rx="16" fill="white"/>
<g clip-path="url(#clip0_11457_6774)">
<path d="M33.3237 20.6665C33.3237 21.7759 32.437 22.6665 31.332 22.6665C30.2248 22.6665 29.332 21.7737 29.332 20.6665C29.332 19.5593 30.2248 18.6665 31.332 18.6665C32.437 18.6665 33.3237 19.5571 33.3237 20.6665ZM26.657 20.6665C26.657 21.7759 25.7704 22.6665 24.6654 22.6665C23.5582 22.6665 22.6654 21.7737 22.6654 20.6665C22.6654 19.5593 23.5582 18.6665 24.6654 18.6665C25.7704 18.6665 26.657 19.5571 26.657 20.6665ZM19.332 27.7498C19.332 27.4482 19.4792 27.1471 19.8094 26.8425C20.143 26.5348 20.629 26.2586 21.2063 26.0276C22.3618 25.5652 23.757 25.3332 24.6654 25.3332C25.5738 25.3332 26.9689 25.5652 28.1244 26.0276C28.7017 26.2586 29.1877 26.5348 29.5213 26.8425C29.8515 27.1471 29.9987 27.4482 29.9987 27.7498V28.9998C29.9987 29.182 29.8476 29.3332 29.6654 29.3332H19.6654C19.4832 29.3332 19.332 29.182 19.332 28.9998V27.7498ZM31.7705 25.3488C32.653 25.4078 33.8087 25.6345 34.7911 26.0276C35.3684 26.2586 35.8544 26.5348 36.188 26.8425C36.5182 27.1471 36.6654 27.4482 36.6654 27.7498V28.9998C36.6654 29.182 36.5142 29.3332 36.332 29.3332H32.6451C32.6582 29.2242 32.6654 29.1129 32.6654 28.9998V27.7498C32.6654 26.7875 32.3139 25.994 31.7705 25.3488Z" stroke="#8361FE"/>
</g>
</g>
<defs>
<filter id="filter0_d_11457_6774" x="0" y="0" width="56" height="56" filterUnits="userSpaceOnUse" color-interpolation-filters="sRGB">
<feFlood flood-opacity="0" result="BackgroundImageFix"/>
<feColorMatrix in="SourceAlpha" type="matrix" values="0 0 0 0 0 0 0 0 0 0 0 0 0 0 0 0 0 0 127 0" result="hardAlpha"/>
<feOffset dy="4"/>
<feGaussianBlur stdDeviation="6"/>
<feComposite in2="hardAlpha" operator="out"/>
<feColorMatrix type="matrix" values="0 0 0 0 0 0 0 0 0 0 0 0 0 0 0 0 0 0 0.12 0"/>
<feBlend mode="normal" in2="BackgroundImageFix" result="effect1_dropShadow_11457_6774"/>
<feBlend mode="normal" in="SourceGraphic" in2="effect1_dropShadow_11457_6774" result="shape"/>
</filter>
<clipPath id="clip0_11457_6774">
<rect width="20" height="20" fill="white" transform="translate(18 14)"/>
</clipPath>
</defs>
</svg>
