<svg xmlns="http://www.w3.org/2000/svg" width="17" height="16" viewBox="0 0 17 16" fill="none">
  <g clip-path="url(#clip0_9595_23588)">
    <path d="M8.85833 10.7846C9.72483 10.7846 10.4609 10.4813 11.0664 9.87475C11.672 9.26818 11.9747 8.53164 11.9747 7.66513C11.9747 6.79863 11.6715 6.06261 11.0649 5.45705C10.4583 4.85149 9.72181 4.54872 8.8553 4.54872C7.9888 4.54872 7.25277 4.85199 6.64721 5.45855C6.04166 6.06512 5.73888 6.80166 5.73888 7.66817C5.73888 8.53467 6.04216 9.27069 6.64871 9.87625C7.25528 10.4818 7.99182 10.7846 8.85833 10.7846ZM8.85485 9.49998C8.34505 9.49998 7.91237 9.32155 7.55681 8.96468C7.20126 8.60783 7.02348 8.17449 7.02348 7.66468C7.02348 7.15488 7.20191 6.72221 7.55878 6.36665C7.91563 6.01109 8.34897 5.83332 8.85878 5.83332C9.36858 5.83332 9.80126 6.01175 10.1568 6.36862C10.5124 6.72547 10.6901 7.15881 10.6901 7.66862C10.6901 8.17842 10.5117 8.61109 10.1548 8.96665C9.79799 9.32221 9.36466 9.49998 8.85485 9.49998ZM8.85681 12.8333C7.33118 12.8333 5.92712 12.4468 4.64464 11.6737C3.36218 10.9006 2.36838 9.84912 1.66324 8.51922C1.60086 8.40126 1.55577 8.26926 1.52799 8.1232C1.50022 7.97713 1.48633 7.82621 1.48633 7.67042C1.48633 7.51462 1.50022 7.36243 1.52799 7.21387C1.55577 7.0653 1.60086 6.93204 1.66324 6.81408C2.36838 5.48418 3.36218 4.43269 4.64464 3.65962C5.92712 2.88654 7.33118 2.5 8.85681 2.5C10.3824 2.5 11.7865 2.88654 13.069 3.65962C14.3514 4.43269 15.3452 5.48418 16.0504 6.81408C16.1128 6.93204 16.1579 7.06404 16.1856 7.2101C16.2134 7.35617 16.2273 7.50709 16.2273 7.66288C16.2273 7.81868 16.2134 7.97087 16.1856 8.11943C16.1579 8.268 16.1128 8.40126 16.0504 8.51922C15.3452 9.84912 14.3514 10.9006 13.069 11.6737C11.7865 12.4468 10.3824 12.8333 8.85681 12.8333Z" fill="#94A3B8"/>
  </g>
  <defs>
    <clipPath id="clip0_9595_23588">
      <rect width="16" height="16" fill="white" transform="translate(0.857422)"/>
    </clipPath>
  </defs>
</svg>