<svg width="22" height="19" viewBox="0 0 22 19" fill="none" xmlns="http://www.w3.org/2000/svg">
<path d="M2.22384 8.16568C2.63952 6.00703 3.84489 4.08082 5.60456 2.7632C7.36424 1.44559 9.55186 0.83118 11.7402 1.03996C13.9286 1.24874 15.9606 2.26572 17.4394 3.89231C18.5384 5.1012 19.2732 6.58229 19.5782 8.16568M19.5782 8.16568L15.9505 6.68065M19.5782 8.16568L21 4.7871M2.22381 11.0994C2.63948 13.258 3.84485 15.1843 5.60453 16.5019C7.3642 17.8195 9.55183 18.4339 11.7402 18.2251C13.9286 18.0163 15.9606 16.9994 17.4393 15.3728C18.5384 14.1639 19.2732 12.6828 19.5781 11.0994M2.22381 11.0994L1 15.3728M2.22381 11.0994L6.48279 12.5844" stroke="#8361FE" stroke-linecap="round"/>
<path d="M11.3936 4.75781V6.20801H10.6367V4.75781H11.3936ZM11.3008 12.7314V14.04H10.5488V12.7314H11.3008ZM11.9355 11.1396C11.9355 10.9541 11.8997 10.793 11.8281 10.6562C11.7598 10.5195 11.6442 10.3975 11.4814 10.29C11.3219 10.1826 11.1071 10.0801 10.8369 9.98242C10.417 9.82943 10.0492 9.66178 9.7334 9.47949C9.41764 9.29395 9.17188 9.06445 8.99609 8.79102C8.82357 8.51758 8.7373 8.17253 8.7373 7.75586C8.7373 7.35547 8.83008 7.00879 9.01562 6.71582C9.20443 6.4196 9.46647 6.19173 9.80176 6.03223C10.137 5.86947 10.526 5.78809 10.9688 5.78809C11.3138 5.78809 11.623 5.84017 11.8965 5.94434C12.1732 6.04525 12.4092 6.19336 12.6045 6.38867C12.8031 6.58398 12.9544 6.82487 13.0586 7.11133C13.166 7.39453 13.2197 7.71842 13.2197 8.08301H11.9307C11.9307 7.88118 11.9079 7.70215 11.8623 7.5459C11.8167 7.38965 11.7516 7.25781 11.667 7.15039C11.5824 7.03971 11.4798 6.95671 11.3594 6.90137C11.2422 6.84603 11.1087 6.81836 10.959 6.81836C10.7441 6.81836 10.5667 6.85905 10.4268 6.94043C10.29 7.02181 10.1891 7.13249 10.124 7.27246C10.0622 7.41243 10.0312 7.57357 10.0312 7.75586C10.0312 7.93164 10.0638 8.08626 10.1289 8.21973C10.1973 8.34993 10.3112 8.46875 10.4707 8.57617C10.6335 8.68359 10.8564 8.79264 11.1396 8.90332C11.5628 9.05957 11.9307 9.2321 12.2432 9.4209C12.5557 9.60645 12.7982 9.83431 12.9707 10.1045C13.1432 10.3747 13.2295 10.7165 13.2295 11.1299C13.2295 11.5531 13.1318 11.9111 12.9365 12.2041C12.7445 12.4971 12.4743 12.7201 12.126 12.873C11.7777 13.026 11.3724 13.1025 10.9102 13.1025C10.6139 13.1025 10.321 13.0635 10.0312 12.9854C9.74154 12.9072 9.47786 12.7803 9.24023 12.6045C9.00586 12.4255 8.81868 12.1895 8.67871 11.8965C8.53874 11.6003 8.46875 11.2373 8.46875 10.8076H9.7627C9.7627 11.055 9.79525 11.2601 9.86035 11.4229C9.92546 11.5856 10.0133 11.7158 10.124 11.8135C10.2347 11.9079 10.3584 11.9746 10.4951 12.0137C10.6318 12.0527 10.7702 12.0723 10.9102 12.0723C11.138 12.0723 11.3268 12.0332 11.4766 11.9551C11.6296 11.877 11.7435 11.7679 11.8184 11.6279C11.8965 11.4847 11.9355 11.3219 11.9355 11.1396Z" fill="#8361FE"/>
</svg>

