<svg width="20" height="20" viewBox="0 0 20 20" fill="none" xmlns="http://www.w3.org/2000/svg">
<g id="more_horiz_black_24dp (1) 2">
<g clip-path="url(#clip0_9535_7770)">
<rect width="20" height="20" rx="2" fill="#DDDFEB"/>
<path id="Vector" d="M5.0026 8.33203C4.08594 8.33203 3.33594 9.08203 3.33594 9.9987C3.33594 10.9154 4.08594 11.6654 5.0026 11.6654C5.91927 11.6654 6.66927 10.9154 6.66927 9.9987C6.66927 9.08203 5.91927 8.33203 5.0026 8.33203ZM15.0026 8.33203C14.0859 8.33203 13.3359 9.08203 13.3359 9.9987C13.3359 10.9154 14.0859 11.6654 15.0026 11.6654C15.9193 11.6654 16.6693 10.9154 16.6693 9.9987C16.6693 9.08203 15.9193 8.33203 15.0026 8.33203ZM10.0026 8.33203C9.08594 8.33203 8.33594 9.08203 8.33594 9.9987C8.33594 10.9154 9.08594 11.6654 10.0026 11.6654C10.9193 11.6654 11.6693 10.9154 11.6693 9.9987C11.6693 9.08203 10.9193 8.33203 10.0026 8.33203Z" fill="#70757A"/>
</g>
</g>
<defs>
<clipPath id="clip0_9535_7770">
<rect width="20" height="20" rx="2" fill="white"/>
</clipPath>
</defs>
</svg>
