<svg width="46" height="60" viewBox="0 0 46 60" fill="none" xmlns="http://www.w3.org/2000/svg">
<path fill-rule="evenodd" clip-rule="evenodd" d="M7 51.1V9.91C7.00263 9.40425 7.2047 8.91996 7.56233 8.56233C7.91995 8.2047 8.40425 8.00263 8.91 8H25.6L39.89 22.29V51.1C39.8874 51.6048 39.685 52.0881 39.327 52.4441C38.9691 52.8001 38.4848 53 37.98 53H8.91C8.40516 53 7.92086 52.8001 7.56295 52.4441C7.20504 52.0881 7.00264 51.6048 7 51.1Z" fill="#26B99A"/>
<path fill-rule="evenodd" clip-rule="evenodd" d="M25.6016 8L39.8916 22.29H27.5116C27.2604 22.2913 27.0114 22.2428 26.7791 22.1473C26.5468 22.0518 26.3357 21.9112 26.1581 21.7335C25.9804 21.5559 25.8398 21.3448 25.7443 21.1125C25.6488 20.8802 25.6003 20.6312 25.6016 20.38V8Z" fill="#AFFEED"/>
<path d="M13.54 41.05V46.06C13.54 46.68 13.35 47.17 12.97 47.53C12.5967 47.89 12.1033 48.07 11.49 48.07C10.8767 48.07 10.38 47.89 10 47.53C9.62667 47.17 9.44 46.68 9.44 46.06H10.59C10.5967 46.3667 10.6733 46.61 10.82 46.79C10.9733 46.97 11.1967 47.06 11.49 47.06C11.7833 47.06 12.0067 46.97 12.16 46.79C12.3133 46.6033 12.39 46.36 12.39 46.06V41.05H13.54ZM20.2545 43.12C20.2545 43.4733 20.1712 43.8067 20.0045 44.12C19.8379 44.4333 19.5712 44.69 19.2045 44.89C18.8379 45.0833 18.3679 45.18 17.7945 45.18H16.5345V48H15.3945V41.05H17.7945C18.3279 41.05 18.7779 41.1433 19.1445 41.33C19.5179 41.51 19.7945 41.7567 19.9745 42.07C20.1612 42.3833 20.2545 42.7333 20.2545 43.12ZM17.7945 44.25C18.2279 44.25 18.5512 44.1533 18.7645 43.96C18.9779 43.76 19.0845 43.48 19.0845 43.12C19.0845 42.36 18.6545 41.98 17.7945 41.98H16.5345V44.25H17.7945ZM22.4818 41.97V44.01H24.8818V44.94H22.4818V47.07H25.1818V48H21.3418V41.04H25.1818V41.97H22.4818ZM31.6159 43.05C31.4359 42.7033 31.1859 42.4433 30.8659 42.27C30.5459 42.09 30.1759 42 29.7559 42C29.2959 42 28.8859 42.1033 28.5259 42.31C28.1659 42.5167 27.8826 42.81 27.6759 43.19C27.4759 43.57 27.3759 44.01 27.3759 44.51C27.3759 45.01 27.4759 45.4533 27.6759 45.84C27.8826 46.22 28.1659 46.5133 28.5259 46.72C28.8859 46.9267 29.2959 47.03 29.7559 47.03C30.3759 47.03 30.8793 46.8567 31.2659 46.51C31.6526 46.1633 31.8893 45.6933 31.9759 45.1H29.3659V44.19H33.1959V45.08C33.1226 45.62 32.9293 46.1167 32.6159 46.57C32.3093 47.0233 31.9059 47.3867 31.4059 47.66C30.9126 47.9267 30.3626 48.06 29.7559 48.06C29.1026 48.06 28.5059 47.91 27.9659 47.61C27.4259 47.3033 26.9959 46.88 26.6759 46.34C26.3626 45.8 26.2059 45.19 26.2059 44.51C26.2059 43.83 26.3626 43.22 26.6759 42.68C26.9959 42.14 27.4259 41.72 27.9659 41.42C28.5126 41.1133 29.1093 40.96 29.7559 40.96C30.4959 40.96 31.1526 41.1433 31.7259 41.51C32.3059 41.87 32.7259 42.3833 32.9859 43.05H31.6159Z" fill="white"/>
</svg>
