<svg
        xmlns="http://www.w3.org/2000/svg"
        width="20"
        height="20"
        viewBox="0 0 20 20"
        fill="none"
      >
        <g clip-path="url(#clip0_51_7)">
          <path
            d="M12.9172 11.6672H12.2589L12.0255 11.4422C13.0255 10.2755 13.5422 8.68386 13.2589 6.99219C12.8672 4.67552 10.9339 2.82552 8.60052 2.54219C5.07552 2.10885 2.10885 5.07552 2.54219 8.60052C2.82552 10.9339 4.67552 12.8672 6.99219 13.2589C8.68385 13.5422 10.2755 13.0255 11.4422 12.0255L11.6672 12.2589V12.9172L15.2089 16.4589C15.5505 16.8005 16.1089 16.8005 16.4505 16.4589C16.7922 16.1172 16.7922 15.5589 16.4505 15.2172L12.9172 11.6672ZM7.91719 11.6672C5.84219 11.6672 4.16719 9.99219 4.16719 7.91719C4.16719 5.84219 5.84219 4.16719 7.91719 4.16719C9.99219 4.16719 11.6672 5.84219 11.6672 7.91719C11.6672 9.99219 9.99219 11.6672 7.91719 11.6672Z"
            fill="#565C75"
          />
        </g>
        <defs>
          <clipPath id="clip0_51_7">
            <rect width="20" height="20" fill="white" />
          </clipPath>
        </defs>
      </svg>