<svg width="48" height="48" viewBox="0 0 48 48" fill="none" xmlns="http://www.w3.org/2000/svg">
<rect width="48" height="48" rx="8" fill="#EAF7EE"/>
<g clip-path="url(#clip0_10018_10307)">
<path d="M33.8801 16.5699C34.3351 17.0249 34.3351 17.7482 33.8801 18.2032L20.6501 31.4332C20.1951 31.8882 19.4718 31.8882 19.0168 31.4332L14.1168 26.5332C13.6618 26.0782 13.6618 25.3549 14.1168 24.8999C14.5718 24.4449 15.2951 24.4449 15.7501 24.8999L19.8334 28.9832L32.2468 16.5699C32.7018 16.1149 33.4251 16.1149 33.8801 16.5699ZM31.4184 14.0966L19.8334 25.6816L16.5784 22.4266C15.6684 21.5166 14.1868 21.5166 13.2768 22.4266L11.6434 24.0599C10.7334 24.9699 10.7334 26.4516 11.6434 27.3616L18.1768 33.8949C19.0868 34.8049 20.5684 34.8049 21.4784 33.8949L36.3534 19.0316C37.2634 18.1216 37.2634 16.6399 36.3534 15.7299L34.7201 14.0966C33.7984 13.1866 32.3284 13.1866 31.4184 14.0966Z" fill="#3AB65D"/>
</g>
<defs>
<clipPath id="clip0_10018_10307">
<rect width="28" height="28" fill="white" transform="translate(10 10)"/>
</clipPath>
</defs>
</svg>
