<svg width="46" height="60" viewBox="0 0 46 60" fill="none" xmlns="http://www.w3.org/2000/svg">
<path fill-rule="evenodd" clip-rule="evenodd" d="M7 51.1V9.91C7.00263 9.40425 7.2047 8.91996 7.56233 8.56233C7.91995 8.2047 8.40425 8.00263 8.91 8H25.6L39.89 22.29V51.1C39.8874 51.6048 39.685 52.0881 39.327 52.4441C38.9691 52.8001 38.4848 53 37.98 53H8.91C8.40516 53 7.92086 52.8001 7.56295 52.4441C7.20504 52.0881 7.00264 51.6048 7 51.1Z" fill="#FF7F7E"/>
<path fill-rule="evenodd" clip-rule="evenodd" d="M25.6016 8L39.8916 22.29H27.5116C27.2604 22.2913 27.0114 22.2428 26.7791 22.1473C26.5468 22.0518 26.3357 21.9112 26.1581 21.7335C25.9804 21.5559 25.8398 21.3448 25.7443 21.1125C25.6488 20.8802 25.6003 20.6312 25.6016 20.38V8Z" fill="#FEC9C8"/>
<path d="M14.61 43.12C14.61 43.4733 14.5267 43.8067 14.36 44.12C14.1933 44.4333 13.9267 44.69 13.56 44.89C13.1933 45.0833 12.7233 45.18 12.15 45.18H10.89V48H9.75V41.05H12.15C12.6833 41.05 13.1333 41.1433 13.5 41.33C13.8733 41.51 14.15 41.7567 14.33 42.07C14.5167 42.3833 14.61 42.7333 14.61 43.12ZM12.15 44.25C12.5833 44.25 12.9067 44.1533 13.12 43.96C13.3333 43.76 13.44 43.48 13.44 43.12C13.44 42.36 13.01 41.98 12.15 41.98H10.89V44.25H12.15ZM17.9673 41.05C18.7073 41.05 19.3539 41.1933 19.9073 41.48C20.4673 41.76 20.8973 42.1667 21.1973 42.7C21.5039 43.2267 21.6573 43.8433 21.6573 44.55C21.6573 45.2567 21.5039 45.87 21.1973 46.39C20.8973 46.91 20.4673 47.31 19.9073 47.59C19.3539 47.8633 18.7073 48 17.9673 48H15.6973V41.05H17.9673ZM17.9673 47.07C18.7806 47.07 19.4039 46.85 19.8373 46.41C20.2706 45.97 20.4873 45.35 20.4873 44.55C20.4873 43.7433 20.2706 43.1133 19.8373 42.66C19.4039 42.2067 18.7806 41.98 17.9673 41.98H16.8373V47.07H17.9673ZM26.8771 41.05V41.98H23.9271V44.03H26.2271V44.96H23.9271V48H22.7871V41.05H26.8771Z" fill="white"/>
</svg>
