<svg width="16" height="16" viewBox="0 0 16 16" fill="none" xmlns="http://www.w3.org/2000/svg">
<g id="add_FILL0_wght400_GRAD0_opsz48 1">
<path id="Vector" d="M7.99578 12.6654C7.85328 12.6654 7.73481 12.6174 7.64036 12.5216C7.54592 12.4258 7.4987 12.307 7.4987 12.1654V8.4987H3.83203C3.69036 8.4987 3.57161 8.4505 3.47578 8.35411C3.37995 8.25771 3.33203 8.13827 3.33203 7.99578C3.33203 7.85328 3.37995 7.73481 3.47578 7.64036C3.57161 7.54592 3.69036 7.4987 3.83203 7.4987H7.4987V3.83203C7.4987 3.69036 7.54689 3.57161 7.64328 3.47578C7.73968 3.37995 7.85913 3.33203 8.00161 3.33203C8.14411 3.33203 8.26259 3.37995 8.35703 3.47578C8.45148 3.57161 8.4987 3.69036 8.4987 3.83203V7.4987H12.1654C12.307 7.4987 12.4258 7.54689 12.5216 7.64328C12.6174 7.73968 12.6654 7.85913 12.6654 8.00161C12.6654 8.14411 12.6174 8.26259 12.5216 8.35703C12.4258 8.45148 12.307 8.4987 12.1654 8.4987H8.4987V12.1654C8.4987 12.307 8.4505 12.4258 8.35411 12.5216C8.25771 12.6174 8.13827 12.6654 7.99578 12.6654Z" fill="#70757A"/>
</g>
</svg>
