<svg width="46" height="60" viewBox="0 0 46 60" fill="none" xmlns="http://www.w3.org/2000/svg">
<path fill-rule="evenodd" clip-rule="evenodd" d="M7 51.1V9.91C7.00263 9.40425 7.2047 8.91996 7.56233 8.56233C7.91995 8.2047 8.40425 8.00263 8.91 8H25.6L39.89 22.29V51.1C39.8874 51.6048 39.685 52.0881 39.327 52.4441C38.9691 52.8001 38.4848 53 37.98 53H8.91C8.40516 53 7.92086 52.8001 7.56295 52.4441C7.20504 52.0881 7.00264 51.6048 7 51.1Z" fill="#A066AA"/>
<path fill-rule="evenodd" clip-rule="evenodd" d="M25.6016 8L39.8916 22.29H27.5116C27.2604 22.2913 27.0114 22.2428 26.7791 22.1473C26.5468 22.0518 26.3357 21.9112 26.1581 21.7335C25.9804 21.5559 25.8398 21.3448 25.7443 21.1125C25.6488 20.8802 25.6003 20.6312 25.6016 20.38V8Z" fill="#F8D5FF"/>
<path d="M14.61 43.12C14.61 43.4733 14.5267 43.8067 14.36 44.12C14.1933 44.4333 13.9267 44.69 13.56 44.89C13.1933 45.0833 12.7233 45.18 12.15 45.18H10.89V48H9.75V41.05H12.15C12.6833 41.05 13.1333 41.1433 13.5 41.33C13.8733 41.51 14.15 41.7567 14.33 42.07C14.5167 42.3833 14.61 42.7333 14.61 43.12ZM12.15 44.25C12.5833 44.25 12.9067 44.1533 13.12 43.96C13.3333 43.76 13.44 43.48 13.44 43.12C13.44 42.36 13.01 41.98 12.15 41.98H10.89V44.25H12.15ZM21.4073 48H20.2673L16.8373 42.81V48H15.6973V41.04H16.8373L20.2673 46.22V41.04H21.4073V48ZM27.9343 43.05C27.7543 42.7033 27.5043 42.4433 27.1843 42.27C26.8643 42.09 26.4943 42 26.0743 42C25.6143 42 25.2043 42.1033 24.8443 42.31C24.4843 42.5167 24.201 42.81 23.9943 43.19C23.7943 43.57 23.6943 44.01 23.6943 44.51C23.6943 45.01 23.7943 45.4533 23.9943 45.84C24.201 46.22 24.4843 46.5133 24.8443 46.72C25.2043 46.9267 25.6143 47.03 26.0743 47.03C26.6943 47.03 27.1976 46.8567 27.5843 46.51C27.971 46.1633 28.2076 45.6933 28.2943 45.1H25.6843V44.19H29.5143V45.08C29.441 45.62 29.2476 46.1167 28.9343 46.57C28.6276 47.0233 28.2243 47.3867 27.7243 47.66C27.231 47.9267 26.681 48.06 26.0743 48.06C25.421 48.06 24.8243 47.91 24.2843 47.61C23.7443 47.3033 23.3143 46.88 22.9943 46.34C22.681 45.8 22.5243 45.19 22.5243 44.51C22.5243 43.83 22.681 43.22 22.9943 42.68C23.3143 42.14 23.7443 41.72 24.2843 41.42C24.831 41.1133 25.4276 40.96 26.0743 40.96C26.8143 40.96 27.471 41.1433 28.0443 41.51C28.6243 41.87 29.0443 42.3833 29.3043 43.05H27.9343Z" fill="white"/>
</svg>
