<svg width="24" height="24" viewBox="0 0 24 24" fill="none" xmlns="http://www.w3.org/2000/svg">
<g clip-path="url(#clip0_10404_25058)">
<path d="M12.0028 16.6877L12.261 16.8439L16.411 19.3539L16.4112 19.354C16.7908 19.5837 17.2556 19.2462 17.1553 18.815L16.0553 14.0952L15.9868 13.8014L16.2148 13.6038L19.8848 10.4238L19.885 10.4237C20.2218 10.1322 20.0375 9.58474 19.6026 9.55014L19.6 9.54993L14.77 9.13993L14.4695 9.11442L14.3519 8.83681L12.4619 4.37681L12.4612 4.37524C12.2928 3.97388 11.7118 3.97388 11.5433 4.37524L11.5425 4.37718L9.65248 8.82718L9.53472 9.10445L9.23456 9.12993L4.40456 9.53993L4.40192 9.54015L4.40192 9.54014C3.96701 9.57474 3.78279 10.1222 4.11952 10.4137L4.1197 10.4138L7.7897 13.5938L8.01769 13.7914L7.94922 14.0852L6.84927 18.805L12.0028 16.6877ZM12.0028 16.6877L11.7443 16.8434M12.0028 16.6877L11.7443 16.8434M11.7443 16.8434L7.59426 19.3434L7.59337 19.344M11.7443 16.8434L7.59337 19.344M7.59337 19.344C7.21382 19.5737 6.74915 19.2363 6.84922 18.8052L7.59337 19.344Z" stroke="#BEBEC0"/>
</g>
<defs>
<clipPath id="clip0_10404_25058">
<rect width="24" height="24" fill="white"/>
</clipPath>
</defs>
</svg>
