<svg width="18" height="18" viewBox="0 0 18 18" fill="none" xmlns="http://www.w3.org/2000/svg">
<g id="table_chart_FILL0_wght400_GRAD0_opsz24 1">
<path id="Vector" d="M15 15.75H3.75C3.3375 15.75 2.98438 15.6031 2.69063 15.3094C2.39687 15.0156 2.25 14.6625 2.25 14.25V3.75C2.25 3.3375 2.39687 2.98438 2.69063 2.69063C2.98438 2.39687 3.3375 2.25 3.75 2.25H15C15.4125 2.25 15.7656 2.39687 16.0594 2.69063C16.3531 2.98438 16.5 3.3375 16.5 3.75V14.25C16.5 14.6625 16.3531 15.0156 16.0594 15.3094C15.7656 15.6031 15.4125 15.75 15 15.75ZM3.75 6H15V3.75H3.75V6ZM6 7.5H3.75V14.25H6V7.5ZM12.75 7.5V14.25H15V7.5H12.75ZM11.25 7.5H7.5V14.25H11.25V7.5Z" fill="white"/>
</g>
</svg>
