<svg xmlns="http://www.w3.org/2000/svg" width="30" height="30" viewBox="0 0 30 30" fill="none">
  <path d="M11.9653 21.6058C11.8463 21.6058 11.7371 21.586 11.6379 21.5463C11.5387 21.5066 11.4395 21.4372 11.3403 21.338L5.9534 15.9511C5.77483 15.7725 5.68555 15.5543 5.68555 15.2963C5.68555 15.0384 5.77483 14.8201 5.9534 14.6416C6.13198 14.463 6.34031 14.3737 6.5784 14.3737C6.8165 14.3737 7.02483 14.463 7.2034 14.6416L11.9653 19.4035L22.7689 8.59989C22.9475 8.42132 23.1607 8.33203 23.4088 8.33203C23.6568 8.33203 23.8701 8.42132 24.0486 8.59989C24.2272 8.77846 24.3165 8.99175 24.3165 9.23977C24.3165 9.48779 24.2272 9.70108 24.0486 9.87965L12.5903 21.338C12.4911 21.4372 12.3919 21.5066 12.2927 21.5463C12.1935 21.586 12.0844 21.6058 11.9653 21.6058Z" fill="#3AB65D"/>
</svg>