<svg width="48" height="48" viewBox="0 0 48 48" fill="none" xmlns="http://www.w3.org/2000/svg">
<rect width="48" height="48" rx="8" fill="#EBF3FD"/>
<path d="M34.7049 11H13.2951C12.0275 11 11 12.0694 11 13.3886V34.6114C11 35.9306 12.0275 37 13.2951 37H34.7049C35.9725 37 37 35.9306 37 34.6114V13.3886C37 12.0694 35.9725 11 34.7049 11Z" fill="#376BEE"/>
<path d="M16.5781 21.3125H18.5898C19.0221 21.3125 19.3906 21.3776 19.6953 21.5078C20 21.638 20.2331 21.8307 20.3945 22.0859C20.5586 22.3385 20.6406 22.651 20.6406 23.0234C20.6406 23.3073 20.5885 23.5573 20.4844 23.7734C20.3802 23.9896 20.2331 24.1719 20.043 24.3203C19.8529 24.4661 19.6263 24.5794 19.3633 24.6602L19.0664 24.8047H17.2578L17.25 24.0273H18.6055C18.8398 24.0273 19.0352 23.9857 19.1914 23.9023C19.3477 23.819 19.4648 23.7057 19.543 23.5625C19.6237 23.4167 19.6641 23.2526 19.6641 23.0703C19.6641 22.8724 19.625 22.7005 19.5469 22.5547C19.4714 22.4062 19.3542 22.293 19.1953 22.2148C19.0365 22.1341 18.8346 22.0938 18.5898 22.0938H17.5586V27H16.5781V21.3125ZM19.8242 27L18.4883 24.4453L19.5156 24.4414L20.8711 26.9492V27H19.8242ZM23.5577 21.3125V27H22.5772V21.3125H23.5577ZM25.878 23.8008V24.5781H23.3077V23.8008H25.878ZM26.2022 21.3125V22.0938H23.3077V21.3125H26.2022ZM30.1036 24.8789H28.6231V24.1016H30.1036C30.3614 24.1016 30.5697 24.0599 30.7286 23.9766C30.8874 23.8932 31.0033 23.7786 31.0763 23.6328C31.1518 23.4844 31.1895 23.3151 31.1895 23.125C31.1895 22.9453 31.1518 22.7773 31.0763 22.6211C31.0033 22.4622 30.8874 22.3346 30.7286 22.2383C30.5697 22.1419 30.3614 22.0938 30.1036 22.0938H28.9239V27H27.9434V21.3125H30.1036C30.5437 21.3125 30.9174 21.3906 31.2247 21.5469C31.5346 21.7005 31.7703 21.9141 31.9317 22.1875C32.0932 22.4583 32.1739 22.7682 32.1739 23.1172C32.1739 23.4844 32.0932 23.7995 31.9317 24.0625C31.7703 24.3255 31.5346 24.5273 31.2247 24.668C30.9174 24.8086 30.5437 24.8789 30.1036 24.8789Z" fill="#FBFBFB"/>
</svg>
