<svg width="20" height="20" viewBox="0 0 20 20" fill="none" xmlns="http://www.w3.org/2000/svg">
<g clip-path="url(#clip0_10018_10299)">
<path d="M14.0427 5.70833L15.2427 6.90833L11.176 10.975L8.43437 8.23333C8.10937 7.90833 7.58437 7.90833 7.25938 8.23333L2.25937 13.2417C1.93438 13.5667 1.93438 14.0917 2.25937 14.4167C2.58437 14.7417 3.10937 14.7417 3.43437 14.4167L7.84271 10L10.5844 12.7417C10.9094 13.0667 11.4344 13.0667 11.7594 12.7417L16.4177 8.09167L17.6177 9.29167C17.876 9.55 18.326 9.36667 18.326 9V5.41667C18.3344 5.18333 18.151 5 17.9177 5H14.3427C13.9677 5 13.7844 5.45 14.0427 5.70833Z" fill="#34A853"/>
</g>
<defs>
<clipPath id="clip0_10018_10299">
<rect width="20" height="20" fill="white"/>
</clipPath>
</defs>
</svg>
