<svg width="48" height="48" viewBox="0 0 48 48" fill="none" xmlns="http://www.w3.org/2000/svg">
<rect width="48" height="48" rx="8" fill="#FEF5E7"/>
<path d="M23.988 10.6667C16.628 10.6667 10.668 16.64 10.668 24C10.668 31.36 16.628 37.3333 23.988 37.3333C31.3613 37.3333 37.3346 31.36 37.3346 24C37.3346 16.64 31.3613 10.6667 23.988 10.6667ZM24.0013 34.6667C18.108 34.6667 13.3346 29.8933 13.3346 24C13.3346 18.1067 18.108 13.3333 24.0013 13.3333C29.8946 13.3333 34.668 18.1067 34.668 24C34.668 29.8933 29.8946 34.6667 24.0013 34.6667ZM23.708 17.3333H23.628C23.0946 17.3333 22.668 17.76 22.668 18.2933V24.5867C22.668 25.0533 22.908 25.4933 23.3213 25.7333L28.8546 29.0533C29.308 29.32 29.8946 29.1867 30.1613 28.7333C30.4413 28.28 30.2946 27.68 29.828 27.4133L24.668 24.3467V18.2933C24.668 17.76 24.2413 17.3333 23.708 17.3333Z" fill="#C6720E"/>
</svg>
