<svg xmlns="http://www.w3.org/2000/svg" width="20" height="20" viewBox="0 0 20 20" fill="none">
  <g clip-path="url(#clip0_9595_24080)">
    <path d="M14.0427 13.9479L15.2427 12.7479L11.176 8.68125L8.43437 11.4229C8.10937 11.7479 7.58437 11.7479 7.25938 11.4229L2.25937 6.41458C1.93438 6.08958 1.93438 5.56458 2.25937 5.23958C2.58437 4.91458 3.10937 4.91458 3.43437 5.23958L7.84271 9.65625L10.5844 6.91458C10.9094 6.58958 11.4344 6.58958 11.7594 6.91458L16.4177 11.5646L17.6177 10.3646C17.876 10.1063 18.326 10.2896 18.326 10.6562V14.2396C18.3344 14.4729 18.151 14.6562 17.9177 14.6562H14.3427C13.9677 14.6562 13.7844 14.2063 14.0427 13.9479Z" fill="#FF5252"/>
  </g>
  <defs>
    <clipPath id="clip0_9595_24080">
      <rect width="20" height="20" fill="white"/>
    </clipPath>
  </defs>
</svg>