<svg width="32" height="32" viewBox="0 0 32 32" fill="none" xmlns="http://www.w3.org/2000/svg">
<g id="cloud_upload_black_24dp 1" clip-path="url(#clip0_11086_6055)">
<path id="Vector" d="M25.8 13.3854C24.8933 8.78536 20.8533 5.33203 16 5.33203C12.1467 5.33203 8.8 7.5187 7.13333 10.7187C3.12 11.1454 0 14.5454 0 18.6654C0 23.0787 3.58667 26.6654 8 26.6654H25.3333C29.0133 26.6654 32 23.6787 32 19.9987C32 16.4787 29.2667 13.6254 25.8 13.3854ZM18.6667 17.332V22.6654H13.3333V17.332H9.33333L15.5333 11.132C15.8 10.8654 16.2133 10.8654 16.48 11.132L22.6667 17.332H18.6667Z" fill="#3D424F"/>
</g>
<defs>
<clipPath id="clip0_11086_6055">
<rect width="32" height="32" fill="white"/>
</clipPath>
</defs>
</svg>
