<svg width="30" height="26" viewBox="0 0 30 26" fill="none" xmlns="http://www.w3.org/2000/svg">
<path d="M15.0002 2.99625L26.2952 22.5113H3.70518L15.0002 2.99625ZM1.11018 21.0113C-0.0448182 23.0063 1.39518 25.5112 3.70518 25.5112H26.2952C28.6052 25.5112 30.0452 23.0063 28.8902 21.0113L17.5952 1.49625C16.4402 -0.49875 13.5602 -0.49875 12.4052 1.49625L1.11018 21.0113ZM13.5002 10.5113V13.5113C13.5002 14.3363 14.1752 15.0113 15.0002 15.0113C15.8252 15.0113 16.5002 14.3363 16.5002 13.5113V10.5113C16.5002 9.68625 15.8252 9.01125 15.0002 9.01125C14.1752 9.01125 13.5002 9.68625 13.5002 10.5113ZM13.5002 18.0113H16.5002V21.0113H13.5002V18.0113Z" fill="#FF5252"/>
</svg>
