<svg width="29" height="26" viewBox="0 0 29 26" fill="none" xmlns="http://www.w3.org/2000/svg">
<path d="M14.5002 2.99625L25.7952 22.5113H3.20518L14.5002 2.99625ZM0.610182 21.0113C-0.544818 23.0063 0.895181 25.5112 3.20518 25.5112H25.7952C28.1052 25.5112 29.5452 23.0063 28.3902 21.0113L17.0952 1.49625C15.9402 -0.49875 13.0602 -0.49875 11.9052 1.49625L0.610182 21.0113ZM13.0002 10.5113V13.5113C13.0002 14.3363 13.6752 15.0113 14.5002 15.0113C15.3252 15.0113 16.0002 14.3363 16.0002 13.5113V10.5113C16.0002 9.68625 15.3252 9.01125 14.5002 9.01125C13.6752 9.01125 13.0002 9.68625 13.0002 10.5113ZM13.0002 18.0113H16.0002V21.0113H13.0002V18.0113Z" fill="#FF5252"/>
</svg>
