<svg xmlns="http://www.w3.org/2000/svg" width="24" height="24" viewBox="0 0 24 24" fill="none">
  <path d="M12.0001 3.9975L19.5301 17.0075H4.47012L12.0001 3.9975ZM2.74012 16.0075C1.97012 17.3375 2.93012 19.0075 4.47012 19.0075H19.5301C21.0701 19.0075 22.0301 17.3375 21.2601 16.0075L13.7301 2.9975C12.9601 1.6675 11.0401 1.6675 10.2701 2.9975L2.74012 16.0075ZM11.0001 9.0075V11.0075C11.0001 11.5575 11.4501 12.0075 12.0001 12.0075C12.5501 12.0075 13.0001 11.5575 13.0001 11.0075V9.0075C13.0001 8.4575 12.5501 8.0075 12.0001 8.0075C11.4501 8.0075 11.0001 8.4575 11.0001 9.0075ZM11.0001 14.0075H13.0001V16.0075H11.0001V14.0075Z" fill="#8361FE"/>
</svg>