<svg width="46" height="60" viewBox="0 0 46 60" fill="none" xmlns="http://www.w3.org/2000/svg">
<path fill-rule="evenodd" clip-rule="evenodd" d="M7 51.1V9.91C7.00263 9.40425 7.2047 8.91996 7.56233 8.56233C7.91995 8.2047 8.40425 8.00263 8.91 8H25.6L39.89 22.29V51.1C39.8874 51.6048 39.685 52.0881 39.327 52.4441C38.9691 52.8001 38.4848 53 37.98 53H8.91C8.40516 53 7.92086 52.8001 7.56295 52.4441C7.20504 52.0881 7.00264 51.6048 7 51.1Z" fill="#107C41"/>
<path fill-rule="evenodd" clip-rule="evenodd" d="M25.6016 8L39.8916 22.29H27.5116C27.2604 22.2913 27.0114 22.2428 26.7791 22.1473C26.5468 22.0518 26.3357 21.9112 26.1581 21.7335C25.9804 21.5559 25.8398 21.3448 25.7443 21.1125C25.6488 20.8802 25.6003 20.6312 25.6016 20.38V8Z" fill="#21A265"/>
<path d="M12.94 44.53L15.1 48H13.82L12.25 45.48L10.78 48H9.51L11.67 44.53L9.5 41.05H10.78L12.36 43.59L13.84 41.05H15.11L12.94 44.53ZM23.6716 41.05V48H22.5316V43.24L20.4116 48H19.6216L17.4916 43.24V48H16.3516V41.05H17.5816L20.0216 46.5L22.4516 41.05H23.6716ZM26.3099 47.08H28.6599V48H25.1699V41.05H26.3099V47.08Z" fill="white"/>
</svg>
