<svg width="32" height="32" viewBox="0 0 32 32" fill="none" xmlns="http://www.w3.org/2000/svg">
<circle cx="16" cy="16" r="16" fill="#F3F3F4"/>
<path d="M9.55 21.625C10.6 20.8917 11.6417 20.3292 12.675 19.9375C13.7083 19.5458 14.8167 19.35 16 19.35C17.1833 19.35 18.2958 19.5458 19.3375 19.9375C20.3792 20.3292 21.425 20.8917 22.475 21.625C23.2083 20.725 23.7292 19.8167 24.0375 18.9C24.3458 17.9833 24.5 17.0167 24.5 16C24.5 13.5833 23.6875 11.5625 22.0625 9.9375C20.4375 8.3125 18.4167 7.5 16 7.5C13.5833 7.5 11.5625 8.3125 9.9375 9.9375C8.3125 11.5625 7.5 13.5833 7.5 16C7.5 17.0167 7.65833 17.9833 7.975 18.9C8.29167 19.8167 8.81667 20.725 9.55 21.625ZM15.9954 16.75C15.0318 16.75 14.2208 16.4193 13.5625 15.7579C12.9042 15.0964 12.575 14.2839 12.575 13.3204C12.575 12.3568 12.9057 11.5458 13.5672 10.8875C14.2286 10.2292 15.0411 9.9 16.0047 9.9C16.9682 9.9 17.7792 10.2307 18.4375 10.8921C19.0958 11.5536 19.425 12.3661 19.425 13.3296C19.425 14.2932 19.0943 15.1042 18.4329 15.7625C17.7714 16.4208 16.9589 16.75 15.9954 16.75ZM16.0117 26C14.6372 26 13.3417 25.7375 12.125 25.2125C10.9083 24.6875 9.84583 23.9708 8.9375 23.0625C8.02917 22.1542 7.3125 21.0936 6.7875 19.8809C6.2625 18.6681 6 17.3723 6 15.9934C6 14.6145 6.2625 13.3208 6.7875 12.1125C7.3125 10.9042 8.02917 9.84583 8.9375 8.9375C9.84583 8.02917 10.9064 7.3125 12.1191 6.7875C13.3319 6.2625 14.6277 6 16.0066 6C17.3855 6 18.6792 6.2625 19.8875 6.7875C21.0958 7.3125 22.1542 8.02917 23.0625 8.9375C23.9708 9.84583 24.6875 10.9044 25.2125 12.1133C25.7375 13.3222 26 14.6138 26 15.9883C26 17.3628 25.7375 18.6583 25.2125 19.875C24.6875 21.0917 23.9708 22.1542 23.0625 23.0625C22.1542 23.9708 21.0956 24.6875 19.8867 25.2125C18.6778 25.7375 17.3862 26 16.0117 26ZM16 24.5C16.9167 24.5 17.8125 24.3667 18.6875 24.1C19.5625 23.8333 20.425 23.3667 21.275 22.7C20.425 22.1 19.5583 21.6417 18.675 21.325C17.7917 21.0083 16.9 20.85 16 20.85C15.1 20.85 14.2083 21.0083 13.325 21.325C12.4417 21.6417 11.575 22.1 10.725 22.7C11.575 23.3667 12.4375 23.8333 13.3125 24.1C14.1875 24.3667 15.0833 24.5 16 24.5ZM16 15.25C16.5667 15.25 17.0292 15.0708 17.3875 14.7125C17.7458 14.3542 17.925 13.8917 17.925 13.325C17.925 12.7583 17.7458 12.2958 17.3875 11.9375C17.0292 11.5792 16.5667 11.4 16 11.4C15.4333 11.4 14.9708 11.5792 14.6125 11.9375C14.2542 12.2958 14.075 12.7583 14.075 13.325C14.075 13.8917 14.2542 14.3542 14.6125 14.7125C14.9708 15.0708 15.4333 15.25 16 15.25Z" fill="#7367F0"/>
</svg>
