<svg width="16" height="16" viewBox="0 0 16 16" fill="none" xmlns="http://www.w3.org/2000/svg">
<path d="M11.8 3.25007L11.8 3.25009L11.8046 3.25202C12.2247 3.43044 12.5 3.8469 12.5 4.3168V6.67947C12.3911 6.6715 12.2799 6.6668 12.1667 6.6668C9.13219 6.6668 6.66667 9.13232 6.66667 12.1668C6.66667 13.1196 6.91433 14.0173 7.34443 14.8007C7.14783 14.8717 6.95018 14.9335 6.75048 14.985C3.46432 14.1356 1 10.8427 1 7.3168V4.3168C1 3.85786 1.27339 3.4372 1.70046 3.24985C1.70055 3.24981 1.70064 3.24977 1.70074 3.24973L6.28138 1.2509C6.28167 1.25078 6.28196 1.25065 6.28226 1.25052C6.58036 1.12222 6.91966 1.12222 7.21776 1.25053C7.21804 1.25065 7.21833 1.25078 7.21862 1.2509L11.8 3.25007Z" stroke="#70757A"/>
<path d="M10.0014 13.4632L9.99399 13.5696L10.0554 13.6567C10.525 14.3236 11.2893 14.759 12.1673 14.759C13.0453 14.759 13.8096 14.3236 14.2793 13.6567L14.3406 13.5696L14.3333 13.4632C14.3155 13.207 14.1727 13.0078 14.0071 12.8638C13.8421 12.7204 13.6325 12.6114 13.422 12.5294C13.0017 12.3658 12.5085 12.284 12.1673 12.284C11.8261 12.284 11.333 12.3658 10.9127 12.5294C10.7021 12.6114 10.4925 12.7204 10.3275 12.8638C10.1619 13.0078 10.0192 13.207 10.0014 13.4632ZM9.13398 12.1673C9.13398 10.4913 10.4913 9.13398 12.1673 9.13398C13.8433 9.13398 15.2007 10.4913 15.2007 12.1673C15.2007 13.8433 13.8433 15.2007 12.1673 15.2007C10.4913 15.2007 9.13398 13.8433 9.13398 12.1673ZM13.4007 10.9173C13.4007 10.245 12.8514 9.68398 12.1673 9.68398C11.4832 9.68398 10.934 10.245 10.934 10.9173C10.934 11.5913 11.4933 12.1507 12.1673 12.1507C12.8413 12.1507 13.4007 11.5913 13.4007 10.9173Z" stroke="#70757A" stroke-width="0.6"/>
</svg>
