<svg width="110" height="16" viewBox="0 0 110 16" fill="none" xmlns="http://www.w3.org/2000/svg">
<path d="M0.48 15L6.24 0.999999H7.84L13.56 15H11.08L6.6 3.66H7.44L2.92 15H0.48ZM3.32 12.3V10.3H10.74V12.3H3.32ZM19.7747 15.2C18.668 15.2 17.728 15 16.9547 14.6C16.1814 14.2 15.488 13.6133 14.8747 12.84L16.4347 11.28C16.8214 11.84 17.2814 12.28 17.8147 12.6C18.348 12.9067 19.028 13.06 19.8547 13.06C20.628 13.06 21.2414 12.9 21.6947 12.58C22.1614 12.26 22.3947 11.82 22.3947 11.26C22.3947 10.7933 22.2747 10.4133 22.0347 10.12C21.7947 9.82667 21.4747 9.58667 21.0747 9.4C20.688 9.2 20.2547 9.02667 19.7747 8.88C19.308 8.72 18.8347 8.54667 18.3547 8.36C17.888 8.16 17.4547 7.91333 17.0547 7.62C16.668 7.32667 16.3547 6.94667 16.1147 6.48C15.8747 6.01333 15.7547 5.42 15.7547 4.7C15.7547 3.87333 15.9547 3.17333 16.3547 2.6C16.768 2.01333 17.3214 1.56667 18.0147 1.26C18.708 0.953333 19.4814 0.799999 20.3347 0.799999C21.2547 0.799999 22.0747 0.979999 22.7947 1.34C23.528 1.7 24.1214 2.16 24.5747 2.72L23.0147 4.28C22.6147 3.82667 22.1947 3.49333 21.7547 3.28C21.328 3.05333 20.8347 2.94 20.2747 2.94C19.5814 2.94 19.0347 3.08 18.6347 3.36C18.248 3.64 18.0547 4.03333 18.0547 4.54C18.0547 4.96667 18.1747 5.31333 18.4147 5.58C18.6547 5.83333 18.968 6.05333 19.3547 6.24C19.7547 6.41333 20.188 6.58 20.6547 6.74C21.1347 6.9 21.608 7.08 22.0747 7.28C22.5547 7.48 22.988 7.74 23.3747 8.06C23.7747 8.36667 24.0947 8.76667 24.3347 9.26C24.5747 9.75333 24.6947 10.3733 24.6947 11.12C24.6947 12.3733 24.248 13.3667 23.3547 14.1C22.4747 14.8333 21.2814 15.2 19.7747 15.2ZM36.248 15L29.768 7.7L36.108 0.999999H39.048L32.048 8.28L32.068 7.02L39.248 15H36.248ZM27.788 15V0.999999H30.088V15H27.788ZM43.1455 15V0.699999H50.4455V1.54H44.1055V6.8H49.9055V7.62H44.1055V15H43.1455ZM55.9448 13.1C54.6248 11.6733 53.9648 9.92 53.9648 7.84C53.9648 5.76 54.6248 4.01333 55.9448 2.6C57.2782 1.17333 58.9582 0.459999 60.9848 0.459999C63.0115 0.459999 64.6915 1.17333 66.0248 2.6C67.3582 4.01333 68.0248 5.76 68.0248 7.84C68.0248 9.92 67.3582 11.6733 66.0248 13.1C64.6915 14.5267 63.0115 15.24 60.9848 15.24C58.9582 15.24 57.2782 14.5267 55.9448 13.1ZM56.6648 3.22C55.5582 4.46 55.0048 6 55.0048 7.84C55.0048 9.68 55.5582 11.2267 56.6648 12.48C57.7848 13.7333 59.2248 14.36 60.9848 14.36C62.7582 14.36 64.1982 13.7333 65.3048 12.48C66.4248 11.2267 66.9848 9.68 66.9848 7.84C66.9848 6 66.4248 4.46 65.3048 3.22C64.1982 1.96667 62.7582 1.34 60.9848 1.34C59.2115 1.34 57.7715 1.96667 56.6648 3.22ZM73.2611 15V0.76C74.5278 0.666666 75.5878 0.619999 76.4411 0.619999C77.8011 0.619999 78.9211 0.973333 79.8011 1.68C80.6811 2.37333 81.1211 3.36 81.1211 4.64C81.1211 5.50667 80.8678 6.31333 80.3611 7.06C79.8544 7.80667 79.2878 8.4 78.6611 8.84C79.1544 9.52 79.7611 10.3333 80.4811 11.28C81.2144 12.2133 81.6878 12.8 81.9011 13.04C82.7144 13.9067 83.6344 14.4 84.6611 14.52L84.6411 15.16C83.8278 15.1467 83.1678 15.0267 82.6611 14.8C82.1544 14.56 81.6678 14.2 81.2011 13.72C80.7478 13.24 79.6078 11.7467 77.7811 9.24C76.4744 9.24 75.2878 9.2 74.2211 9.12V15H73.2611ZM77.2011 8.44C77.7878 8.44 78.4144 8.05333 79.0811 7.28C79.7478 6.50667 80.0811 5.61333 80.0811 4.6C80.0811 3.57333 79.7344 2.8 79.0411 2.28C78.3611 1.74667 77.4544 1.48 76.3211 1.48C75.7211 1.48 75.0211 1.50667 74.2211 1.56V8.34C75.2878 8.40667 76.2811 8.44 77.2011 8.44ZM93.7898 15.24C91.7098 15.24 89.9232 14.5333 88.4298 13.12C86.9365 11.6933 86.1898 9.94 86.1898 7.86C86.1898 5.76667 86.8432 4.01333 88.1498 2.6C89.4565 1.17333 91.1298 0.459999 93.1698 0.459999C94.7698 0.459999 96.3898 0.726666 98.0298 1.26L97.7698 2.06C96.1698 1.58 94.6365 1.34 93.1698 1.34C91.4232 1.34 89.9965 1.96667 88.8898 3.22C87.7832 4.47333 87.2298 6.00667 87.2298 7.82C87.2298 9.63333 87.8698 11.18 89.1498 12.46C90.4432 13.7267 91.9898 14.36 93.7898 14.36C95.3632 14.36 96.7232 14.12 97.8698 13.64L98.1698 14.32C97.6632 14.6133 96.9965 14.84 96.1698 15C95.3565 15.16 94.5632 15.24 93.7898 15.24ZM102.732 15V0.699999H109.372V1.54H103.692V6.8H108.832V7.62H103.692V14.16H109.592V15H102.732Z" fill="#6519E1"/>
</svg>
