<svg width="10" height="20" viewBox="0 0 10 20" fill="none" xmlns="http://www.w3.org/2000/svg">
<path d="M8.75065 5.62496V14.4416C8.75065 16.1833 7.47565 17.7333 5.74232 17.9C3.75065 18.0916 2.08398 16.5333 2.08398 14.5833V4.28329C2.08398 3.19163 2.86732 2.19996 3.95065 2.09163C5.20065 1.96663 6.25065 2.94163 6.25065 4.16663V12.9166C6.25065 13.375 5.87565 13.75 5.41732 13.75C4.95898 13.75 4.58398 13.375 4.58398 12.9166V5.62496C4.58398 5.28329 4.30065 4.99996 3.95898 4.99996C3.61732 4.99996 3.33398 5.28329 3.33398 5.62496V12.8C3.33398 13.8916 4.11732 14.8833 5.20065 14.9916C6.45065 15.1166 7.50065 14.1416 7.50065 12.9166V4.30829C7.50065 2.56663 6.22565 1.01663 4.49232 0.849959C2.50898 0.658292 0.833984 2.21663 0.833984 4.16663V14.3916C0.833984 16.7833 2.58398 18.925 4.96732 19.15C7.70898 19.4 10.0007 17.2666 10.0007 14.5833V5.62496C10.0007 5.28329 9.71732 4.99996 9.37565 4.99996C9.03399 4.99996 8.75065 5.28329 8.75065 5.62496Z" fill="#70757A"/>
</svg>
