<svg width="24" height="24" viewBox="0 0 24 24" fill="none" xmlns="http://www.w3.org/2000/svg">
<g clip-path="url(#clip0_4773_7407)">
<path d="M19 10.9993L7.83 10.9993L12.71 6.1193C13.1 5.7293 13.1 5.0893 12.71 4.6993C12.32 4.3093 11.69 4.3093 11.3 4.6993L4.71 11.2893C4.32 11.6793 4.32 12.3093 4.71 12.6993L11.29 19.2993C11.68 19.6893 12.31 19.6893 12.7 19.2993C13.09 18.9093 13.09 18.2793 12.7 17.8893L7.83 12.9993L19 12.9993C19.55 12.9993 20 12.5493 20 11.9993C20 11.4493 19.55 10.9993 19 10.9993Z" fill="#70757A"/>
</g>
<defs>
<clipPath id="clip0_4773_7407">
<rect width="24" height="24" fill="white" transform="matrix(-1 0 0 -1 24 24)"/>
</clipPath>
</defs>
</svg>
