<svg width="14" height="14" viewBox="0 0 14 14" fill="none" xmlns="http://www.w3.org/2000/svg">
<path d="M7.63281 3.39062V4.58203H7.04688V3.39062H7.63281ZM7.5625 9.76953V10.8125H6.98047V9.76953H7.5625ZM8.34375 8.53516C8.34375 8.37891 8.30859 8.23828 8.23828 8.11328C8.16797 7.98828 8.05208 7.8737 7.89062 7.76953C7.72917 7.66536 7.51302 7.56901 7.24219 7.48047C6.91406 7.37891 6.63021 7.25521 6.39062 7.10938C6.15365 6.96354 5.97005 6.78255 5.83984 6.56641C5.71224 6.35026 5.64844 6.08854 5.64844 5.78125C5.64844 5.46094 5.71745 5.1849 5.85547 4.95312C5.99349 4.72135 6.1888 4.54297 6.44141 4.41797C6.69401 4.29297 6.99089 4.23047 7.33203 4.23047C7.59766 4.23047 7.83464 4.27083 8.04297 4.35156C8.2513 4.42969 8.42708 4.54688 8.57031 4.70312C8.71615 4.85938 8.82682 5.05078 8.90234 5.27734C8.98047 5.50391 9.01953 5.76562 9.01953 6.0625H8.30078C8.30078 5.88802 8.27995 5.72786 8.23828 5.58203C8.19661 5.4362 8.13411 5.3099 8.05078 5.20312C7.96745 5.09375 7.86589 5.01042 7.74609 4.95312C7.6263 4.89323 7.48828 4.86328 7.33203 4.86328C7.11328 4.86328 6.93229 4.90104 6.78906 4.97656C6.64844 5.05208 6.54427 5.15885 6.47656 5.29688C6.40885 5.43229 6.375 5.58984 6.375 5.76953C6.375 5.9362 6.40885 6.08203 6.47656 6.20703C6.54427 6.33203 6.65885 6.44531 6.82031 6.54688C6.98438 6.64583 7.20964 6.74349 7.49609 6.83984C7.83203 6.94661 8.11719 7.07292 8.35156 7.21875C8.58594 7.36198 8.76432 7.53906 8.88672 7.75C9.00911 7.95833 9.07031 8.21745 9.07031 8.52734C9.07031 8.86328 8.99479 9.14714 8.84375 9.37891C8.69271 9.60807 8.48047 9.78255 8.20703 9.90234C7.93359 10.0221 7.61328 10.082 7.24609 10.082C7.02474 10.082 6.80599 10.0521 6.58984 9.99219C6.3737 9.93229 6.17839 9.83464 6.00391 9.69922C5.82943 9.5612 5.6901 9.38021 5.58594 9.15625C5.48177 8.92969 5.42969 8.65234 5.42969 8.32422H6.15625C6.15625 8.54557 6.1875 8.72917 6.25 8.875C6.3151 9.01823 6.40104 9.13281 6.50781 9.21875C6.61458 9.30208 6.73177 9.36198 6.85938 9.39844C6.98958 9.43229 7.11849 9.44922 7.24609 9.44922C7.48047 9.44922 7.67839 9.41276 7.83984 9.33984C8.00391 9.26432 8.12891 9.15755 8.21484 9.01953C8.30078 8.88151 8.34375 8.72005 8.34375 8.53516Z" fill="#6519E1"/>
<circle cx="7" cy="7" r="6.5" stroke="#6519E1"/>
</svg>
