<svg width="14" height="14" viewBox="0 0 14 14" fill="none" xmlns="http://www.w3.org/2000/svg">
<g clip-path="url(#clip0_515_3926)">
<path d="M6.76667 8.1665C6.76667 8.03897 6.87247 7.93317 7 7.93317C7.12753 7.93317 7.23333 8.03897 7.23333 8.1665C7.23333 8.29404 7.12753 8.39984 7 8.39984C6.87247 8.39984 6.76667 8.29404 6.76667 8.1665ZM7 7.23317C6.48587 7.23317 6.06667 7.65237 6.06667 8.1665C6.06667 8.68064 6.48587 9.09984 7 9.09984C7.51413 9.09984 7.93333 8.68064 7.93333 8.1665C7.93333 7.65237 7.51413 7.23317 7 7.23317ZM4.43333 8.1665C4.43333 8.03897 4.53913 7.93317 4.66667 7.93317C4.7942 7.93317 4.9 8.03897 4.9 8.1665C4.9 8.29404 4.7942 8.39984 4.66667 8.39984C4.53913 8.39984 4.43333 8.29404 4.43333 8.1665ZM4.66667 7.23317C4.15253 7.23317 3.73333 7.65237 3.73333 8.1665C3.73333 8.68064 4.15253 9.09984 4.66667 9.09984C5.1808 9.09984 5.6 8.68064 5.6 8.1665C5.6 7.65237 5.1808 7.23317 4.66667 7.23317ZM9.1 8.1665C9.1 8.03897 9.2058 7.93317 9.33333 7.93317C9.46087 7.93317 9.56667 8.03897 9.56667 8.1665C9.56667 8.29404 9.46087 8.39984 9.33333 8.39984C9.2058 8.39984 9.1 8.29404 9.1 8.1665ZM9.33333 7.23317C8.8192 7.23317 8.4 7.65237 8.4 8.1665C8.4 8.68064 8.8192 9.09984 9.33333 9.09984C9.84747 9.09984 10.2667 8.68064 10.2667 8.1665C10.2667 7.65237 9.84747 7.23317 9.33333 7.23317ZM6.76667 10.4998C6.76667 10.3723 6.87247 10.2665 7 10.2665C7.12753 10.2665 7.23333 10.3723 7.23333 10.4998C7.23333 10.6274 7.12753 10.7332 7 10.7332C6.87247 10.7332 6.76667 10.6274 6.76667 10.4998ZM7 9.5665C6.48587 9.5665 6.06667 9.9857 6.06667 10.4998C6.06667 11.014 6.48587 11.4332 7 11.4332C7.51413 11.4332 7.93333 11.014 7.93333 10.4998C7.93333 9.98571 7.51413 9.5665 7 9.5665ZM4.43333 10.4998C4.43333 10.3723 4.53913 10.2665 4.66667 10.2665C4.7942 10.2665 4.9 10.3723 4.9 10.4998C4.9 10.6274 4.7942 10.7332 4.66667 10.7332C4.53913 10.7332 4.43333 10.6274 4.43333 10.4998ZM4.66667 9.5665C4.15253 9.5665 3.73333 9.9857 3.73333 10.4998C3.73333 11.014 4.15253 11.4332 4.66667 11.4332C5.1808 11.4332 5.6 11.014 5.6 10.4998C5.6 9.9857 5.1808 9.5665 4.66667 9.5665ZM9.1 10.4998C9.1 10.3723 9.2058 10.2665 9.33333 10.2665C9.46087 10.2665 9.56667 10.3723 9.56667 10.4998C9.56667 10.6274 9.46087 10.7332 9.33333 10.7332C9.2058 10.7332 9.1 10.6274 9.1 10.4998ZM9.33333 9.5665C8.8192 9.5665 8.4 9.98571 8.4 10.4998C8.4 11.014 8.8192 11.4332 9.33333 11.4332C9.84747 11.4332 10.2667 11.014 10.2667 10.4998C10.2667 9.98571 9.84747 9.5665 9.33333 9.5665ZM2.104 6.0665L2.10583 3.50009V3.49984C2.10583 3.04803 2.46589 2.68317 2.91667 2.68317H3.5H3.85V2.33317V1.74984C3.85 1.6223 3.9558 1.5165 4.08333 1.5165C4.21087 1.5165 4.31667 1.6223 4.31667 1.74984V2.33317V2.68317H4.66667H9.33333H9.68333V2.33317V1.74984C9.68333 1.6223 9.78913 1.5165 9.91667 1.5165C10.0442 1.5165 10.15 1.6223 10.15 1.74984V2.33317V2.68317H10.5H11.0833C11.5317 2.68317 11.9 3.05147 11.9 3.49984V6.0665H2.104ZM2.1035 6.7665H11.9V11.6665C11.9 12.1149 11.5317 12.4832 11.0833 12.4832H2.91667C2.46364 12.4832 2.10006 12.1161 2.1 11.6666C2.1 11.6666 2.1 11.6665 2.1 11.6665L2.1035 6.7665Z" stroke="#0A0A0A" stroke-width="0.7"/>
</g>
<defs>
<clipPath id="clip0_515_3926">
<rect width="14" height="14" fill="white"/>
</clipPath>
</defs>
</svg>
