<svg width="15" height="15" viewBox="0 0 15 15" fill="none" xmlns="http://www.w3.org/2000/svg">
<path d="M12.426 1.82954L1.88568 5.22964C1.67568 5.29738 1.50674 5.45513 1.42479 5.66001C1.37136 5.79358 1.35794 5.93981 1.38615 6.08087L1.39573 6.12875L1.44854 6.23438L1.52941 6.35567C1.54587 6.38037 1.56474 6.40338 1.58573 6.42437C1.63445 6.4731 1.6937 6.51001 1.75892 6.53226L6.05724 7.99874C6.11481 8.01838 6.17828 8.00954 6.2283 7.97492L10.2667 5.1791C10.2675 5.17855 10.2686 5.17864 10.2693 5.17933L10.306 5.21602C10.3066 5.2167 10.3067 5.21778 10.3062 5.21857L7.51036 9.25698C7.47574 9.307 7.4669 9.37047 7.48654 9.42804L8.95302 13.7264C8.97527 13.7916 9.01218 13.8508 9.06091 13.8996C9.0819 13.9205 9.10491 13.9394 9.12961 13.9559L9.2509 14.0367L9.35653 14.0896L9.40441 14.0991C9.54547 14.1273 9.6917 14.1139 9.82527 14.0605C10.0302 13.9785 10.1879 13.8096 10.2556 13.5996L13.6557 3.05929L14.1416 1.63817C14.1944 1.48381 14.0502 1.3346 13.8941 1.38215L12.426 1.82954Z" stroke="#6519E1"/>
</svg>
