<svg width="14" height="14" viewBox="0 0 14 14" fill="none" xmlns="http://www.w3.org/2000/svg">
<g clip-path="url(#clip0_516_3950)">
<path d="M9.05338 7.47239L10.2958 8.71484C10.5467 8.96568 10.8967 9.08234 11.2583 9.03568M9.05338 7.47239L12.2442 7.00568V7.83401C12.2442 8.41734 11.8358 8.95984 11.2583 9.03568M9.05338 7.47239L9.05333 7.47234L9.05338 7.47239ZM11.2583 9.03568L11.2135 8.68855C11.2134 8.68858 11.2132 8.6886 11.213 8.68862M11.2583 9.03568L11.2128 8.68866C11.2129 8.68864 11.2129 8.68863 11.213 8.68862M11.213 8.68862C11.5888 8.63912 11.8942 8.2707 11.8942 7.83401V7.00568V7.00358C11.8988 6.22399 11.2747 5.59984 10.5 5.59984H7.58333H7.23333V5.24984V4.66651C7.23333 4.53898 7.12753 4.43318 7 4.43318C6.87247 4.43318 6.76667 4.53898 6.76667 4.66651V5.24984V5.59984H6.41667H3.5C2.72497 5.59984 2.1 6.22481 2.1 6.99984V7.85151C2.1 8.22259 2.31831 8.54864 2.62427 8.65095M11.213 8.68862C10.9556 8.72169 10.7148 8.63888 10.5433 8.46736L9.30082 7.22486L9.05391 6.97795L8.80643 7.22428L7.55809 8.46678L7.55751 8.46736C7.25086 8.77401 6.7433 8.77401 6.43665 8.46736L5.19415 7.22486L4.94725 6.97795L4.69976 7.22428L3.45143 8.46678L3.45141 8.46676L3.44845 8.46977C3.25036 8.67175 2.93148 8.75163 2.62427 8.65095M2.62427 8.65095C2.62447 8.65101 2.62466 8.65107 2.62485 8.65114L2.51418 8.98315L2.62348 8.65069C2.62374 8.65077 2.62401 8.65086 2.62427 8.65095ZM7.68846 1.90717L7.69243 1.91407L7.69672 1.92078C7.78476 2.05858 7.82834 2.23444 7.80701 2.43575C7.7746 2.73479 7.56067 3.00347 7.28345 3.09866C6.71325 3.29259 6.18333 2.8713 6.18333 2.33318C6.18333 2.17445 6.22475 2.02988 6.29473 1.90597L6.99125 0.697951L7.68846 1.90717ZM8.67665 9.57483L9.05802 9.197L9.39501 9.534C9.71049 9.84948 10.1119 10.1069 10.5772 10.206C11.0483 10.3108 11.4996 10.271 11.9 10.1282V11.6665C11.9 12.1149 11.5317 12.4832 11.0833 12.4832H2.91667C2.4683 12.4832 2.1 12.1149 2.1 11.6665V10.1287C2.347 10.2172 2.61352 10.2665 2.89333 10.2665C3.52211 10.2665 4.11816 10.0202 4.56293 9.57605L4.95022 9.19587L5.32918 9.57483C6.23049 10.4761 7.78164 10.4692 8.6761 9.57539C8.67628 9.5752 8.67647 9.57502 8.67665 9.57483Z" stroke="#6519E1" stroke-width="0.7"/>
</g>
<defs>
<clipPath id="clip0_516_3950">
<rect width="14" height="14" fill="white"/>
</clipPath>
</defs>
</svg>
