<svg width="32" height="32" viewBox="0 0 32 32" fill="none" xmlns="http://www.w3.org/2000/svg">
<circle cx="16" cy="16" r="16" fill="#F3F3F4"/>
<path d="M16.825 15.7V11.425C16.825 11.2083 16.7542 11.0292 16.6125 10.8875C16.4708 10.7458 16.2917 10.675 16.075 10.675C15.8583 10.675 15.6792 10.7458 15.5375 10.8875C15.3958 11.0292 15.325 11.2083 15.325 11.425V16C15.325 16.1 15.3417 16.1917 15.375 16.275C15.4083 16.3583 15.4583 16.4417 15.525 16.525L19.125 20.25C19.275 20.4167 19.4625 20.4958 19.6875 20.4875C19.9125 20.4792 20.1 20.4 20.25 20.25C20.4 20.1 20.475 19.9167 20.475 19.7C20.475 19.4833 20.4 19.3 20.25 19.15L16.825 15.7ZM16 26C14.6333 26 13.3417 25.7375 12.125 25.2125C10.9083 24.6875 9.84583 23.9708 8.9375 23.0625C8.02917 22.1542 7.3125 21.0917 6.7875 19.875C6.2625 18.6583 6 17.3667 6 16C6 14.6333 6.2625 13.3417 6.7875 12.125C7.3125 10.9083 8.02917 9.84583 8.9375 8.9375C9.84583 8.02917 10.9083 7.3125 12.125 6.7875C13.3417 6.2625 14.6333 6 16 6C17.3667 6 18.6583 6.2625 19.875 6.7875C21.0917 7.3125 22.1542 8.02917 23.0625 8.9375C23.9708 9.84583 24.6875 10.9083 25.2125 12.125C25.7375 13.3417 26 14.6333 26 16C26 17.3667 25.7375 18.6583 25.2125 19.875C24.6875 21.0917 23.9708 22.1542 23.0625 23.0625C22.1542 23.9708 21.0917 24.6875 19.875 25.2125C18.6583 25.7375 17.3667 26 16 26ZM16 24.5C18.3333 24.5 20.3333 23.6667 22 22C23.6667 20.3333 24.5 18.3333 24.5 16C24.5 13.6667 23.6667 11.6667 22 10C20.3333 8.33333 18.3333 7.5 16 7.5C13.6667 7.5 11.6667 8.33333 10 10C8.33333 11.6667 7.5 13.6667 7.5 16C7.5 18.3333 8.33333 20.3333 10 22C11.6667 23.6667 13.6667 24.5 16 24.5Z" fill="#7367F0"/>
</svg>
