<svg width="12" height="12" viewBox="0 0 12 12" fill="none" xmlns="http://www.w3.org/2000/svg">
<path d="M11.2516 0.757943C10.9266 0.432943 10.4016 0.432943 10.0766 0.757943L6.00156 4.82461L1.92656 0.749609C1.60156 0.424609 1.07656 0.424609 0.751562 0.749609C0.426563 1.07461 0.426563 1.59961 0.751562 1.92461L4.82656 5.99961L0.751562 10.0746C0.426563 10.3996 0.426563 10.9246 0.751562 11.2496C1.07656 11.5746 1.60156 11.5746 1.92656 11.2496L6.00156 7.17461L10.0766 11.2496C10.4016 11.5746 10.9266 11.5746 11.2516 11.2496C11.5766 10.9246 11.5766 10.3996 11.2516 10.0746L7.17656 5.99961L11.2516 1.92461C11.5682 1.60794 11.5682 1.07461 11.2516 0.757943Z" fill="#8361FE"/>
</svg>
