<svg width="32" height="32" viewBox="0 0 32 32" fill="none" xmlns="http://www.w3.org/2000/svg">
<g id="cloud_upload_black_24dp 1" clip-path="url(#clip0_9113_20403)">
<path id="Vector" d="M25.8 13.3815C24.8933 8.78146 20.8533 5.32812 16 5.32812C12.1467 5.32812 8.8 7.51479 7.13333 10.7148C3.12 11.1415 0 14.5415 0 18.6615C0 23.0748 3.58667 26.6615 8 26.6615H25.3333C29.0133 26.6615 32 23.6748 32 19.9948C32 16.4748 29.2667 13.6215 25.8 13.3815ZM18.6667 17.3281V22.6615H13.3333V17.3281H9.33333L15.5333 11.1281C15.8 10.8615 16.2133 10.8615 16.48 11.1281L22.6667 17.3281H18.6667Z" fill="#3D424F"/>
</g>
<defs>
<clipPath id="clip0_9113_20403">
<rect width="32" height="32" fill="white"/>
</clipPath>
</defs>
</svg>
