<svg width="14" height="14" viewBox="0 0 14 14" fill="none" xmlns="http://www.w3.org/2000/svg">
<g clip-path="url(#clip0_516_3947)">
<path d="M9.69571 9.08024L9.69591 9.08027L11.176 9.24925C11.1762 9.24927 11.1764 9.2493 11.1766 9.24933C11.5919 9.299 11.898 9.64679 11.894 10.0532H11.8939V10.0567V11.0659C11.8939 11.5364 11.5029 11.9107 11.0582 11.8832C6.25838 11.585 2.41483 7.74697 2.11661 2.94168C2.08905 2.4969 2.46341 2.10586 2.93395 2.10586H3.94311C4.35967 2.10586 4.70687 2.41537 4.75632 2.82906C4.75634 2.82926 4.75637 2.82946 4.75639 2.82965L4.92539 4.29826C4.9254 4.2983 4.9254 4.29834 4.92541 4.29837C4.95406 4.54835 4.86826 4.79241 4.69313 4.96754L3.61396 6.04671L3.43452 6.22614L3.54928 6.45247C4.42313 8.17589 5.83047 9.57693 7.54689 10.4503L7.77339 10.5656L7.9531 10.3858L9.02643 9.31251C9.20159 9.13735 9.4457 9.05155 9.69571 9.08024Z" fill="#0A0A0A" stroke="#0A0A0A" stroke-width="0.7"/>
</g>
<defs>
<clipPath id="clip0_516_3947">
<rect width="14" height="14" fill="white"/>
</clipPath>
</defs>
</svg>
