<svg width="9" height="9" viewBox="0 0 9 9" fill="none" xmlns="http://www.w3.org/2000/svg">
<path d="M8.62058 0.201667C8.36021 -0.0583332 7.9396 -0.0583332 7.67923 0.201667L4.41453 3.455L1.14982 0.195C0.889446 -0.065 0.46884 -0.065 0.208465 0.195C-0.0519102 0.455 -0.0519102 0.875 0.208465 1.135L3.47317 4.395L0.208465 7.655C-0.0519102 7.915 -0.0519102 8.335 0.208465 8.595C0.46884 8.855 0.889446 8.855 1.14982 8.595L4.41453 5.335L7.67923 8.595C7.9396 8.855 8.36021 8.855 8.62058 8.595C8.88096 8.335 8.88096 7.915 8.62058 7.655L5.35588 4.395L8.62058 1.135C8.87428 0.881667 8.87428 0.455 8.62058 0.201667Z" fill="#6519E1"/>
</svg>
