<svg width="14" height="14" viewBox="0 0 14 14" fill="none" xmlns="http://www.w3.org/2000/svg">
<path d="M11.5356 5.61901L11.5356 5.619H11.5325H9.17583C8.74934 5.619 8.57873 5.53944 8.50898 5.4777C8.45494 5.42988 8.375 5.31486 8.375 4.964V2.3215C8.375 1.97461 8.45446 1.85843 8.50971 1.80934C8.58003 1.74686 8.75112 1.6665 9.17583 1.6665H11.5325C11.9572 1.6665 12.1283 1.74686 12.1986 1.80934C12.2539 1.85843 12.3333 1.97461 12.3333 2.3215V4.96984C12.3333 5.31711 12.2537 5.43252 12.1994 5.48062C12.1301 5.5419 11.9601 5.62168 11.5356 5.61901Z" stroke="#6519E1"/>
<path d="M12.3333 9.17583V11.5325C12.3333 11.9462 12.2471 12.1072 12.1772 12.1772C12.1072 12.2471 11.9462 12.3333 11.5325 12.3333H9.17583C8.76216 12.3333 8.60111 12.2471 8.53116 12.1772C8.46121 12.1072 8.375 11.9462 8.375 11.5325V9.17583C8.375 8.76216 8.46121 8.60111 8.53116 8.53116C8.60111 8.46121 8.76216 8.375 9.17583 8.375H11.5325C11.9462 8.375 12.1072 8.46121 12.1772 8.53116C12.2471 8.60111 12.3333 8.76216 12.3333 9.17583Z" stroke="#6519E1"/>
<path d="M4.82715 5.61901L4.82715 5.619H4.824H2.46734C2.04084 5.619 1.87024 5.53944 1.80048 5.47771C1.74645 5.42988 1.6665 5.31486 1.6665 4.964V2.3215C1.6665 1.97461 1.74596 1.85843 1.80121 1.80934C1.87153 1.74686 2.04262 1.6665 2.46734 1.6665H4.824C5.24872 1.6665 5.41981 1.74686 5.49013 1.80934C5.54538 1.85843 5.62484 1.97461 5.62484 2.3215V4.96984C5.62484 5.31711 5.54522 5.43252 5.49086 5.48062C5.42163 5.5419 5.25159 5.62168 4.82715 5.61901Z" stroke="#6519E1"/>
<path d="M5.62484 9.17583V11.5325C5.62484 11.9462 5.53863 12.1072 5.46868 12.1772C5.39873 12.2471 5.23768 12.3333 4.824 12.3333H2.46734C2.05367 12.3333 1.89261 12.2471 1.82266 12.1772C1.75271 12.1072 1.6665 11.9462 1.6665 11.5325V9.17583C1.6665 8.76216 1.75271 8.60111 1.82266 8.53116C1.89261 8.46121 2.05367 8.375 2.46734 8.375H4.824C5.23768 8.375 5.39873 8.46121 5.46868 8.53116C5.53863 8.60111 5.62484 8.76216 5.62484 9.17583Z" stroke="#6519E1"/>
</svg>
