<svg width="14" height="14" viewBox="0 0 14 14" fill="none" xmlns="http://www.w3.org/2000/svg">
<path d="M11.5372 5.36902V5.369H11.5325H9.17583C8.76796 5.369 8.67466 5.2905 8.67466 5.29049C8.67466 5.29049 8.67466 5.29049 8.67466 5.29049C8.67448 5.29026 8.6741 5.28974 8.67353 5.28885C8.6718 5.28615 8.66591 5.27627 8.65867 5.25477C8.64307 5.20839 8.625 5.11919 8.625 4.964V2.3215C8.625 2.16831 8.64295 2.07985 8.65854 2.03359C8.66578 2.0121 8.67175 2.002 8.67371 1.99895C8.67522 1.99658 8.67564 1.9963 8.67574 1.99624C8.67575 1.99624 8.67575 1.99623 8.67576 1.99623C8.67661 1.99548 8.77063 1.9165 9.17583 1.9165H11.5325C11.9377 1.9165 12.0317 1.99548 12.0326 1.99623C12.0326 1.99627 12.033 1.99638 12.0346 1.99895C12.0366 2.002 12.0425 2.0121 12.0498 2.03359C12.0654 2.07985 12.0833 2.1683 12.0833 2.3215V4.96984C12.0833 5.12308 12.0654 5.21146 12.0498 5.25752C12.0426 5.2789 12.0367 5.2888 12.0349 5.29159C12.0346 5.29207 12.0344 5.29245 12.0342 5.29274C12.0337 5.29336 12.0336 5.29356 12.0336 5.29347C12.0338 5.29332 12.0339 5.29324 12.0337 5.29341C12.0335 5.29359 12.0323 5.29459 12.0298 5.2963C12.0272 5.29804 12.0227 5.30081 12.0157 5.30431C12.0016 5.31137 11.9769 5.32162 11.9375 5.33191C11.8556 5.35331 11.7282 5.37022 11.5372 5.36902Z" fill="#0A0A0A" stroke="#0A0A0A" stroke-width="1.5"/>
<path d="M12.0833 9.17583V11.5325C12.0833 11.9194 12.0014 11.9994 12.0004 12.0004L12.0004 12.0004L12.0004 12.0004C11.9994 12.0014 11.9194 12.0833 11.5325 12.0833H9.17583C8.78886 12.0833 8.70891 12.0014 8.70794 12.0004L8.70793 12.0004L8.70793 12.0004C8.70694 11.9994 8.625 11.9195 8.625 11.5325V9.17583C8.625 8.78884 8.70695 8.7089 8.70793 8.70794L8.70793 8.70793L8.70794 8.70793C8.7089 8.70695 8.78884 8.625 9.17583 8.625H11.5325C11.9195 8.625 11.9994 8.70694 12.0004 8.70793L12.0004 8.70793L12.0004 8.70794C12.0014 8.70891 12.0833 8.78886 12.0833 9.17583Z" fill="#0A0A0A" stroke="#0A0A0A" stroke-width="1.5"/>
<path d="M4.82872 5.36902V5.369H4.824H2.46734C2.05947 5.369 1.96617 5.2905 1.96617 5.29049C1.96609 5.29042 1.96606 5.2904 1.96607 5.29041C1.96608 5.29042 1.96616 5.2905 1.96625 5.29061C1.9664 5.29078 1.96599 5.29033 1.96504 5.28885C1.9633 5.28615 1.95741 5.27627 1.95018 5.25477C1.93457 5.20839 1.9165 5.11919 1.9165 4.964V2.3215C1.9165 2.16831 1.93445 2.07985 1.95004 2.03359C1.95729 2.0121 1.96326 2.002 1.96521 1.99895C1.96672 1.99658 1.96715 1.9963 1.96724 1.99624C1.96725 1.99624 1.96726 1.99623 1.96726 1.99623C1.96811 1.99548 2.06214 1.9165 2.46734 1.9165H4.824C5.22921 1.9165 5.32323 1.99548 5.32408 1.99623C5.32409 1.99623 5.32409 1.99624 5.3241 1.99624C5.32419 1.9963 5.32462 1.99658 5.32613 1.99895C5.32808 2.002 5.33405 2.0121 5.3413 2.03359C5.35689 2.07985 5.37484 2.16831 5.37484 2.3215V4.96984C5.37484 5.12308 5.35688 5.21146 5.34134 5.25752C5.33413 5.2789 5.32824 5.2888 5.32645 5.29159C5.32617 5.29203 5.32593 5.29238 5.32574 5.29265C5.32526 5.29334 5.32506 5.29356 5.32514 5.29347C5.32527 5.29332 5.32537 5.29324 5.32518 5.29341C5.32513 5.29345 5.32502 5.29354 5.32486 5.29368C5.32434 5.29411 5.32321 5.295 5.32126 5.2963C5.31867 5.29804 5.31417 5.30081 5.30719 5.30431C5.2931 5.31137 5.26844 5.32162 5.22904 5.33191C5.14708 5.35331 5.01968 5.37022 4.82872 5.36902Z" fill="#0A0A0A" stroke="#0A0A0A" stroke-width="1.5"/>
<path d="M5.37484 9.17583V11.5325C5.37484 11.9194 5.29291 11.9994 5.29191 12.0004L5.2919 12.0004L5.29189 12.0004C5.29092 12.0014 5.21095 12.0833 4.824 12.0833H2.46734C2.08038 12.0833 2.00041 12.0014 1.99945 12.0004L1.99944 12.0004L1.99943 12.0004C1.99844 11.9994 1.9165 11.9195 1.9165 11.5325V9.17583C1.9165 8.78885 1.99845 8.7089 1.99943 8.70794L1.99944 8.70793L1.99945 8.70793C2.0004 8.70694 2.08035 8.625 2.46734 8.625H4.824C5.21097 8.625 5.29093 8.70694 5.29189 8.70793L5.2919 8.70793L5.29191 8.70794C5.2929 8.70891 5.37484 8.78886 5.37484 9.17583Z" fill="#0A0A0A" stroke="#0A0A0A" stroke-width="1.5"/>
</svg>
