<svg width="14" height="14" viewBox="0 0 14 14" fill="none" xmlns="http://www.w3.org/2000/svg">
<g clip-path="url(#clip0_514_3917)">
<path d="M10.5777 4.6665C10.5777 5.36088 10.0235 5.9165 9.3335 5.9165C8.6413 5.9165 8.0835 5.3587 8.0835 4.6665C8.0835 3.97431 8.6413 3.4165 9.3335 3.4165C10.0235 3.4165 10.5777 3.97213 10.5777 4.6665ZM5.911 4.6665C5.911 5.36087 5.35685 5.9165 4.66683 5.9165C3.97464 5.9165 3.41683 5.3587 3.41683 4.6665C3.41683 3.97431 3.97464 3.4165 4.66683 3.4165C5.35685 3.4165 5.911 3.97213 5.911 4.6665ZM1.0835 9.62484C1.0835 9.46878 1.15771 9.29518 1.36936 9.09998C1.58442 8.90164 1.90626 8.71659 2.30124 8.55853C3.09201 8.24209 4.04969 8.08317 4.66683 8.08317C5.28396 8.08317 6.24165 8.24209 7.03242 8.55853C7.4274 8.71659 7.74923 8.90164 7.9643 9.09998C8.17595 9.29518 8.25016 9.46878 8.25016 9.62484V10.4998C8.25016 10.5445 8.21152 10.5832 8.16683 10.5832H1.16683C1.12214 10.5832 1.0835 10.5445 1.0835 10.4998V9.62484ZM9.96404 8.12566C10.5078 8.19214 11.1445 8.33659 11.6991 8.55853C12.0941 8.71659 12.4159 8.90164 12.631 9.09998C12.8426 9.29518 12.9168 9.46878 12.9168 9.62484V10.4998C12.9168 10.5445 12.8782 10.5832 12.8335 10.5832H10.4151C10.4163 10.5556 10.4168 10.5278 10.4168 10.4998V9.62484C10.4168 9.04291 10.2433 8.54578 9.96404 8.12566Z" fill="#0A0A0A" stroke="#0A0A0A"/>
</g>
<defs>
<clipPath id="clip0_514_3917">
<rect width="14" height="14" fill="white"/>
</clipPath>
</defs>
</svg>
