<svg width="16" height="16" viewBox="0 0 16 16" fill="none" xmlns="http://www.w3.org/2000/svg">
<path d="M1.85669 6.01598C2.14766 4.50492 2.99142 3.15658 4.22319 2.23424C5.45497 1.31191 6.9863 0.881826 8.51817 1.02797C10.05 1.17412 11.4724 1.88601 12.5076 3.02462C13.2769 3.87084 13.7913 4.9076 14.0047 6.01598M14.0047 6.01598L11.4654 4.97645M14.0047 6.01598L15 3.65097M1.85666 8.06958C2.14764 9.58063 2.9914 10.929 4.22317 11.8513C5.45494 12.7736 6.98628 13.2037 8.51814 13.0576C10.05 12.9114 11.4724 12.1995 12.5075 11.0609C13.2769 10.2147 13.7912 9.17795 14.0047 8.06958M1.85666 8.06958L1 11.0609M1.85666 8.06958L4.83795 9.1091" stroke="#6519E1" stroke-linecap="round"/>
<path d="M8.63281 3.39062V4.58203H8.04688V3.39062H8.63281ZM8.5625 9.76953V10.8125H7.98047V9.76953H8.5625ZM9.34375 8.53516C9.34375 8.37891 9.30859 8.23828 9.23828 8.11328C9.16797 7.98828 9.05208 7.8737 8.89062 7.76953C8.72917 7.66536 8.51302 7.56901 8.24219 7.48047C7.91406 7.37891 7.63021 7.25521 7.39062 7.10938C7.15365 6.96354 6.97005 6.78255 6.83984 6.56641C6.71224 6.35026 6.64844 6.08854 6.64844 5.78125C6.64844 5.46094 6.71745 5.1849 6.85547 4.95312C6.99349 4.72135 7.1888 4.54297 7.44141 4.41797C7.69401 4.29297 7.99089 4.23047 8.33203 4.23047C8.59766 4.23047 8.83464 4.27083 9.04297 4.35156C9.2513 4.42969 9.42708 4.54688 9.57031 4.70312C9.71615 4.85938 9.82682 5.05078 9.90234 5.27734C9.98047 5.50391 10.0195 5.76562 10.0195 6.0625H9.30078C9.30078 5.88802 9.27995 5.72786 9.23828 5.58203C9.19661 5.4362 9.13411 5.3099 9.05078 5.20312C8.96745 5.09375 8.86589 5.01042 8.74609 4.95312C8.6263 4.89323 8.48828 4.86328 8.33203 4.86328C8.11328 4.86328 7.93229 4.90104 7.78906 4.97656C7.64844 5.05208 7.54427 5.15885 7.47656 5.29688C7.40885 5.43229 7.375 5.58984 7.375 5.76953C7.375 5.9362 7.40885 6.08203 7.47656 6.20703C7.54427 6.33203 7.65885 6.44531 7.82031 6.54688C7.98438 6.64583 8.20964 6.74349 8.49609 6.83984C8.83203 6.94661 9.11719 7.07292 9.35156 7.21875C9.58594 7.36198 9.76432 7.53906 9.88672 7.75C10.0091 7.95833 10.0703 8.21745 10.0703 8.52734C10.0703 8.86328 9.99479 9.14714 9.84375 9.37891C9.69271 9.60807 9.48047 9.78255 9.20703 9.90234C8.93359 10.0221 8.61328 10.082 8.24609 10.082C8.02474 10.082 7.80599 10.0521 7.58984 9.99219C7.3737 9.93229 7.17839 9.83464 7.00391 9.69922C6.82943 9.5612 6.6901 9.38021 6.58594 9.15625C6.48177 8.92969 6.42969 8.65234 6.42969 8.32422H7.15625C7.15625 8.54557 7.1875 8.72917 7.25 8.875C7.3151 9.01823 7.40104 9.13281 7.50781 9.21875C7.61458 9.30208 7.73177 9.36198 7.85938 9.39844C7.98958 9.43229 8.11849 9.44922 8.24609 9.44922C8.48047 9.44922 8.67839 9.41276 8.83984 9.33984C9.00391 9.26432 9.12891 9.15755 9.21484 9.01953C9.30078 8.88151 9.34375 8.72005 9.34375 8.53516Z" fill="#6519E1"/>
</svg>
