<svg width="16" height="14" viewBox="0 0 16 14" fill="none" xmlns="http://www.w3.org/2000/svg">
<path d="M1.85669 6.01598C2.14766 4.50492 2.99142 3.15658 4.22319 2.23424C5.45497 1.31191 6.9863 0.881826 8.51817 1.02797C10.05 1.17412 11.4724 1.88601 12.5076 3.02462C13.2769 3.87084 13.7913 4.9076 14.0047 6.01598M14.0047 6.01598L11.4654 4.97645M14.0047 6.01598L15 3.65097M1.85666 8.06958C2.14764 9.58063 2.9914 10.929 4.22317 11.8513C5.45494 12.7736 6.98628 13.2037 8.51814 13.0576C10.05 12.9114 11.4724 12.1995 12.5075 11.0609C13.2769 10.2147 13.7912 9.17795 14.0047 8.06958M1.85666 8.06958L1 11.0609M1.85666 8.06958L4.83795 9.1091" stroke="#0A0A0A" stroke-linecap="round"/>
</svg>
