<svg width="20" height="20" viewBox="0 0 20 20" fill="none" xmlns="http://www.w3.org/2000/svg">
<g clip-path="url(#clip0_861_3123)">
<path d="M8.33519 10.833L8.72983 10.526L8.72974 10.5259L8.72934 10.5254L8.72779 10.5234L8.72161 10.5154L8.69729 10.4842L8.60327 10.3633L8.25303 9.913L7.059 8.37807C6.10296 7.14918 4.90534 5.60998 3.93873 4.36839C3.76925 4.14818 3.92437 3.83301 4.20186 3.83301H15.7935C16.0841 3.83301 16.2316 4.15194 16.065 4.36841C15.0984 5.61 13.9007 7.14919 12.9447 8.37807L11.7507 9.913L11.4005 10.3633L11.3064 10.4842L11.2821 10.5154L11.2759 10.5234L11.2744 10.5254L11.274 10.5259L11.2739 10.526L11.6685 10.833L11.2738 10.526L11.1685 10.6615V10.833V14.9997C11.1685 15.6402 10.6424 16.1663 10.0019 16.1663C9.36133 16.1663 8.83519 15.6402 8.83519 14.9997V10.833V10.6615L8.72987 10.526L8.33519 10.833Z" stroke="#70757A"/>
</g>
<defs>
<clipPath id="clip0_861_3123">
<rect width="20" height="20" fill="white"/>
</clipPath>
</defs>
</svg>
