<svg width="23" height="20" viewBox="0 0 23 20" fill="skyblue" xmlns="http://www.w3.org/2000/svg">
<path d="M12.4736 1.41352L12.4736 1.41354L12.4766 1.41049C12.859 1.02144 13.4813 1.01663 13.878 1.40504C14.1159 1.64398 14.2171 1.98216 14.15 2.32034C14.1499 2.32086 14.1498 2.32139 14.1497 2.32191L13.2004 6.89842L13.0756 7.49997H13.69H19.34C21.1297 7.49997 22.3401 9.33211 21.6401 10.9838C21.64 10.9841 21.6398 10.9844 21.6397 10.9847L18.3821 18.5892C18.3818 18.5898 18.3816 18.5904 18.3813 18.591C18.1391 19.1416 17.5972 19.5 17 19.5H8C7.17614 19.5 6.5 18.8238 6.5 18V8.00997C6.5 7.61087 6.65852 7.22856 6.93355 6.95352L12.4736 1.41352ZM3.5 18C3.5 18.8238 2.82386 19.5 2 19.5C1.17614 19.5 0.5 18.8238 0.5 18V9.99997C0.5 9.17611 1.17614 8.49997 2 8.49997C2.82386 8.49997 3.5 9.17611 3.5 9.99997V18Z" stroke="none"/>
</svg>
