<svg width="8" height="10" viewBox="0 0 8 10" fill="none" xmlns="http://www.w3.org/2000/svg">
<path d="M0.5 4.1C0.5 1.90144 2.16059 0.5 4 0.5C5.83941 0.5 7.5 1.90144 7.5 4.1C7.5 4.76571 7.24289 5.53592 6.66391 6.42216C6.08609 7.30661 5.20576 8.27855 4.00683 9.33775C4.00628 9.33814 4.00509 9.33875 4.0025 9.33875C3.99929 9.33875 3.99822 9.33782 3.99787 9.33751L3.99784 9.33748L3.67 9.715L4.00061 9.3399C2.79781 8.27977 1.9154 7.30704 1.33659 6.42196C0.757077 5.53583 0.5 4.76567 0.5 4.1ZM2.5 4C2.5 4.82614 3.17386 5.5 4 5.5C4.82614 5.5 5.5 4.82614 5.5 4C5.5 3.17386 4.82614 2.5 4 2.5C3.17386 2.5 2.5 3.17386 2.5 4Z" stroke="#7367F0"/>
</svg>
