<svg width="16" height="15" viewBox="0 0 16 15" fill="none" xmlns="http://www.w3.org/2000/svg">
<path d="M8.80792 13.9411L8.90547 14.4315L8.90547 14.4315L8.80792 13.9411ZM1.49732 10.0335L1.95926 9.8422L1.95926 9.8422L1.49732 10.0335ZM3.90361 2.10108L4.18139 2.51681L4.18139 2.51681L3.90361 2.10108ZM15.3536 3.6869C15.5488 3.49163 15.5488 3.17505 15.3536 2.97979C15.1583 2.78453 14.8417 2.78453 14.6464 2.97979L15.3536 3.6869ZM7.53333 10.8L7.17978 11.1536L7.53333 11.5071L7.88689 11.1536L7.53333 10.8ZM5.08689 7.64646C4.89163 7.45119 4.57504 7.45119 4.37978 7.64646C4.18452 7.84172 4.18452 8.1583 4.37978 8.35356L5.08689 7.64646ZM13.5667 7.53334C13.5667 8.92919 13.0827 10.2818 12.1972 11.3608L12.9702 11.9952C14.0025 10.7374 14.5667 9.16054 14.5667 7.53334H13.5667ZM12.1972 11.3608C11.3117 12.4398 10.0794 13.1784 8.71038 13.4507L8.90547 14.4315C10.5014 14.1141 11.9379 13.2531 12.9702 11.9952L12.1972 11.3608ZM8.71038 13.4507C7.34136 13.7231 5.92027 13.5123 4.68924 12.8543L4.21784 13.7362C5.65291 14.5032 7.30954 14.749 8.90547 14.4315L8.71038 13.4507ZM4.68924 12.8543C3.45822 12.1963 2.49343 11.1318 1.95926 9.8422L1.03538 10.2249C1.65808 11.7282 2.78278 12.9691 4.21784 13.7362L4.68924 12.8543ZM1.95926 9.8422C1.4251 8.55261 1.3546 7.1177 1.75979 5.78196L0.802854 5.49167C0.330504 7.04881 0.41268 8.72155 1.03538 10.2249L1.95926 9.8422ZM1.75979 5.78196C2.16499 4.44622 3.02079 3.2923 4.18139 2.51681L3.62582 1.68534C2.27286 2.58936 1.27521 3.93454 0.802854 5.49167L1.75979 5.78196ZM4.18139 2.51681C5.34199 1.74132 6.73558 1.39225 8.1247 1.52906L8.22272 0.533878C6.60336 0.374384 4.97879 0.781318 3.62582 1.68534L4.18139 2.51681ZM8.1247 1.52906C9.51383 1.66588 10.8125 2.28012 11.7995 3.26713L12.5067 2.56002C11.356 1.40942 9.84208 0.693371 8.22272 0.533878L8.1247 1.52906ZM14.6464 2.97979L7.17978 10.4465L7.88689 11.1536L15.3536 3.6869L14.6464 2.97979ZM7.88689 10.4465L5.08689 7.64646L4.37978 8.35356L7.17978 11.1536L7.88689 10.4465Z" fill="#6519E1"/>
</svg>
