<svg width="21" height="20" viewBox="0 0 21 20" fill="none" xmlns="http://www.w3.org/2000/svg">
<g clip-path="url(#clip0_8040_8716)">
<rect x="0.5" width="20" height="20" rx="2" fill="#DDDFEB"/>
<path d="M5.4987 8.33203C4.58203 8.33203 3.83203 9.08203 3.83203 9.9987C3.83203 10.9154 4.58203 11.6654 5.4987 11.6654C6.41536 11.6654 7.16536 10.9154 7.16536 9.9987C7.16536 9.08203 6.41536 8.33203 5.4987 8.33203ZM15.4987 8.33203C14.582 8.33203 13.832 9.08203 13.832 9.9987C13.832 10.9154 14.582 11.6654 15.4987 11.6654C16.4154 11.6654 17.1654 10.9154 17.1654 9.9987C17.1654 9.08203 16.4154 8.33203 15.4987 8.33203ZM10.4987 8.33203C9.58203 8.33203 8.83203 9.08203 8.83203 9.9987C8.83203 10.9154 9.58203 11.6654 10.4987 11.6654C11.4154 11.6654 12.1654 10.9154 12.1654 9.9987C12.1654 9.08203 11.4154 8.33203 10.4987 8.33203Z" fill="#70757A"/>
</g>
<defs>
<clipPath id="clip0_8040_8716">
<rect x="0.5" width="20" height="20" rx="2" fill="white"/>
</clipPath>
</defs>
</svg>
