<svg width="14" height="14" viewBox="0 0 14 14" fill="none" xmlns="http://www.w3.org/2000/svg">
<path d="M9.83398 3.66634C9.83398 5.23186 8.56618 6.49967 7.00065 6.49967C5.43513 6.49967 4.16732 5.23187 4.16732 3.66634C4.16732 2.10082 5.43513 0.833008 7.00065 0.833008C8.56618 0.833008 9.83398 2.10082 9.83398 3.66634ZM0.833984 11.9997C0.833984 11.6292 1.01563 11.2676 1.40187 10.9111C1.79152 10.5515 2.35512 10.2318 3.01888 9.9659C4.34719 9.43378 5.95065 9.16634 7.00065 9.16634C8.05065 9.16634 9.65411 9.43378 10.9824 9.9659C11.6462 10.2318 12.2098 10.5515 12.5994 10.9111C12.9857 11.2676 13.1673 11.6292 13.1673 11.9997V12.833C13.1673 13.0152 13.0162 13.1663 12.834 13.1663H1.16732C0.985127 13.1663 0.833984 13.0152 0.833984 12.833V11.9997Z" stroke="#70757A"/>
</svg>
