<svg width="15" height="15" viewBox="0 0 15 15" fill="none" xmlns="http://www.w3.org/2000/svg">
<path d="M13.1479 5.38174L12.7943 5.02819L12.4408 5.38174L10.2349 7.58762C9.46336 8.35914 9.33535 9.52688 9.84819 10.4318C9.87466 10.4796 9.88137 10.524 9.8786 10.5554C9.87605 10.5844 9.86611 10.6035 9.85106 10.6185L9.79371 10.6759C9.74632 10.7232 9.66585 10.7232 9.61846 10.6759L7.40375 8.46115L7.04919 8.10659L6.69564 8.46216L3.61724 11.5582C3.61713 11.5583 3.61702 11.5584 3.61691 11.5585C3.56949 11.6056 3.48927 11.6055 3.44199 11.5582C3.39461 11.5108 3.39461 11.4303 3.44199 11.383L3.443 11.382L6.52241 8.28489L6.87395 7.93134L6.5214 7.5788L4.32434 5.38174C4.27696 5.33436 4.27696 5.25388 4.32434 5.20649L4.3817 5.14914C4.39674 5.13409 4.41582 5.12415 4.44477 5.1216C4.47625 5.11883 4.52062 5.12554 4.56838 5.15201C5.47332 5.66485 6.64106 5.53684 7.41258 4.76532L9.61846 2.55944L9.97201 2.20588L9.61846 1.85233L9.17728 1.41115C9.1299 1.36377 9.1299 1.28329 9.17728 1.23591C9.22467 1.18852 9.30515 1.18852 9.35253 1.23591L13.7643 5.64767C13.8117 5.69506 13.8117 5.77553 13.7643 5.82292C13.7169 5.8703 13.6364 5.8703 13.589 5.82292L13.1479 5.38174Z" stroke="#6519E1"/>
</svg>
