<svg width="10" height="10" viewBox="0 0 10 10" fill="none" xmlns="http://www.w3.org/2000/svg">
<path d="M9.00065 5.66683H5.66732V9.00016C5.66732 9.36683 5.36732 9.66683 5.00065 9.66683C4.63398 9.66683 4.33398 9.36683 4.33398 9.00016V5.66683H1.00065C0.633984 5.66683 0.333984 5.36683 0.333984 5.00016C0.333984 4.6335 0.633984 4.3335 1.00065 4.3335H4.33398V1.00016C4.33398 0.633496 4.63398 0.333496 5.00065 0.333496C5.36732 0.333496 5.66732 0.633496 5.66732 1.00016V4.3335H9.00065C9.36732 4.3335 9.66732 4.6335 9.66732 5.00016C9.66732 5.36683 9.36732 5.66683 9.00065 5.66683Z" fill="#6519E1"/>
</svg>
