<svg width="16" height="18" viewBox="0 0 16 18" fill="none" xmlns="http://www.w3.org/2000/svg">
<mask id="path-1-inside-1_1614_4510" fill="white">
<path d="M13.8333 2.49967H10.35C10 1.53301 9.08333 0.833008 8 0.833008C6.91667 0.833008 6 1.53301 5.65 2.49967H2.16667C1.25 2.49967 0.5 3.24967 0.5 4.16634V15.833C0.5 16.7497 1.25 17.4997 2.16667 17.4997H13.8333C14.75 17.4997 15.5 16.7497 15.5 15.833V4.16634C15.5 3.24967 14.75 2.49967 13.8333 2.49967ZM8 3.33301C8 2.87467 8.45833 3.33301 8 3.33301C8 3.79134 8.45833 3.33301 8 3.33301C8 3.79134 7.54167 3.33301 8 3.33301C8 2.87467 7.54167 3.33301 8 3.33301Z"/>
</mask>
<path d="M9.66667 12.1663C9.94281 12.1663 10.1667 11.9425 10.1667 11.6663C10.1667 11.3902 9.94281 11.1663 9.66667 11.1663V12.1663ZM12.1667 9.66634C12.4428 9.66634 12.6667 9.44248 12.6667 9.16634C12.6667 8.8902 12.4428 8.66634 12.1667 8.66634V9.66634ZM12.1667 7.16634C12.4428 7.16634 12.6667 6.94248 12.6667 6.66634C12.6667 6.3902 12.4428 6.16634 12.1667 6.16634V7.16634ZM3 6.16634C2.72386 6.16634 2.5 6.3902 2.5 6.66634C2.5 6.94248 2.72386 7.16634 3 7.16634V6.16634ZM3 8.66634C2.72386 8.66634 2.5 8.8902 2.5 9.16634C2.5 9.44248 2.72386 9.66634 3 9.66634V8.66634ZM3 11.1663C2.72386 11.1663 2.5 11.3902 2.5 11.6663C2.5 11.9425 2.72386 12.1663 3 12.1663V11.1663ZM3 7.16634H12.1667V6.16634H3V7.16634ZM3 9.66634H12.1667V8.66634H3V9.66634ZM3 12.1663H9.66667V11.1663H3V12.1663ZM10.35 2.49967L9.40973 2.84012L9.64854 3.49967H10.35V2.49967ZM5.65 2.49967V3.49967H6.35146L6.59027 2.84012L5.65 2.49967ZM13.8333 1.49967H10.35V3.49967H13.8333V1.49967ZM11.2903 2.15923C10.8055 0.820337 9.52894 -0.166992 8 -0.166992V1.83301C8.63772 1.83301 9.19451 2.24568 9.40973 2.84012L11.2903 2.15923ZM8 -0.166992C6.47106 -0.166992 5.19451 0.820337 4.70973 2.15923L6.59027 2.84012C6.80549 2.24568 7.36228 1.83301 8 1.83301V-0.166992ZM5.65 1.49967H2.16667V3.49967H5.65V1.49967ZM2.16667 1.49967C0.697715 1.49967 -0.5 2.69739 -0.5 4.16634H1.5C1.5 3.80196 1.80228 3.49967 2.16667 3.49967V1.49967ZM-0.5 4.16634V15.833H1.5V4.16634H-0.5ZM-0.5 15.833C-0.5 17.302 0.697715 18.4997 2.16667 18.4997V16.4997C1.80229 16.4997 1.5 16.1974 1.5 15.833H-0.5ZM2.16667 18.4997H13.8333V16.4997H2.16667V18.4997ZM13.8333 18.4997C15.3023 18.4997 16.5 17.302 16.5 15.833H14.5C14.5 16.1974 14.1977 16.4997 13.8333 16.4997V18.4997ZM16.5 15.833V4.16634H14.5V15.833H16.5ZM16.5 4.16634C16.5 2.69739 15.3023 1.49967 13.8333 1.49967V3.49967C14.1977 3.49967 14.5 3.80196 14.5 4.16634H16.5ZM8 4.33301C8.13184 4.33301 8.30192 4.3177 8.47978 4.25163C8.66168 4.18407 8.89315 4.04588 9.05085 3.78305C9.39816 3.20421 9.08982 2.66487 8.87898 2.45403C8.66814 2.24318 8.1288 1.93485 7.54996 2.28216C7.28712 2.43986 7.14894 2.67133 7.08137 2.85323C7.01531 3.03109 7 3.20117 7 3.33301H9C9 3.35026 8.99901 3.43441 8.95622 3.5496C8.91193 3.66884 8.80597 3.86093 8.57895 3.99714C8.07172 4.30148 7.61832 4.02179 7.46477 3.86824C7.31122 3.71469 7.03153 3.26129 7.33587 2.75406C7.47208 2.52703 7.66417 2.42107 7.78341 2.37678C7.8986 2.334 7.98275 2.33301 8 2.33301V4.33301ZM7 3.33301C7 3.46484 7.01531 3.63493 7.08137 3.81279C7.14894 3.99469 7.28712 4.22616 7.54996 4.38386C8.1288 4.73117 8.66814 4.42283 8.87898 4.21199C9.08982 4.00115 9.39816 3.46181 9.05085 2.88297C8.89315 2.62013 8.66168 2.48195 8.47978 2.41438C8.30192 2.34832 8.13184 2.33301 8 2.33301V4.33301C7.98275 4.33301 7.8986 4.33202 7.78341 4.28923C7.66417 4.24494 7.47208 4.13898 7.33587 3.91196C7.03153 3.40473 7.31122 2.95133 7.46477 2.79778C7.61832 2.64423 8.07172 2.36454 8.57895 2.66887C8.80597 2.80509 8.91193 2.99717 8.95622 3.11641C8.99901 3.23161 9 3.31576 9 3.33301H7ZM8 2.33301C7.86816 2.33301 7.69808 2.34832 7.52022 2.41438C7.33832 2.48195 7.10685 2.62013 6.94915 2.88297C6.60184 3.46181 6.91018 4.00115 7.12102 4.21199C7.33186 4.42283 7.8712 4.73117 8.45004 4.38386C8.71288 4.22616 8.85106 3.99469 8.91863 3.81279C8.98469 3.63493 9 3.46484 9 3.33301H7C7 3.31576 7.00099 3.23161 7.04378 3.11641C7.08807 2.99717 7.19403 2.80509 7.42105 2.66887C7.92828 2.36454 8.38168 2.64423 8.53523 2.79778C8.68878 2.95133 8.96847 3.40473 8.66413 3.91196C8.52792 4.13898 8.33583 4.24494 8.21659 4.28923C8.1014 4.33202 8.01725 4.33301 8 4.33301V2.33301ZM9 3.33301C9 3.20117 8.98469 3.03109 8.91863 2.85323C8.85106 2.67133 8.71288 2.43986 8.45004 2.28216C7.8712 1.93485 7.33186 2.24318 7.12102 2.45403C6.91018 2.66487 6.60184 3.20421 6.94915 3.78305C7.10685 4.04588 7.33832 4.18407 7.52022 4.25163C7.69808 4.3177 7.86816 4.33301 8 4.33301V2.33301C8.01725 2.33301 8.1014 2.334 8.21659 2.37678C8.33583 2.42107 8.52792 2.52703 8.66413 2.75406C8.96847 3.26129 8.68878 3.71469 8.53523 3.86824C8.38168 4.02179 7.92828 4.30148 7.42105 3.99714C7.19403 3.86093 7.08807 3.66884 7.04378 3.5496C7.00099 3.43441 7 3.35026 7 3.33301H9Z" fill="#6519E1" mask="url(#path-1-inside-1_1614_4510)"/>
</svg>
