<svg width="14" height="14" viewBox="0 0 14 14" fill="none" xmlns="http://www.w3.org/2000/svg">
<g clip-path="url(#clip0_513_3908)">
<mask id="path-1-inside-1_513_3908" fill="white">
<path d="M11.0833 1.75016H8.645C8.4 1.0735 7.75833 0.583496 7 0.583496C6.24167 0.583496 5.6 1.0735 5.355 1.75016H2.91667C2.275 1.75016 1.75 2.27516 1.75 2.91683V11.0835C1.75 11.7252 2.275 12.2502 2.91667 12.2502H11.0833C11.725 12.2502 12.25 11.7252 12.25 11.0835V2.91683C12.25 2.27516 11.725 1.75016 11.0833 1.75016ZM7 2.3335C7 2.01266 7.32083 2.3335 7 2.3335C7.32083 2.3335 7 2.65433 7 2.3335C7 2.65433 6.67917 2.3335 7 2.3335C6.67917 2.3335 7 2.01266 7 2.3335Z"/>
</mask>
<path d="M8.16667 8.66683C8.44281 8.66683 8.66667 8.44297 8.66667 8.16683C8.66667 7.89069 8.44281 7.66683 8.16667 7.66683V8.66683ZM9.91667 6.91683C10.1928 6.91683 10.4167 6.69297 10.4167 6.41683C10.4167 6.14069 10.1928 5.91683 9.91667 5.91683V6.91683ZM9.91667 5.16683C10.1928 5.16683 10.4167 4.94297 10.4167 4.66683C10.4167 4.39069 10.1928 4.16683 9.91667 4.16683V5.16683ZM3.5 4.16683C3.22386 4.16683 3 4.39069 3 4.66683C3 4.94297 3.22386 5.16683 3.5 5.16683V4.16683ZM3.5 5.91683C3.22386 5.91683 3 6.14069 3 6.41683C3 6.69297 3.22386 6.91683 3.5 6.91683V5.91683ZM3.5 7.66683C3.22386 7.66683 3 7.89069 3 8.16683C3 8.44297 3.22386 8.66683 3.5 8.66683V7.66683ZM3.5 5.16683H9.91667V4.16683H3.5V5.16683ZM3.5 6.91683H9.91667V5.91683H3.5V6.91683ZM3.5 8.66683H8.16667V7.66683H3.5V8.66683ZM8.645 1.75016L7.70473 2.0906L7.94354 2.75016H8.645V1.75016ZM5.355 1.75016V2.75016H6.05646L6.29527 2.0906L5.355 1.75016ZM11.0833 0.750163H8.645V2.75016H11.0833V0.750163ZM9.58527 1.40972C9.20549 0.360826 8.20394 -0.416504 7 -0.416504V1.5835C7.31272 1.5835 7.59451 1.78617 7.70473 2.0906L9.58527 1.40972ZM7 -0.416504C5.79606 -0.416504 4.79451 0.360825 4.41473 1.40972L6.29527 2.0906C6.40549 1.78617 6.68728 1.5835 7 1.5835V-0.416504ZM5.355 0.750163H2.91667V2.75016H5.355V0.750163ZM2.91667 0.750163C1.72272 0.750163 0.75 1.72288 0.75 2.91683H2.75C2.75 2.82745 2.82728 2.75016 2.91667 2.75016V0.750163ZM0.75 2.91683V11.0835H2.75V2.91683H0.75ZM0.75 11.0835C0.75 12.2774 1.72271 13.2502 2.91667 13.2502V11.2502C2.82729 11.2502 2.75 11.1729 2.75 11.0835H0.75ZM2.91667 13.2502H11.0833V11.2502H2.91667V13.2502ZM11.0833 13.2502C12.2773 13.2502 13.25 12.2774 13.25 11.0835H11.25C11.25 11.1729 11.1727 11.2502 11.0833 11.2502V13.2502ZM13.25 11.0835V2.91683H11.25V11.0835H13.25ZM13.25 2.91683C13.25 1.72288 12.2773 0.750163 11.0833 0.750163V2.75016C11.1727 2.75016 11.25 2.82745 11.25 2.91683H13.25ZM7 3.3335C7.11465 3.3335 7.27184 3.32033 7.4403 3.25776C7.6128 3.19369 7.83837 3.06034 7.99284 2.80287C8.3337 2.23477 8.02967 1.70832 7.82742 1.50608C7.62517 1.30383 7.09872 0.999791 6.53062 1.34065C6.27316 1.49513 6.13981 1.72069 6.07573 1.8932C6.01316 2.06165 6 2.21885 6 2.3335H8C8 2.36794 7.99686 2.46497 7.95058 2.58957C7.9028 2.71821 7.79201 2.9162 7.55961 3.05564C7.04164 3.36642 6.57535 3.08243 6.41321 2.92029C6.25106 2.75815 5.96708 2.29185 6.27786 1.77388C6.4173 1.54149 6.61529 1.43069 6.74393 1.38291C6.86852 1.33663 6.96556 1.3335 7 1.3335V3.3335ZM6 2.3335C6 2.44814 6.01316 2.60534 6.07573 2.7738C6.13981 2.9463 6.27316 3.17186 6.53062 3.32634C7.09872 3.6672 7.62517 3.36316 7.82742 3.16092C8.02967 2.95867 8.3337 2.43222 7.99284 1.86412C7.83837 1.60666 7.6128 1.4733 7.4403 1.40923C7.27184 1.34666 7.11465 1.3335 7 1.3335V3.3335C6.96556 3.3335 6.86852 3.33036 6.74393 3.28408C6.61529 3.2363 6.4173 3.12551 6.27786 2.89311C5.96708 2.37514 6.25106 1.90885 6.41321 1.7467C6.57535 1.58456 7.04164 1.30057 7.55961 1.61135C7.79201 1.75079 7.9028 1.94878 7.95058 2.07742C7.99686 2.20202 8 2.29906 8 2.3335H6ZM7 1.3335C6.88535 1.3335 6.72816 1.34666 6.5597 1.40923C6.3872 1.4733 6.16163 1.60666 6.00716 1.86412C5.6663 2.43222 5.97033 2.95867 6.17258 3.16092C6.37483 3.36316 6.90128 3.6672 7.46938 3.32634C7.72684 3.17186 7.86019 2.9463 7.92427 2.7738C7.98684 2.60534 8 2.44814 8 2.3335H6C6 2.29906 6.00314 2.20202 6.04942 2.07742C6.0972 1.94878 6.20799 1.75079 6.44039 1.61135C6.95836 1.30057 7.42465 1.58456 7.58679 1.7467C7.74894 1.90885 8.03292 2.37514 7.72214 2.89311C7.5827 3.12551 7.38471 3.2363 7.25607 3.28408C7.13148 3.33036 7.03444 3.3335 7 3.3335V1.3335ZM8 2.3335C8 2.21885 7.98684 2.06165 7.92427 1.8932C7.86019 1.72069 7.72684 1.49513 7.46938 1.34065C6.90128 0.999791 6.37483 1.30383 6.17258 1.50608C5.97033 1.70832 5.6663 2.23477 6.00716 2.80287C6.16163 3.06034 6.3872 3.19369 6.5597 3.25776C6.72816 3.32033 6.88535 3.3335 7 3.3335V1.3335C7.03444 1.3335 7.13148 1.33663 7.25607 1.38291C7.38471 1.43069 7.5827 1.54149 7.72214 1.77388C8.03292 2.29185 7.74894 2.75815 7.58679 2.92029C7.42465 3.08243 6.95836 3.36642 6.44039 3.05564C6.20799 2.9162 6.0972 2.71821 6.04942 2.58957C6.00314 2.46497 6 2.36794 6 2.3335H8Z" fill="#0A0A0A" mask="url(#path-1-inside-1_513_3908)"/>
</g>
<defs>
<clipPath id="clip0_513_3908">
<rect width="14" height="14" fill="white"/>
</clipPath>
</defs>
</svg>
