<svg width="18" height="18" viewBox="0 0 18 18" fill="none" xmlns="http://www.w3.org/2000/svg">
<g clip-path="url(#clip0_511_3901)">
<path d="M9.61553 10.885L9.61551 10.885L9.61223 10.8876C9.2538 11.1714 8.74376 11.1718 8.38463 10.8925C8.3846 10.8925 8.38458 10.8925 8.38455 10.8925L3.31615 6.94872C3.31595 6.94857 3.31576 6.94842 3.31557 6.94827C3.18903 6.84841 3.18908 6.65067 3.31573 6.5509C3.31587 6.55079 3.31601 6.55068 3.31615 6.55058L8.38329 2.6003C8.7524 2.31812 9.25784 2.32106 9.61561 2.59932L14.684 6.54308C14.6842 6.54321 14.6844 6.54334 14.6845 6.54348C14.8111 6.64327 14.8111 6.84096 14.6846 6.94078C14.6844 6.94093 14.6842 6.94108 14.684 6.94122L9.61553 10.885Z" fill="#0A0A0A" stroke="#0A0A0A"/>
<path d="M15 9L9.915 12.945C9.375 13.3725 8.61 13.3725 8.07 12.9525L3 9" stroke="#0A0A0A"/>
</g>
<defs>
<clipPath id="clip0_511_3901">
<rect width="18" height="18" fill="white"/>
</clipPath>
</defs>
</svg>
