<svg width="14" height="14" viewBox="0 0 14 14" fill="none" xmlns="http://www.w3.org/2000/svg">
<path d="M9.19333 0.5H12.4444C13.0239 0.5 13.5 0.976142 13.5 1.55556V12.4444C13.5 13.0239 13.0239 13.5 12.4444 13.5H1.55556C0.976142 13.5 0.5 13.0239 0.5 12.4444V1.55556C0.5 0.976142 0.976142 0.5 1.55556 0.5H9.19333Z" stroke="#6519E1"/>
<path d="M1.53638 4.37891H3.06616C3.41317 4.37891 3.70622 4.4318 3.94531 4.5376C4.18652 4.64339 4.36955 4.79997 4.49438 5.00732C4.62134 5.21257 4.68481 5.46541 4.68481 5.76587C4.68481 5.97746 4.64144 6.17106 4.55469 6.34668C4.47005 6.52018 4.34733 6.66829 4.18652 6.79102C4.02783 6.91162 3.8374 7.00155 3.61523 7.06079L3.44385 7.12744H2.0061L1.99976 6.62915H3.08521C3.30526 6.62915 3.48828 6.59106 3.63428 6.51489C3.78027 6.4366 3.8903 6.33187 3.96436 6.20068C4.03841 6.0695 4.07544 5.92456 4.07544 5.76587C4.07544 5.58813 4.04053 5.43262 3.9707 5.29932C3.90088 5.16602 3.79085 5.0634 3.64062 4.99146C3.49251 4.9174 3.30103 4.88037 3.06616 4.88037H2.14893V9H1.53638V4.37891ZM4.2373 9L3.11377 6.90527L3.75171 6.9021L4.89111 8.96191V9H4.2373ZM6.1543 4.37891V9H5.54175V4.37891H6.1543ZM8.09033 6.45776V6.95923H6.021V6.45776H8.09033ZM8.40454 4.37891V4.88037H6.021V4.37891H8.40454ZM10.8389 7.18774H9.60425V6.68945H10.8389C11.078 6.68945 11.2716 6.65137 11.4197 6.5752C11.5678 6.49902 11.6757 6.39323 11.7434 6.25781C11.8132 6.1224 11.8481 5.96794 11.8481 5.79443C11.8481 5.63574 11.8132 5.48657 11.7434 5.34692C11.6757 5.20728 11.5678 5.09513 11.4197 5.0105C11.2716 4.92375 11.078 4.88037 10.8389 4.88037H9.74707V9H9.13452V4.37891H10.8389C11.188 4.37891 11.4832 4.43921 11.7244 4.55981C11.9656 4.68042 12.1486 4.84757 12.2734 5.06128C12.3983 5.27287 12.4607 5.51514 12.4607 5.78809C12.4607 6.08431 12.3983 6.33716 12.2734 6.54663C12.1486 6.7561 11.9656 6.91585 11.7244 7.02588C11.4832 7.13379 11.188 7.18774 10.8389 7.18774Z" fill="#6519E1"/>
</svg>
