<svg width="24" height="24" viewBox="0 0 24 24" fill="none" xmlns="http://www.w3.org/2000/svg">
<path d="M3.5 24H6.33602C6.73837 24 7.10153 23.7589 7.25766 23.3881L15 5H21.323C21.7319 5 22.0996 4.75105 22.2514 4.37139L23.4514 1.37139C23.7142 0.714527 23.2304 0 22.523 0H12.6667C12.263 0 11.8989 0.242738 11.7436 0.615385L2.57692 22.6154C2.30247 23.2741 2.78642 24 3.5 24Z" fill="#6519E1"/>
<path d="M8 0L6 5H1.47703C0.769568 5 0.285811 4.28547 0.548556 3.62861L1.74856 0.62861C1.90042 0.248951 2.26813 0 2.67703 0H8Z" fill="#6519E1"/>
</svg>
