<svg width="32" height="32" viewBox="0 0 32 32" fill="none" xmlns="http://www.w3.org/2000/svg">
<circle cx="16" cy="16" r="16" fill="#F3F3F4"/>
<path d="M18.975 26.575C18.675 26.875 18.3125 27.025 17.8875 27.025C17.4625 27.025 17.1 26.875 16.8 26.575L7.425 17.2C7.25833 17.0333 7.14583 16.8583 7.0875 16.675C7.02917 16.4917 7 16.3 7 16.1V8.5C7 8.06667 7.14167 7.70833 7.425 7.425C7.70833 7.14167 8.06667 7 8.5 7H16.1C16.3 7 16.5 7.02917 16.7 7.0875C16.9 7.14583 17.0833 7.25833 17.25 7.425L26.575 16.75C26.8917 17.0667 27.05 17.4375 27.05 17.8625C27.05 18.2875 26.8917 18.6583 26.575 18.975L18.975 26.575ZM17.95 25.55L25.55 17.95L16.1 8.5H8.5V16.1L17.95 25.55ZM11.125 12.4C11.475 12.4 11.7792 12.2708 12.0375 12.0125C12.2958 11.7542 12.425 11.45 12.425 11.1C12.425 10.75 12.2958 10.4458 12.0375 10.1875C11.7792 9.92917 11.475 9.8 11.125 9.8C10.775 9.8 10.4708 9.92917 10.2125 10.1875C9.95417 10.4458 9.825 10.75 9.825 11.1C9.825 11.45 9.95417 11.7542 10.2125 12.0125C10.4708 12.2708 10.775 12.4 11.125 12.4Z" fill="#7367F0"/>
</svg>
