<svg width="193" height="59" viewBox="0 0 193 59" fill="none" xmlns="http://www.w3.org/2000/svg">
<path d="M15.768 35L24.984 12.6H27.544L36.696 35H32.728L25.56 16.856H26.904L19.672 35H15.768ZM20.312 30.68V27.48H32.184V30.68H20.312ZM46.6395 35.32C44.8688 35.32 43.3648 35 42.1275 34.36C40.8902 33.72 39.7808 32.7813 38.7995 31.544L41.2955 29.048C41.9142 29.944 42.6502 30.648 43.5035 31.16C44.3568 31.6507 45.4448 31.896 46.7675 31.896C48.0048 31.896 48.9862 31.64 49.7115 31.128C50.4582 30.616 50.8315 29.912 50.8315 29.016C50.8315 28.2693 50.6395 27.6613 50.2555 27.192C49.8715 26.7227 49.3595 26.3387 48.7195 26.04C48.1008 25.72 47.4075 25.4427 46.6395 25.208C45.8928 24.952 45.1355 24.6747 44.3675 24.376C43.6208 24.056 42.9275 23.6613 42.2875 23.192C41.6688 22.7227 41.1675 22.1147 40.7835 21.368C40.3995 20.6213 40.2075 19.672 40.2075 18.52C40.2075 17.1973 40.5275 16.0773 41.1675 15.16C41.8288 14.2213 42.7142 13.5067 43.8235 13.016C44.9328 12.5253 46.1702 12.28 47.5355 12.28C49.0075 12.28 50.3195 12.568 51.4715 13.144C52.6448 13.72 53.5942 14.456 54.3195 15.352L51.8235 17.848C51.1835 17.1227 50.5115 16.5893 49.8075 16.248C49.1248 15.8853 48.3355 15.704 47.4395 15.704C46.3302 15.704 45.4555 15.928 44.8155 16.376C44.1968 16.824 43.8875 17.4533 43.8875 18.264C43.8875 18.9467 44.0795 19.5013 44.4635 19.928C44.8475 20.3333 45.3488 20.6853 45.9675 20.984C46.6075 21.2613 47.3008 21.528 48.0475 21.784C48.8155 22.04 49.5728 22.328 50.3195 22.648C51.0875 22.968 51.7808 23.384 52.3995 23.896C53.0395 24.3867 53.5515 25.0267 53.9355 25.816C54.3195 26.6053 54.5115 27.5973 54.5115 28.792C54.5115 30.7973 53.7968 32.3867 52.3675 33.56C50.9595 34.7333 49.0502 35.32 46.6395 35.32ZM72.9968 35L62.6288 23.32L72.7728 12.6H77.4768L66.2768 24.248L66.3088 22.232L77.7968 35H72.9968ZM59.4608 35V12.6H63.1408V35H59.4608ZM84.0327 35V12.12H95.7127V13.464H85.5687V21.88H94.8487V23.192H85.5687V35H84.0327ZM104.512 31.96C102.4 29.6773 101.344 26.872 101.344 23.544C101.344 20.216 102.4 17.4213 104.512 15.16C106.645 12.8773 109.333 11.736 112.576 11.736C115.818 11.736 118.506 12.8773 120.64 15.16C122.773 17.4213 123.84 20.216 123.84 23.544C123.84 26.872 122.773 29.6773 120.64 31.96C118.506 34.2427 115.818 35.384 112.576 35.384C109.333 35.384 106.645 34.2427 104.512 31.96ZM105.664 16.152C103.893 18.136 103.008 20.6 103.008 23.544C103.008 26.488 103.893 28.9627 105.664 30.968C107.456 32.9733 109.76 33.976 112.576 33.976C115.413 33.976 117.717 32.9733 119.488 30.968C121.28 28.9627 122.176 26.488 122.176 23.544C122.176 20.6 121.28 18.136 119.488 16.152C117.717 14.1467 115.413 13.144 112.576 13.144C109.738 13.144 107.434 14.1467 105.664 16.152ZM132.218 35V12.216C134.244 12.0667 135.94 11.992 137.306 11.992C139.482 11.992 141.274 12.5573 142.682 13.688C144.09 14.7973 144.794 16.376 144.794 18.424C144.794 19.8107 144.388 21.1013 143.578 22.296C142.767 23.4907 141.86 24.44 140.858 25.144C141.647 26.232 142.618 27.5333 143.77 29.048C144.943 30.5413 145.7 31.48 146.042 31.864C147.343 33.2507 148.815 34.04 150.458 34.232L150.426 35.256C149.124 35.2347 148.068 35.0427 147.258 34.68C146.447 34.296 145.668 33.72 144.922 32.952C144.196 32.184 142.372 29.7947 139.45 25.784C137.359 25.784 135.46 25.72 133.754 25.592V35H132.218ZM138.522 24.504C139.46 24.504 140.463 23.8853 141.53 22.648C142.596 21.4107 143.13 19.9813 143.13 18.36C143.13 16.7173 142.575 15.48 141.466 14.648C140.378 13.7947 138.927 13.368 137.114 13.368C136.154 13.368 135.034 13.4107 133.754 13.496V24.344C135.46 24.4507 137.05 24.504 138.522 24.504ZM165.064 35.384C161.736 35.384 158.877 34.2533 156.488 31.992C154.098 29.7093 152.904 26.904 152.904 23.576C152.904 20.2267 153.949 17.4213 156.04 15.16C158.13 12.8773 160.808 11.736 164.072 11.736C166.632 11.736 169.224 12.1627 171.848 13.016L171.432 14.296C168.872 13.528 166.418 13.144 164.072 13.144C161.277 13.144 158.994 14.1467 157.224 16.152C155.453 18.1573 154.568 20.6107 154.568 23.512C154.568 26.4133 155.592 28.888 157.64 30.936C159.709 32.9627 162.184 33.976 165.064 33.976C167.581 33.976 169.757 33.592 171.592 32.824L172.072 33.912C171.261 34.3813 170.194 34.744 168.872 35C167.57 35.256 166.301 35.384 165.064 35.384ZM179.372 35V12.12H189.996V13.464H180.908V21.88H189.132V23.192H180.908V33.656H190.348V35H179.372Z" fill="#8361FE"/>
<path d="M8.558 54.14C7.858 54.14 7.20933 54.014 6.612 53.762C6.01467 53.5007 5.492 53.1413 5.044 52.684C4.60533 52.2267 4.26467 51.6947 4.022 51.088C3.77933 50.4813 3.658 49.8327 3.658 49.142C3.658 48.442 3.77933 47.7887 4.022 47.182C4.26467 46.5753 4.60533 46.048 5.044 45.6C5.492 45.1427 6.01 44.788 6.598 44.536C7.19533 44.2747 7.844 44.144 8.544 44.144C9.30933 44.144 9.98133 44.2747 10.56 44.536C11.1387 44.7973 11.652 45.152 12.1 45.6L11.19 46.51C10.882 46.1647 10.504 45.894 10.056 45.698C9.61733 45.502 9.11333 45.404 8.544 45.404C8.03067 45.404 7.55933 45.4973 7.13 45.684C6.70067 45.8613 6.32733 46.118 6.01 46.454C5.69267 46.79 5.44533 47.1867 5.268 47.644C5.1 48.1013 5.016 48.6007 5.016 49.142C5.016 49.6833 5.1 50.1827 5.268 50.64C5.44533 51.0973 5.69267 51.494 6.01 51.83C6.32733 52.166 6.70067 52.4273 7.13 52.614C7.55933 52.7913 8.03067 52.88 8.544 52.88C9.15067 52.88 9.678 52.782 10.126 52.586C10.574 52.3807 10.952 52.1053 11.26 51.76L12.17 52.656C11.722 53.1227 11.1947 53.4867 10.588 53.748C9.99067 54.0093 9.314 54.14 8.558 54.14ZM25.2342 54.14C24.5435 54.14 23.8995 54.014 23.3022 53.762C22.7049 53.5007 22.1822 53.1413 21.7342 52.684C21.2862 52.2173 20.9362 51.6807 20.6842 51.074C20.4415 50.4673 20.3202 49.8187 20.3202 49.128C20.3202 48.428 20.4415 47.7793 20.6842 47.182C20.9362 46.5753 21.2815 46.0433 21.7202 45.586C22.1682 45.1287 22.6862 44.774 23.2742 44.522C23.8715 44.27 24.5155 44.144 25.2062 44.144C25.8969 44.144 26.5362 44.27 27.1242 44.522C27.7215 44.774 28.2442 45.1287 28.6922 45.586C29.1402 46.0433 29.4902 46.5753 29.7422 47.182C29.9942 47.7887 30.1202 48.442 30.1202 49.142C30.1202 49.8327 29.9942 50.4813 29.7422 51.088C29.4902 51.6947 29.1402 52.2267 28.6922 52.684C28.2535 53.1413 27.7355 53.5007 27.1382 53.762C26.5502 54.014 25.9155 54.14 25.2342 54.14ZM25.2062 52.88C25.9062 52.88 26.5175 52.7213 27.0402 52.404C27.5722 52.0773 27.9922 51.634 28.3002 51.074C28.6082 50.5047 28.7622 49.856 28.7622 49.128C28.7622 48.5867 28.6735 48.092 28.4962 47.644C28.3189 47.1867 28.0715 46.79 27.7542 46.454C27.4369 46.118 27.0635 45.8613 26.6342 45.684C26.2049 45.4973 25.7289 45.404 25.2062 45.404C24.5155 45.404 23.9042 45.5627 23.3722 45.88C22.8495 46.1973 22.4342 46.636 22.1262 47.196C21.8275 47.756 21.6782 48.4 21.6782 49.128C21.6782 49.6693 21.7622 50.1733 21.9302 50.64C22.1075 51.0973 22.3502 51.494 22.6582 51.83C22.9755 52.1567 23.3489 52.4133 23.7782 52.6C24.2169 52.7867 24.6929 52.88 25.2062 52.88ZM39.3454 54V44.284H40.2694L40.6614 45.81V54H39.3454ZM46.0654 54L40.1014 46.034L40.2694 44.284L46.2474 52.236L46.0654 54ZM46.0654 54L45.6734 52.558V44.284H46.9894V54H46.0654ZM61.1149 54.14C60.4149 54.14 59.7662 54.014 59.1689 53.762C58.5715 53.5007 58.0489 53.1413 57.6009 52.684C57.1622 52.2267 56.8215 51.6947 56.5789 51.088C56.3362 50.4813 56.2149 49.8327 56.2149 49.142C56.2149 48.442 56.3362 47.7887 56.5789 47.182C56.8215 46.5753 57.1622 46.048 57.6009 45.6C58.0489 45.1427 58.5669 44.788 59.1549 44.536C59.7522 44.2747 60.4009 44.144 61.1009 44.144C61.8662 44.144 62.5382 44.2747 63.1169 44.536C63.6955 44.7973 64.2089 45.152 64.6569 45.6L63.7469 46.51C63.4389 46.1647 63.0609 45.894 62.6129 45.698C62.1742 45.502 61.6702 45.404 61.1009 45.404C60.5875 45.404 60.1162 45.4973 59.6869 45.684C59.2575 45.8613 58.8842 46.118 58.5669 46.454C58.2495 46.79 58.0022 47.1867 57.8249 47.644C57.6569 48.1013 57.5729 48.6007 57.5729 49.142C57.5729 49.6833 57.6569 50.1827 57.8249 50.64C58.0022 51.0973 58.2495 51.494 58.5669 51.83C58.8842 52.166 59.2575 52.4273 59.6869 52.614C60.1162 52.7913 60.5875 52.88 61.1009 52.88C61.7075 52.88 62.2349 52.782 62.6829 52.586C63.1309 52.3807 63.5089 52.1053 63.8169 51.76L64.7269 52.656C64.2789 53.1227 63.7515 53.4867 63.1449 53.748C62.5475 54.0093 61.8709 54.14 61.1149 54.14ZM73.7635 54V44.284H75.0795V54H73.7635ZM74.6595 54V52.796H80.2315V54H74.6595ZM74.6595 49.604V48.456H79.7695V49.604H74.6595ZM74.6595 45.488V44.284H80.1615V45.488H74.6595ZM90.3234 50.22V49.072H92.9694C93.3334 49.072 93.6554 48.9973 93.9354 48.848C94.2247 48.6987 94.4487 48.4887 94.6074 48.218C94.7754 47.9473 94.8594 47.6253 94.8594 47.252C94.8594 46.8787 94.7754 46.5567 94.6074 46.286C94.4487 46.0153 94.2247 45.8053 93.9354 45.656C93.6554 45.5067 93.3334 45.432 92.9694 45.432H90.3234V44.284H93.0534C93.6507 44.284 94.1827 44.4053 94.6494 44.648C95.1254 44.8907 95.4987 45.236 95.7694 45.684C96.0494 46.1227 96.1894 46.6453 96.1894 47.252C96.1894 47.8493 96.0494 48.372 95.7694 48.82C95.4987 49.2587 95.1254 49.604 94.6494 49.856C94.1827 50.0987 93.6507 50.22 93.0534 50.22H90.3234ZM89.4414 54V44.284H90.7574V54H89.4414ZM107.627 54V44.564H108.943V54H107.627ZM104.323 45.488V44.284H112.233V45.488H104.323ZM132.202 54V52.796H134.904C135.623 52.796 136.253 52.642 136.794 52.334C137.336 52.0167 137.756 51.5827 138.054 51.032C138.362 50.4813 138.516 49.8467 138.516 49.128C138.516 48.4187 138.362 47.7887 138.054 47.238C137.746 46.6873 137.322 46.258 136.78 45.95C136.239 45.642 135.614 45.488 134.904 45.488H132.216V44.284H134.932C135.642 44.284 136.295 44.4053 136.892 44.648C137.499 44.8907 138.022 45.2313 138.46 45.67C138.908 46.1087 139.254 46.622 139.496 47.21C139.748 47.798 139.874 48.442 139.874 49.142C139.874 49.8327 139.748 50.4767 139.496 51.074C139.254 51.662 138.913 52.1753 138.474 52.614C138.036 53.0527 137.513 53.3933 136.906 53.636C136.309 53.8787 135.66 54 134.96 54H132.202ZM131.334 54V44.284H132.65V54H131.334ZM148.403 54L152.379 44.284H153.331L157.293 54H155.865L152.603 45.782H153.093L149.803 54H148.403ZM150.293 51.802V50.654H155.403V51.802H150.293ZM168.605 54.14C167.839 54.14 167.186 54 166.645 53.72C166.103 53.44 165.623 53.034 165.203 52.502L166.099 51.606C166.407 52.0353 166.761 52.362 167.163 52.586C167.564 52.8007 168.059 52.908 168.647 52.908C169.225 52.908 169.687 52.782 170.033 52.53C170.387 52.278 170.565 51.9327 170.565 51.494C170.565 51.13 170.481 50.836 170.313 50.612C170.145 50.388 169.916 50.206 169.627 50.066C169.347 49.9167 169.039 49.786 168.703 49.674C168.367 49.5527 168.031 49.4267 167.695 49.296C167.359 49.156 167.051 48.988 166.771 48.792C166.491 48.5867 166.262 48.3207 166.085 47.994C165.917 47.6673 165.833 47.2567 165.833 46.762C165.833 46.2113 165.963 45.7447 166.225 45.362C166.495 44.97 166.859 44.6713 167.317 44.466C167.783 44.2513 168.306 44.144 168.885 44.144C169.519 44.144 170.089 44.27 170.593 44.522C171.097 44.7647 171.507 45.0867 171.825 45.488L170.929 46.384C170.639 46.048 170.327 45.796 169.991 45.628C169.664 45.46 169.286 45.376 168.857 45.376C168.334 45.376 167.919 45.4927 167.611 45.726C167.303 45.95 167.149 46.2673 167.149 46.678C167.149 47.0047 167.233 47.2707 167.401 47.476C167.578 47.672 167.807 47.84 168.087 47.98C168.367 48.12 168.675 48.2507 169.011 48.372C169.356 48.484 169.697 48.61 170.033 48.75C170.369 48.89 170.677 49.0673 170.957 49.282C171.237 49.4967 171.461 49.7767 171.629 50.122C171.806 50.458 171.895 50.8827 171.895 51.396C171.895 52.2547 171.596 52.9267 170.999 53.412C170.411 53.8973 169.613 54.14 168.605 54.14ZM181.088 54V44.284H182.404V54H181.088ZM187.36 54V44.284H188.676V54H187.36ZM181.984 49.576V48.372H187.682V49.576H181.984Z" fill="#8361FE"/>
<path d="M4.33203 33.9986H9.2511C9.65344 33.9986 10.0166 33.7575 10.1727 33.3867L21.2479 7.08304H30.4872C30.8961 7.08304 31.2638 6.83409 31.4157 6.45444L33.4489 1.37139C33.7116 0.714526 33.2279 0 32.5204 0H17.6648C17.2611 0 16.897 0.242739 16.7417 0.615386L3.40895 32.614C3.1345 33.2727 3.61845 33.9986 4.33203 33.9986Z" fill="#8361FE"/>
<path d="M11.3329 0L8.49965 7.08305H1.47703C0.769568 7.08305 0.285811 6.36852 0.548556 5.71165L2.58177 0.628609C2.73364 0.24895 3.10135 0 3.51025 0H11.3329Z" fill="#8361FE"/>
</svg>
