<svg width="22" height="21" viewBox="0 0 22 21" fill="none" xmlns="http://www.w3.org/2000/svg">
<path d="M12.1542 19.4873L12.2517 19.9777L12.1542 19.4873ZM1.71046 13.9051L2.1724 13.7137L1.71046 13.9051ZM5.14801 2.57297L5.4258 2.9887L5.14801 2.57297ZM21.3536 4.6869C21.5488 4.49164 21.5488 4.17506 21.3536 3.97979C21.1583 3.78453 20.8417 3.78453 20.6464 3.97979L21.3536 4.6869ZM10.3333 15L9.97978 15.3536L10.3333 15.7071L10.6869 15.3536L10.3333 15ZM6.68689 10.6465C6.49163 10.4512 6.17504 10.4512 5.97978 10.6465C5.78452 10.8417 5.78452 11.1583 5.97978 11.3536L6.68689 10.6465ZM19.1667 10.3333C19.1667 12.377 18.4581 14.3574 17.1616 15.9372L17.9346 16.5715C19.3778 14.813 20.1667 12.6083 20.1667 10.3333H19.1667ZM17.1616 15.9372C15.8651 17.5169 14.061 18.5983 12.0566 18.9969L12.2517 19.9777C14.483 19.5339 16.4914 18.3301 17.9346 16.5715L17.1616 15.9372ZM12.0566 18.9969C10.0523 19.3956 7.97166 19.087 6.16933 18.1236L5.69793 19.0056C7.7043 20.078 10.0204 20.4216 12.2517 19.9777L12.0566 18.9969ZM6.16933 18.1236C4.367 17.1603 2.95447 15.6018 2.1724 13.7137L1.24852 14.0964C2.11912 16.1982 3.69157 17.9331 5.69793 19.0056L6.16933 18.1236ZM2.1724 13.7137C1.39033 11.8256 1.28713 9.72481 1.88036 7.76917L0.923422 7.47888C0.263027 9.65591 0.377918 11.9946 1.24852 14.0964L2.1724 13.7137ZM1.88036 7.76917C2.4736 5.81353 3.72657 4.12408 5.4258 2.9887L4.87023 2.15723C2.97864 3.42115 1.58382 5.30185 0.923422 7.47888L1.88036 7.76917ZM5.4258 2.9887C7.12502 1.85332 9.16535 1.34224 11.1992 1.54255L11.2972 0.547365C9.03313 0.324377 6.76181 0.893312 4.87023 2.15723L5.4258 2.9887ZM11.1992 1.54255C13.2329 1.74286 15.1344 2.64217 16.5794 4.08724L17.2866 3.38013C15.6779 1.77147 13.5612 0.770353 11.2972 0.547365L11.1992 1.54255ZM20.6464 3.97979L9.97978 14.6465L10.6869 15.3536L21.3536 4.6869L20.6464 3.97979ZM10.6869 14.6465L6.68689 10.6465L5.97978 11.3536L9.97978 15.3536L10.6869 14.6465Z" fill="#6519E1"/>
</svg>
