<svg width="13" height="10" viewBox="0 0 13 10" fill="none" xmlns="http://www.w3.org/2000/svg">
<path d="M1.66797 4C1.11464 4 0.667969 4.44667 0.667969 5C0.667969 5.55333 1.11464 6 1.66797 6C2.2213 6 2.66797 5.55333 2.66797 5C2.66797 4.44667 2.2213 4 1.66797 4ZM1.66797 0C1.11464 0 0.667969 0.446667 0.667969 1C0.667969 1.55333 1.11464 2 1.66797 2C2.2213 2 2.66797 1.55333 2.66797 1C2.66797 0.446667 2.2213 0 1.66797 0ZM1.66797 8C1.11464 8 0.667969 8.45333 0.667969 9C0.667969 9.54667 1.1213 10 1.66797 10C2.21464 10 2.66797 9.54667 2.66797 9C2.66797 8.45333 2.2213 8 1.66797 8ZM4.33464 9.66667H12.3346C12.7013 9.66667 13.0013 9.36667 13.0013 9C13.0013 8.63333 12.7013 8.33333 12.3346 8.33333H4.33464C3.96797 8.33333 3.66797 8.63333 3.66797 9C3.66797 9.36667 3.96797 9.66667 4.33464 9.66667ZM4.33464 5.66667H12.3346C12.7013 5.66667 13.0013 5.36667 13.0013 5C13.0013 4.63333 12.7013 4.33333 12.3346 4.33333H4.33464C3.96797 4.33333 3.66797 4.63333 3.66797 5C3.66797 5.36667 3.96797 5.66667 4.33464 5.66667ZM3.66797 1C3.66797 1.36667 3.96797 1.66667 4.33464 1.66667H12.3346C12.7013 1.66667 13.0013 1.36667 13.0013 1C13.0013 0.633333 12.7013 0.333333 12.3346 0.333333H4.33464C3.96797 0.333333 3.66797 0.633333 3.66797 1Z" fill="#70757A"/>
</svg>
