<svg width="20" height="10" viewBox="0 0 20 10" fill="none" xmlns="http://www.w3.org/2000/svg">
<path d="M1.21512 7.60893L1.21623 7.60845C1.86411 7.32643 2.57968 7.16667 3.33333 7.16667C3.39639 7.16667 3.45898 7.16807 3.5213 7.17074C3.34633 7.63545 3.25 8.13611 3.25 8.65833V9.5H0.5V8.69167C0.5 8.21854 0.779238 7.79742 1.21512 7.60893ZM18.7838 7.60845L18.7849 7.60893C19.2208 7.79742 19.5 8.21854 19.5 8.69167V9.5H16.75V8.65833C16.75 8.13611 16.6537 7.63546 16.4787 7.17075C16.541 7.16807 16.6036 7.16667 16.6667 7.16667C17.4203 7.16667 18.1359 7.32643 18.7838 7.60845ZM4.5 4.16667C4.5 4.80719 3.97386 5.33333 3.33333 5.33333C2.69281 5.33333 2.16667 4.80719 2.16667 4.16667C2.16667 3.52614 2.69281 3 3.33333 3C3.97386 3 4.5 3.52614 4.5 4.16667ZM17.8333 4.16667C17.8333 4.80719 17.3072 5.33333 16.6667 5.33333C16.0261 5.33333 15.5 4.80719 15.5 4.16667C15.5 3.52614 16.0261 3 16.6667 3C17.3072 3 17.8333 3.52614 17.8333 4.16667ZM10 6.125C11.2801 6.125 12.4112 6.42341 13.3303 6.83191C14.044 7.14913 14.5 7.8663 14.5 8.65833V9.5H5.5V8.65833C5.5 7.86688 5.95532 7.15017 6.66819 6.83259C7.59143 6.43039 8.72282 6.125 10 6.125ZM8 2.5C8 1.39281 8.89281 0.5 10 0.5C11.1072 0.5 12 1.39281 12 2.5C12 3.60719 11.1072 4.5 10 4.5C8.89281 4.5 8 3.60719 8 2.5Z" stroke="#70757A"/>
</svg>
