<svg width="10" height="10" viewBox="0 0 10 10" fill="none" xmlns="http://www.w3.org/2000/svg">
<path d="M9 0H1C0.45 0 0 0.682894 0 1.21948V9.02439C0 9.56097 0.45 10 1 10H9C9.55 10 10 9.56097 10 9.02439V1.21948C10 0.682894 9.55 0 9 0ZM3 9.02439H1V7.07316H3V9.02439ZM3 6.09755H1V4.14632H3V6.09755ZM3 3.17071H1V1.21948H3V3.17071ZM6 9.02439H4V7.07316H6V9.02439ZM6 6.09755H4V4.14632H6V6.09755ZM6 3.17071H4V1.21948H6V3.17071ZM9 9.02439H7V7.07316H9V9.02439ZM9 6.09755H7V4.14632H9V6.09755ZM9 3.17071H7V1.21948H9V3.17071Z" fill="#70757A"/>
</svg>
