<svg width="18" height="10" viewBox="0 0 18 10" fill="none" xmlns="http://www.w3.org/2000/svg">
<path d="M13.166 0.833008H10.666C10.2077 0.833008 9.83268 1.20801 9.83268 1.66634C9.83268 2.12467 10.2077 2.49967 10.666 2.49967H13.166C14.541 2.49967 15.666 3.62467 15.666 4.99967C15.666 6.37467 14.541 7.49967 13.166 7.49967H10.666C10.2077 7.49967 9.83268 7.87467 9.83268 8.33301C9.83268 8.79134 10.2077 9.16634 10.666 9.16634H13.166C15.466 9.16634 17.3327 7.29967 17.3327 4.99967C17.3327 2.69967 15.466 0.833008 13.166 0.833008ZM5.66602 4.99967C5.66602 5.45801 6.04102 5.83301 6.49935 5.83301H11.4993C11.9577 5.83301 12.3327 5.45801 12.3327 4.99967C12.3327 4.54134 11.9577 4.16634 11.4993 4.16634H6.49935C6.04102 4.16634 5.66602 4.54134 5.66602 4.99967ZM7.33268 7.49967H4.83268C3.45768 7.49967 2.33268 6.37467 2.33268 4.99967C2.33268 3.62467 3.45768 2.49967 4.83268 2.49967H7.33268C7.79102 2.49967 8.16602 2.12467 8.16602 1.66634C8.16602 1.20801 7.79102 0.833008 7.33268 0.833008H4.83268C2.53268 0.833008 0.666016 2.69967 0.666016 4.99967C0.666016 7.29967 2.53268 9.16634 4.83268 9.16634H7.33268C7.79102 9.16634 8.16602 8.79134 8.16602 8.33301C8.16602 7.87467 7.79102 7.49967 7.33268 7.49967Z" fill="#70757A"/>
</svg>
