<svg width="32" height="32" viewBox="0 0 32 32" fill="none" xmlns="http://www.w3.org/2000/svg">
<g clip-path="url(#clip0_3580_11125)">
<rect width="32" height="32" rx="16" fill="#E84C3D"/>
<g clip-path="url(#clip1_3580_11125)">
<path d="M22.3027 9.70875C21.9127 9.31875 21.2827 9.31875 20.8927 9.70875L16.0027 14.5888L11.1127 9.69875C10.7227 9.30875 10.0927 9.30875 9.70266 9.69875C9.31266 10.0888 9.31266 10.7188 9.70266 11.1088L14.5927 15.9988L9.70266 20.8887C9.31266 21.2787 9.31266 21.9087 9.70266 22.2987C10.0927 22.6887 10.7227 22.6887 11.1127 22.2987L16.0027 17.4087L20.8927 22.2987C21.2827 22.6887 21.9127 22.6887 22.3027 22.2987C22.6927 21.9087 22.6927 21.2787 22.3027 20.8887L17.4127 15.9988L22.3027 11.1088C22.6827 10.7288 22.6827 10.0888 22.3027 9.70875Z" fill="#FBFBFB"/>
</g>
</g>
<defs>
<clipPath id="clip0_3580_11125">
<rect width="32" height="32" rx="16" fill="white"/>
</clipPath>
<clipPath id="clip1_3580_11125">
<rect width="24" height="24" fill="white" transform="translate(4 4)"/>
</clipPath>
</defs>
</svg>
