<svg width="980" height="562" viewBox="0 0 980 562" fill="none" xmlns="http://www.w3.org/2000/svg">
<g filter="url(#filter0_d_8628_7514)">
<g clip-path="url(#clip0_8628_7514)">
<rect x="20" y="6" width="940" height="522" rx="16" fill="white"/>
<circle cx="490" cy="719" r="379" fill="#F7F4FF"/>
<path d="M286.741 389.349L286.437 389.469L286.37 389.489C286.298 389.514 286.229 389.545 286.162 389.582C286.1 389.626 286.04 389.673 285.984 389.724L285.905 389.792C285.792 389.874 285.697 389.977 285.625 390.096L285.614 390.124C285.579 390.189 285.559 390.26 285.555 390.333C285.538 390.458 285.565 390.585 285.631 390.692C285.686 390.775 285.76 390.843 285.847 390.89L285.87 390.905C285.982 390.967 286.107 391.001 286.235 391.003L286.341 391.02C286.423 391.036 286.506 391.045 286.59 391.047C286.679 391.04 286.768 391.026 286.855 391.005L287.216 390.928C287.324 390.901 287.423 390.846 287.502 390.767C287.626 390.663 287.718 390.526 287.766 390.371C287.815 390.216 287.817 390.05 287.774 389.894C287.71 389.683 287.566 389.506 287.373 389.401C287.277 389.348 287.171 389.316 287.063 389.305C286.954 389.294 286.844 389.305 286.74 389.336L286.741 389.349Z" fill="#2A1B3F"/>
<path d="M229.193 329.028C229.193 329.028 212.588 336.792 218.985 356.489C225.383 376.187 225.894 386.431 248.01 382.604C261.253 380.309 265.555 350.527 255.921 335.839C249.458 326.007 229.193 329.028 229.193 329.028Z" fill="white" stroke="#2A1B3F" stroke-linecap="round" stroke-linejoin="round"/>
<path d="M291.715 333.537C278.85 325.221 276.098 316.466 269.761 319.255C261.764 322.771 262.419 331.697 267.807 336.207C273.195 340.716 283.743 347.26 285.233 347.818C292.478 350.531 304.038 353.989 307.089 352.105L310.869 340.128C307.816 338.182 293.637 334.796 291.715 333.537Z" fill="#B3BDDE" stroke="#2A1B3F" stroke-linecap="round" stroke-linejoin="round"/>
<path d="M307.078 352.107L312.377 352.965L316.18 340.994L310.858 340.13L307.078 352.107Z" fill="white" stroke="#2A1B3F" stroke-linecap="round" stroke-linejoin="round"/>
<path d="M312.548 351.858C312.548 351.858 314.256 352.401 318.911 354.101C323.565 355.8 327.491 355.316 330.117 350.981C332.744 346.646 331.818 344.174 327.144 343.623C325.417 343.423 322.775 344.066 322.775 344.066C322.775 344.066 326.541 342.983 325.951 340.944C325.138 338.136 318.427 342.409 315.377 342.972L312.548 351.858Z" fill="white" stroke="#2A1B3F" stroke-linecap="round" stroke-linejoin="round"/>
<path d="M329.053 352.452C329.053 352.452 324.811 353.636 320.547 351.896" stroke="#2A1B3F" stroke-linecap="round" stroke-linejoin="round"/>
<path d="M290.714 371.47C288.023 355.4 280.761 316.435 269.818 315.098C263.562 314.323 236.177 322.608 236.177 322.608C236.177 322.608 234.759 324.509 231.406 328.053C222.145 337.817 239.087 368.902 247.136 386.23C255.8 405.983 260.437 431.751 260.437 431.751L270.607 431.702C270.607 431.702 272.288 427.247 272.7 417.395C273.142 406.81 272.272 390.587 271.051 384.827C274.414 390.5 281.423 402.289 291.556 428.284L303.004 424.856C303.004 424.856 293.397 387.542 290.714 371.47Z" fill="#B3BDDE" stroke="#2A1B3F" stroke-linecap="round" stroke-linejoin="round"/>
<path d="M303.436 424.736L299.895 408.048C299.895 408.048 299.05 410.089 293.181 411.846C289.591 412.921 284.514 412.676 284.514 412.676C284.514 412.676 289.223 425.388 289.594 427.016C291.109 433.652 290.603 433.009 292.693 439.989L319.866 431.852C320.525 424.314 313.893 418.797 303.436 424.736Z" fill="white" stroke="#2A1B3F" stroke-linecap="round" stroke-linejoin="round"/>
<path d="M320.437 433.643C319.829 433.825 319.997 434.384 319.367 434.572C318.737 434.761 318.579 434.199 317.962 434.384C317.344 434.569 317.509 435.129 316.891 435.314C316.273 435.499 316.116 434.937 315.486 435.125C314.856 435.314 315.046 435.866 314.418 436.054C313.79 436.242 313.63 435.681 313.013 435.866C312.395 436.051 312.562 436.61 311.944 436.795C311.326 436.98 311.157 436.422 310.539 436.607C309.921 436.792 310.089 437.351 309.471 437.536C308.853 437.721 308.686 437.162 308.068 437.347C307.45 437.532 307.627 438.088 306.997 438.277C306.367 438.465 306.222 437.9 305.596 438.087C304.97 438.274 305.144 438.832 304.526 439.017C303.908 439.202 303.741 438.643 303.123 438.828C302.505 439.013 302.672 439.572 302.055 439.757C301.437 439.942 301.267 439.383 300.65 439.568C300.032 439.753 300.209 440.309 299.581 440.497C298.953 440.685 298.806 440.12 298.178 440.309C297.55 440.497 297.726 441.053 297.11 441.237C296.494 441.422 296.323 440.864 295.707 441.049C295.091 441.233 295.254 441.793 294.636 441.978C294.018 442.163 293.861 441.601 293.233 441.789L292.688 439.967L319.891 431.82L320.437 433.643Z" fill="white" stroke="#2A1B3F" stroke-linecap="round" stroke-linejoin="round"/>
<path d="M273.203 434.446L272.677 417.392C272.677 417.392 271.483 419.251 265.396 419.939C261.673 420.363 256.718 419.217 256.718 419.217C256.718 419.217 259.099 432.562 259.178 434.233C259.492 441.032 259.108 440.309 259.926 447.54L288.108 444.346C290.099 437.063 284.547 430.451 273.203 434.446Z" fill="white" stroke="#2A1B3F" stroke-linecap="round" stroke-linejoin="round"/>
<path d="M288.359 446.22C287.718 446.292 287.781 446.872 287.139 446.945C286.496 447.018 286.431 446.44 285.789 446.513C285.146 446.586 285.213 447.162 284.57 447.235C283.928 447.308 283.863 446.73 283.222 446.803C282.582 446.875 282.647 447.454 282.004 447.527C281.362 447.6 281.299 447.021 280.656 447.094C280.014 447.168 280.08 447.743 279.44 447.816C278.799 447.889 278.732 447.311 278.09 447.384C277.447 447.457 277.514 448.035 276.874 448.11C276.235 448.184 276.166 447.6 275.526 447.677C274.887 447.754 274.95 448.326 274.31 448.399C273.669 448.472 273.604 447.893 272.964 447.966C272.323 448.038 272.386 448.617 271.746 448.69C271.106 448.763 271.04 448.184 270.398 448.257C269.755 448.331 269.823 448.909 269.179 448.98C268.536 449.051 268.474 448.474 267.833 448.547C267.193 448.619 267.258 449.198 266.616 449.273C265.974 449.348 265.91 448.765 265.268 448.838C264.625 448.912 264.692 449.49 264.052 449.562C263.411 449.635 263.346 449.056 262.704 449.13C262.061 449.203 262.128 449.781 261.488 449.853C260.847 449.926 260.782 449.345 260.14 449.421L259.928 447.54L288.145 444.342L288.359 446.22Z" fill="white" stroke="#2A1B3F" stroke-linecap="round" stroke-linejoin="round"/>
<path d="M239.212 358.588C238.102 343.315 237.379 332.461 237.379 332.461C229.751 328.201 223.027 334.111 222.673 341.128C222.32 348.145 223.455 360.502 223.908 362.028C226.108 369.44 230.315 380.749 233.658 382.056L245.495 377.85C245.215 374.233 239.377 360.886 239.212 358.588Z" fill="#B3BDDE" stroke="#2A1B3F" stroke-linecap="round" stroke-linejoin="round"/>
<path d="M233.651 382.049L236.159 386.79L248.004 382.61L245.487 377.84L233.651 382.049Z" fill="white" stroke="#2A1B3F" stroke-linecap="round" stroke-linejoin="round"/>
<path d="M237.145 386.256C237.145 386.256 237.75 387.952 239.189 392.685C240.628 397.417 243.391 400.252 248.431 399.736C253.47 399.22 254.892 396.987 252.509 392.928C251.618 391.429 249.523 389.711 249.523 389.711C249.523 389.711 252.655 392.061 253.93 390.362C255.679 388.02 248.225 385.243 245.937 383.153L237.145 386.256Z" fill="white" stroke="#2A1B3F" stroke-linecap="round" stroke-linejoin="round"/>
<path d="M246.34 391.029C246.34 391.029 250.213 396.134 253.105 397.869" stroke="#2A1B3F" stroke-linecap="round" stroke-linejoin="round"/>
<path d="M250.276 399.428C250.276 399.428 247.124 398.225 244.121 392.143" stroke="#2A1B3F" stroke-linecap="round" stroke-linejoin="round"/>
<path d="M246.617 399.775C246.617 399.775 243.117 397.108 241.931 392.655" stroke="#2A1B3F" stroke-linecap="round" stroke-linejoin="round"/>
<path d="M221.035 314.428C221.035 314.428 224.925 322.89 229.074 325.624C233.224 328.358 225.689 330.102 226.521 332.32C227.75 335.59 242.258 339.494 252.553 336.832C273.197 331.496 276.441 318.829 276.441 318.829C275.853 316.077 271.991 315.703 271.991 315.703C271.991 315.703 272.208 311.961 270.387 310.348L221.035 314.428Z" fill="white" stroke="#2A1B3F" stroke-linecap="round" stroke-linejoin="round"/>
<path d="M271.858 286.655C273.716 292.16 273.9 298.093 272.387 303.704C270.873 309.314 267.729 314.35 263.353 318.175C258.977 322 253.565 324.443 247.801 325.194C242.037 325.945 236.18 324.97 230.971 322.394C225.762 319.818 221.434 315.755 218.534 310.719C215.635 305.684 214.294 299.902 214.682 294.104C215.069 288.306 217.168 282.753 220.711 278.147C224.255 273.54 229.086 270.087 234.592 268.225C238.25 266.987 242.115 266.482 245.968 266.739C249.821 266.995 253.586 268.008 257.046 269.72C260.507 271.432 263.596 273.808 266.138 276.714C268.679 279.62 270.623 282.998 271.858 286.655Z" fill="white" stroke="#2A1B3F" stroke-linecap="round" stroke-linejoin="round"/>
<path d="M237.636 279.434C226.201 295.155 232.58 309.799 232.58 309.799C232.58 309.799 256.299 326.58 272.883 301.611C272.883 301.611 275.875 290.962 270.102 280.972C264.329 270.981 253.973 267.785 253.973 267.785C253.973 267.785 245.076 269.198 237.636 279.434Z" fill="#2A1B3F"/>
<path d="M270.481 308.843C252.542 330.199 228.694 311.109 228.694 311.109C228.694 311.109 221.285 279.867 247.474 266.87" stroke="#2A1B3F" stroke-linecap="round" stroke-linejoin="round"/>
<path d="M235.68 292.093C233.762 297.135 235.143 305.21 237.612 305.687C240.081 306.163 237.966 297.183 240.372 293.165C242.906 288.958 237.617 287.002 235.68 292.093Z" fill="white"/>
<path d="M238.108 283.235C237.663 283.653 237.4 284.23 237.376 284.84C237.352 285.451 237.57 286.046 237.981 286.497L238.149 286.681C238.355 286.904 238.603 287.085 238.878 287.212C239.154 287.34 239.452 287.412 239.756 287.424C240.059 287.437 240.362 287.389 240.648 287.284C240.933 287.18 241.195 287.02 241.418 286.814C241.641 286.608 241.822 286.36 241.95 286.085C242.078 285.809 242.15 285.511 242.162 285.207C242.174 284.904 242.127 284.601 242.022 284.316C241.918 284.031 241.758 283.769 241.552 283.546L241.388 283.374C240.971 282.922 240.392 282.654 239.777 282.628C239.162 282.602 238.562 282.82 238.108 283.235Z" fill="white"/>
<path d="M268.154 299.532C268.04 299.409 267.9 299.312 267.744 299.25C267.588 299.188 267.419 299.161 267.251 299.173C267.084 299.185 266.921 299.234 266.774 299.317C266.628 299.401 266.503 299.516 266.407 299.654C265.244 301.359 259.991 305.914 262.486 308.172C264.393 309.898 266.365 308.093 267.566 305.808C269.142 303.877 269.974 301.32 268.154 299.532Z" fill="white"/>
<path d="M223.747 311.767C220.219 311.31 215.304 308.075 212.758 303.023C210.925 299.38 211.903 295.194 214.612 295.255C214.612 295.255 214.553 306.032 225.234 307.52L223.747 311.767Z" fill="white" stroke="#2A1B3F" stroke-linecap="round" stroke-linejoin="round"/>
<path d="M233.17 308.916C233.604 309.802 233.765 310.796 233.633 311.774C233.502 312.751 233.083 313.668 232.431 314.407C231.778 315.147 230.921 315.677 229.967 315.93C229.014 316.182 228.007 316.147 227.073 315.828C226.14 315.508 225.323 314.919 224.724 314.135C224.126 313.352 223.773 312.408 223.711 311.424C223.649 310.439 223.881 309.459 224.376 308.606C224.872 307.753 225.609 307.066 226.495 306.632C227.083 306.344 227.723 306.174 228.377 306.133C229.031 306.092 229.686 306.18 230.306 306.392C230.926 306.604 231.498 306.936 231.989 307.369C232.481 307.802 232.882 308.328 233.17 308.916Z" fill="white" stroke="#2A1B3F" stroke-linecap="round" stroke-linejoin="round"/>
<path d="M230.601 310.178C230.783 310.553 230.85 310.974 230.793 311.388C230.736 311.801 230.558 312.189 230.281 312.501C230.004 312.814 229.641 313.037 229.238 313.144C228.834 313.251 228.408 313.235 228.013 313.1C227.618 312.965 227.272 312.716 227.018 312.384C226.765 312.053 226.615 311.654 226.588 311.237C226.561 310.821 226.658 310.406 226.866 310.044C227.075 309.683 227.386 309.391 227.76 309.206C228.266 308.959 228.849 308.923 229.381 309.105C229.914 309.287 230.352 309.673 230.601 310.178Z" fill="white" stroke="#2A1B3F" stroke-linecap="round" stroke-linejoin="round"/>
<path d="M229.766 326.203C229.766 326.203 241.73 334.785 256.148 329.998" stroke="#2A1B3F" stroke-linecap="round" stroke-linejoin="round"/>
<path d="M271.991 315.695C271.991 315.695 268.575 322.715 264.117 325.741" stroke="#2A1B3F" stroke-linecap="round" stroke-linejoin="round"/>
<path d="M277.546 332.44C277.546 332.44 275.358 330.981 272.097 332.527L251.908 342.143C251.567 342.245 251.249 342.413 250.973 342.637C250.697 342.861 250.468 343.138 250.299 343.451C250.13 343.764 250.025 344.107 249.989 344.461C249.952 344.814 249.987 345.172 250.089 345.512L257.155 369.11C257.257 369.45 257.425 369.768 257.649 370.044C257.874 370.319 258.151 370.548 258.464 370.717C258.777 370.886 259.121 370.991 259.475 371.027C259.829 371.063 260.186 371.029 260.527 370.926L283.043 360.212C283.752 360 285.256 356.734 285.256 356.734L277.546 332.44Z" fill="white" stroke="#2A1B3F" stroke-linecap="round" stroke-linejoin="round"/>
<path d="M285.387 355.008C285.477 355.311 285.507 355.628 285.475 355.942C285.443 356.257 285.349 356.561 285.199 356.839C285.049 357.117 284.846 357.363 284.601 357.562C284.355 357.762 284.074 357.911 283.771 358.001L263.76 367.524C263.149 367.706 262.49 367.639 261.929 367.336C261.367 367.034 260.949 366.521 260.765 365.91L254.485 344.937C254.394 344.634 254.364 344.317 254.396 344.003C254.428 343.688 254.522 343.383 254.672 343.105C254.822 342.827 255.025 342.581 255.27 342.382C255.515 342.182 255.797 342.033 256.1 341.942L276.11 332.419C276.413 332.329 276.73 332.298 277.045 332.33C277.359 332.362 277.664 332.455 277.942 332.605C278.22 332.755 278.466 332.958 278.665 333.202C278.865 333.447 279.014 333.729 279.105 334.031L285.387 355.008Z" fill="white" stroke="#2A1B3F" stroke-linecap="round" stroke-linejoin="round"/>
<path d="M258.987 370.332L261.801 367.261" stroke="#2A1B3F" stroke-linecap="round" stroke-linejoin="round"/>
<path d="M250.266 343.512L254.436 343.763" stroke="#2A1B3F" stroke-linecap="round" stroke-linejoin="round"/>
<path d="M740.593 314.609C742.52 328.542 748.716 334.241 743.947 338.43C737.92 343.732 730.762 339.726 729.104 333.488C727.446 327.25 727.542 314.346 727.542 314.346C727.542 314.346 729.661 293.932 731.844 291.463L743.256 289.91C744.527 292.968 740.301 312.513 740.593 314.609Z" fill="#B3BDDE" stroke="#2A1B3F" stroke-linecap="round" stroke-linejoin="round"/>
<path d="M731.841 291.463L731.898 286.535L743.307 284.959L743.252 289.913L731.841 291.463Z" fill="white" stroke="#2A1B3F" stroke-linecap="round" stroke-linejoin="round"/>
<path d="M735.833 275.974C737.516 276.098 741.565 278.523 741.565 278.523C741.565 278.523 743.137 275.282 744.885 276.134C747.292 277.308 742.379 282.714 741.39 285.384L732.924 286.554C732.924 286.554 732.706 284.913 731.896 280.446C731.559 278.582 731.555 276.888 731.959 275.43C733.235 275.709 734.53 275.891 735.833 275.974Z" fill="white" stroke="#2A1B3F" stroke-linecap="round" stroke-linejoin="round"/>
<path d="M770.827 344.154C770.827 344.154 785.457 352.407 778.223 370.014C770.989 387.621 769.8 396.968 749.856 391.944C737.914 388.932 736.069 361.344 745.919 348.559C752.516 339.991 770.827 344.154 770.827 344.154Z" fill="white" stroke="#2A1B3F" stroke-linecap="round" stroke-linejoin="round"/>
<path d="M711.615 378.821C715.207 364.282 724.588 329.086 734.681 328.612C740.454 328.337 764.902 337.805 764.902 337.805C766.135 339.647 767.464 341.422 768.883 343.123C776.662 352.703 758.99 380.017 750.411 395.343C741.102 412.845 732.46 435.926 732.46 435.926L721.596 433.238C721.596 433.238 723.843 428.391 724.163 419.334C724.505 409.605 727.131 397.602 728.658 392.4C725.195 397.369 713.083 416.472 713.083 416.472L698.087 428.816C698.087 428.816 708.027 393.352 711.615 378.821Z" fill="#B3BDDE" stroke="#2A1B3F" stroke-linecap="round" stroke-linejoin="round"/>
<path d="M697.683 428.978L700.648 411.7C700.648 411.7 701.279 413.625 706.518 415.637C709.724 416.869 714.387 416.991 714.387 416.991C714.387 416.991 712.532 420.064 712.32 424.683C712.108 429.303 713.847 434.556 713.847 434.556L689.269 443.104C684.742 437.857 686.723 430.176 697.683 428.978Z" fill="white" stroke="#2A1B3F" stroke-linecap="round" stroke-linejoin="round"/>
<path d="M689.792 444.744C690.351 444.551 690.526 445.058 691.086 444.862C691.646 444.666 691.474 444.16 692.029 443.978C692.583 443.795 692.764 444.288 693.32 444.094C693.876 443.899 693.708 443.392 694.262 443.21C694.817 443.027 694.995 443.519 695.554 443.326C696.113 443.132 695.94 442.627 696.494 442.441C697.047 442.255 697.229 442.751 697.789 442.555C698.349 442.359 698.175 441.856 698.731 441.671C699.287 441.486 699.463 441.983 700.023 441.787C700.583 441.591 700.407 441.087 700.962 440.902C701.518 440.717 701.699 441.21 702.254 441.018C702.809 440.827 702.64 440.32 703.194 440.133C703.747 439.947 703.929 440.444 704.488 440.25C705.047 440.057 704.873 439.548 705.427 439.365C705.982 439.183 706.163 439.676 706.719 439.482C707.275 439.287 707.105 438.783 707.661 438.598C708.217 438.412 708.394 438.907 708.952 438.716C709.51 438.526 709.339 438.015 709.891 437.831C710.444 437.648 710.627 438.142 711.183 437.947C711.739 437.753 711.569 437.249 712.125 437.063C712.681 436.878 712.859 437.377 713.416 437.182C713.972 436.988 713.802 436.483 714.355 436.297L713.79 434.656L689.223 443.112L689.792 444.744Z" fill="white" stroke="#2A1B3F" stroke-linecap="round" stroke-linejoin="round"/>
<path d="M720.165 437.617L723.13 420.339C723.13 420.339 723.761 422.263 729 424.276C732.206 425.508 736.869 425.63 736.869 425.63C736.869 425.63 735.012 428.701 734.802 433.322C734.593 437.942 736.323 443.193 736.323 443.193L711.741 451.738C707.229 446.497 709.205 438.814 720.165 437.617Z" fill="white" stroke="#2A1B3F" stroke-linecap="round" stroke-linejoin="round"/>
<path d="M712.284 453.385C712.843 453.192 713.018 453.698 713.578 453.502C714.138 453.306 713.966 452.801 714.521 452.618C715.076 452.436 715.253 452.928 715.812 452.734C716.371 452.541 716.2 452.033 716.755 451.85C717.309 451.668 717.487 452.16 718.046 451.966C718.605 451.773 718.433 451.268 718.986 451.081C719.539 450.895 719.721 451.392 720.281 451.196C720.841 451 720.668 450.497 721.221 450.311C721.774 450.125 721.955 450.624 722.515 450.428C723.075 450.232 722.899 449.728 723.455 449.543C724.01 449.358 724.191 449.851 724.746 449.659C725.301 449.467 725.133 448.96 725.686 448.774C726.239 448.588 726.421 449.084 726.977 448.89C727.533 448.696 727.365 448.189 727.92 448.006C728.474 447.824 728.655 448.317 729.211 448.122C729.767 447.928 729.598 447.423 730.153 447.238C730.709 447.053 730.886 447.548 731.444 447.357C732.002 447.166 731.829 446.654 732.386 446.473C732.944 446.292 733.119 446.782 733.678 446.589C734.237 446.396 734.062 445.889 734.617 445.704C735.173 445.519 735.349 446.016 735.908 445.823C736.467 445.629 736.292 445.123 736.848 444.938L736.282 443.297L711.715 451.752L712.284 453.385Z" fill="white" stroke="#2A1B3F" stroke-linecap="round" stroke-linejoin="round"/>
<path d="M759.6 370.552C761.688 356.634 763.113 346.739 763.113 346.739C770.385 343.362 776.114 349.243 775.945 355.692C775.776 362.141 773.866 373.388 773.348 374.753C770.814 381.396 766.171 391.466 763.022 392.424L752.501 387.759C753.011 384.475 759.286 372.646 759.6 370.552Z" fill="#B3BDDE" stroke="#2A1B3F" stroke-linecap="round" stroke-linejoin="round"/>
<path d="M763.012 392.417L760.387 396.59L749.855 391.945L752.493 387.747L763.012 392.417Z" fill="white" stroke="#2A1B3F" stroke-linecap="round" stroke-linejoin="round"/>
<path d="M759.539 396.041C759.539 396.041 758.868 397.553 757.216 401.788C755.564 406.022 752.842 408.44 748.276 407.611C743.71 406.782 742.576 404.655 745.027 401.098C745.936 399.784 747.983 398.355 747.983 398.355C747.983 398.355 744.947 400.304 743.905 398.658C742.471 396.39 749.48 394.361 751.718 392.604L759.539 396.041Z" fill="white" stroke="#2A1B3F" stroke-linecap="round" stroke-linejoin="round"/>
<path d="M750.789 399.789C750.789 399.789 746.888 404.209 744.124 405.589" stroke="#2A1B3F" stroke-linecap="round" stroke-linejoin="round"/>
<path d="M746.596 407.211C746.596 407.211 749.561 406.319 752.742 400.959" stroke="#2A1B3F" stroke-linecap="round" stroke-linejoin="round"/>
<path d="M749.925 407.78C749.925 407.78 753.314 405.575 754.71 401.578" stroke="#2A1B3F" stroke-linecap="round" stroke-linejoin="round"/>
<path d="M787.14 337.847C787.14 337.847 781.132 343.95 776.702 345.008C772.271 346.066 778.22 349.953 776.802 351.588C774.717 354.03 760.993 352.867 752.952 347.35C736.845 336.287 733.518 328.245 733.518 328.245C736.216 321.223 742.841 323.017 742.841 323.017C742.841 323.017 743.825 319.719 745.9 318.896L787.14 337.847Z" fill="white" stroke="#2A1B3F" stroke-linecap="round" stroke-linejoin="round"/>
<path d="M759.064 291.708C754.541 294.542 750.955 298.654 748.761 303.525C746.567 308.396 745.862 313.807 746.737 319.074C747.611 324.341 750.025 329.227 753.673 333.114C757.321 337.002 762.04 339.716 767.232 340.913C772.425 342.111 777.858 341.739 782.844 339.843C787.831 337.947 792.147 334.614 795.247 330.264C798.347 325.914 800.092 320.742 800.26 315.404C800.429 310.066 799.014 304.8 796.194 300.273C794.321 297.267 791.876 294.66 788.997 292.603C786.117 290.546 782.861 289.077 779.413 288.282C775.965 287.487 772.393 287.38 768.902 287.968C765.41 288.556 762.067 289.827 759.064 291.708Z" fill="white" stroke="#2A1B3F" stroke-linecap="round" stroke-linejoin="round"/>
<path d="M787.536 306.474C786.491 324.3 773.45 331.006 773.45 331.006C773.45 331.006 746.874 329.148 749.65 301.744C749.65 301.744 753.727 292.435 763.629 288.685C773.53 284.935 782.731 288.694 782.731 288.694C782.731 288.694 788.217 294.851 787.536 306.474Z" fill="#2A1B3F"/>
<path d="M747.137 308.287C747.422 333.907 775.434 334.196 775.434 334.196C775.434 334.196 798.865 316.282 787.86 291.817" stroke="#2A1B3F" stroke-linecap="round" stroke-linejoin="round"/>
<path d="M781.546 316.607C779.973 321.299 774.294 326.247 772.268 325.148C770.242 324.049 776.963 318.896 777.59 314.645C778.242 310.173 783.134 311.859 781.546 316.607Z" fill="#F7F4FF"/>
<path d="M784.979 308.903C785.053 309.459 784.906 310.023 784.568 310.472C784.231 310.921 783.732 311.22 783.177 311.304L782.954 311.336C782.677 311.377 782.395 311.363 782.124 311.294C781.854 311.226 781.599 311.104 781.376 310.936C781.152 310.769 780.964 310.559 780.822 310.318C780.679 310.077 780.586 309.81 780.547 309.533C780.509 309.256 780.525 308.973 780.595 308.702C780.666 308.431 780.789 308.177 780.958 307.953C781.126 307.73 781.338 307.542 781.579 307.4C781.82 307.259 782.087 307.166 782.364 307.128L782.584 307.098C783.141 307.022 783.704 307.17 784.152 307.507C784.6 307.845 784.897 308.346 784.979 308.903Z" fill="#F7F4FF"/>
<path d="M754.199 303.013C754.352 302.991 754.508 303.004 754.656 303.05C754.803 303.097 754.938 303.176 755.051 303.282C755.163 303.388 755.25 303.518 755.305 303.663C755.361 303.808 755.382 303.963 755.369 304.117C755.201 306.003 756.266 312.297 753.191 312.455C750.835 312.571 750.484 310.144 750.965 307.817C750.971 305.53 751.872 303.225 754.199 303.013Z" fill="#F7F4FF"/>
<path d="M778.562 337.538C781.318 339.261 786.694 339.825 791.434 337.709C794.856 336.185 796.599 332.637 794.642 331.106C794.642 331.106 788.412 338.806 779.991 333.658L778.562 337.538Z" fill="white" stroke="#2A1B3F" stroke-linecap="round" stroke-linejoin="round"/>
<path d="M773.536 330.022C772.712 330.399 772.018 331.013 771.542 331.785C771.066 332.556 770.829 333.452 770.86 334.358C770.892 335.264 771.191 336.14 771.719 336.875C772.248 337.61 772.983 338.171 773.83 338.487C774.678 338.803 775.601 338.86 776.481 338.651C777.362 338.442 778.162 337.975 778.779 337.311C779.396 336.647 779.803 335.815 779.949 334.919C780.094 334.024 779.972 333.106 779.596 332.282C779.347 331.734 778.993 331.241 778.554 330.831C778.115 330.421 777.599 330.102 777.036 329.892C776.473 329.683 775.874 329.586 775.274 329.608C774.673 329.63 774.082 329.771 773.536 330.022Z" fill="white" stroke="#2A1B3F" stroke-linecap="round" stroke-linejoin="round"/>
<path d="M774.628 332.427C774.278 332.588 773.983 332.849 773.78 333.177C773.578 333.506 773.477 333.887 773.491 334.273C773.505 334.658 773.632 335.031 773.857 335.343C774.083 335.656 774.395 335.894 774.756 336.028C775.117 336.163 775.509 336.187 775.884 336.097C776.259 336.008 776.599 335.809 776.861 335.527C777.124 335.244 777.297 334.89 777.358 334.509C777.42 334.128 777.368 333.737 777.208 333.387C777.102 333.154 776.951 332.944 776.764 332.77C776.576 332.596 776.357 332.46 776.117 332.371C775.878 332.282 775.623 332.241 775.367 332.25C775.112 332.26 774.861 332.32 774.628 332.427Z" fill="white" stroke="#2A1B3F" stroke-linecap="round" stroke-linejoin="round"/>
<path d="M775.922 345.297C775.922 345.297 762.918 348.97 752.002 340.328" stroke="#2A1B3F" stroke-linecap="round" stroke-linejoin="round"/>
<path d="M742.844 323.013C742.844 323.013 743.574 330.147 746.472 334.151" stroke="#2A1B3F" stroke-linecap="round" stroke-linejoin="round"/>
<path d="M726.391 343.96C726.391 343.96 728.494 342.774 731.363 344.418L749.147 354.612C749.451 354.729 749.73 354.904 749.966 355.129C750.202 355.353 750.392 355.622 750.525 355.921C750.657 356.219 750.73 356.54 750.738 356.867C750.746 357.193 750.69 357.519 750.573 357.824L742.452 378.959C742.216 379.575 741.744 380.073 741.142 380.341C740.54 380.61 739.857 380.628 739.242 380.392L719.413 369.036C718.78 368.792 717.635 365.698 717.635 365.698L726.391 343.96Z" fill="white" stroke="#2A1B3F" stroke-linecap="round" stroke-linejoin="round"/>
<path d="M717.631 364.096C717.422 364.643 717.438 365.252 717.675 365.787C717.913 366.322 718.353 366.741 718.899 366.95L736.518 377.047C737.064 377.256 737.671 377.24 738.205 377.002C738.74 376.763 739.158 376.321 739.368 375.774L746.585 356.992C746.795 356.445 746.78 355.837 746.542 355.302C746.305 354.767 745.865 354.348 745.32 354.139L727.702 344.039C727.431 343.936 727.143 343.886 726.853 343.894C726.563 343.902 726.277 343.966 726.012 344.085C725.747 344.203 725.508 344.372 725.308 344.583C725.108 344.794 724.952 345.042 724.848 345.314L717.631 364.096Z" fill="white" stroke="#2A1B3F" stroke-linecap="round" stroke-linejoin="round"/>
<path d="M740.683 379.95L738.327 376.942" stroke="#2A1B3F" stroke-linecap="round" stroke-linejoin="round"/>
<path d="M750.555 355.98L746.727 355.924" stroke="#2A1B3F" stroke-linecap="round" stroke-linejoin="round"/>
<path d="M729.163 276.586C730.12 279.758 732.676 281.095 736.395 280.521C740.984 279.817 742.629 277.38 739.834 274.094L742.268 276.023C741.171 270.306 739.217 270.094 732.868 271.375C729.319 272.08 728.582 274.631 729.163 276.586Z" fill="white" stroke="#2A1B3F" stroke-linecap="round" stroke-linejoin="round"/>
<path d="M735.972 273.598C735.972 273.598 735.76 276.803 740.436 278.525" stroke="#2A1B3F" stroke-linecap="round" stroke-linejoin="round"/>
<path d="M738.08 280.165C738.08 280.165 734.003 279.147 733.446 274.12" stroke="#2A1B3F" stroke-linecap="round" stroke-linejoin="round"/>
<path d="M734.735 280.635C734.735 280.635 730.222 278.253 731.042 274.132" stroke="#2A1B3F" stroke-linecap="round" stroke-linejoin="round"/>
<g opacity="0.45">
<path d="M120.861 235.121C120.845 235.121 120.83 235.115 120.819 235.103C120.807 235.092 120.801 235.077 120.801 235.061C120.801 235.044 120.807 235.029 120.819 235.018C120.83 235.006 120.845 235 120.861 235C120.877 235 120.893 235.006 120.904 235.018C120.916 235.029 120.922 235.044 120.922 235.061C120.922 235.077 120.916 235.092 120.904 235.103C120.893 235.115 120.877 235.121 120.861 235.121Z" fill="#2A1B3F"/>
<path d="M127.951 271.172C127.084 271.172 126.221 271.245 125.358 271.197C124.416 271.147 123.474 271.09 122.548 271.024C120.508 270.886 118.467 270.772 116.424 270.672C111.806 270.451 107.185 270.307 102.567 270.187C97.6671 270.061 92.7668 269.96 87.8666 269.853C83.1829 269.751 78.4982 269.652 73.8124 269.558C69.8382 269.469 65.864 269.381 61.8835 269.243C61.4628 269.227 61.0516 269.192 60.6278 269.145C60.4003 269.138 60.184 269.044 60.023 268.883C59.862 268.722 59.7685 268.505 59.7614 268.277C59.7654 268.047 59.858 267.829 60.0196 267.667C60.1813 267.505 60.3993 267.412 60.6278 267.408C62.4266 267.345 64.2442 267.493 66.0461 267.55C68.1075 267.612 70.1699 267.669 72.2334 267.719C76.8606 267.835 81.4867 267.946 86.1118 268.053C91.012 268.176 95.9123 268.314 100.813 268.509C105.521 268.698 110.208 268.915 114.901 269.208C116.992 269.34 119.086 269.485 121.18 269.655C123.063 269.806 124.981 269.897 126.808 270.348C127.21 270.445 127.612 270.54 128.017 270.631C128.079 270.65 128.133 270.691 128.168 270.747C128.203 270.802 128.217 270.869 128.208 270.934C128.199 270.999 128.167 271.058 128.119 271.102C128.07 271.146 128.007 271.171 127.941 271.172H127.951Z" fill="#2A1B3F"/>
<path d="M127.575 270.673L127.556 270.767C127.561 270.686 127.572 270.605 127.587 270.525C127.635 270.37 127.716 270.228 127.826 270.109C127.993 269.957 128.179 269.826 128.378 269.719C128.454 269.672 128.529 269.622 128.601 269.568C128.601 269.568 128.833 269.398 128.711 269.493C128.846 269.389 128.975 269.275 129.1 269.178C129.226 269.08 129.336 268.951 129.446 268.828C129.499 268.772 129.552 268.712 129.603 268.649C129.653 268.586 129.782 268.426 129.656 268.589C129.837 268.35 129.996 268.095 130.133 267.828C130.168 267.765 130.334 267.362 130.249 267.595C130.296 267.462 130.347 267.33 130.387 267.195C130.466 266.927 130.525 266.653 130.566 266.377C130.595 266.081 130.566 266.317 130.566 266.377C130.566 266.307 130.566 266.241 130.588 266.172C130.61 266.103 130.588 265.945 130.604 265.832C130.62 265.719 130.604 265.558 130.604 265.423C130.604 265.357 130.604 265.288 130.588 265.221C130.573 265.155 130.535 264.847 130.588 265.149C130.55 264.906 130.499 264.666 130.434 264.428C130.4 264.299 130.359 264.17 130.318 264.044C130.296 263.985 130.271 263.922 130.249 263.859C130.152 263.597 130.296 263.944 130.221 263.793C130.114 263.575 130.011 263.361 129.885 263.163C129.819 263.053 129.75 262.946 129.675 262.848L129.562 262.694C129.722 262.908 129.599 262.741 129.562 262.694C129.4 262.504 129.226 262.326 129.041 262.159L128.903 262.039C129.088 262.159 128.742 261.895 128.903 262.039C128.802 261.973 128.705 261.901 128.589 261.838C128.472 261.775 128.381 261.718 128.275 261.668L128.115 261.593C128.372 261.715 128.19 261.624 128.115 261.593C127.892 261.517 127.665 261.46 127.433 261.419C127.747 261.476 127.311 261.419 127.217 261.419C127.123 261.419 126.972 261.435 126.853 261.438C127.076 261.382 126.636 261.438 126.853 261.438C126.771 261.46 126.686 261.473 126.605 261.492C126.454 261.53 126.313 261.586 126.165 261.633C125.949 261.703 126.347 261.53 126.143 261.633L125.923 261.744L125.5 261.973C125.167 262.156 124.737 262.316 124.47 262.461C124.345 262.53 124.202 262.557 124.061 262.537C123.92 262.517 123.789 262.451 123.689 262.351C123.588 262.25 123.523 262.119 123.503 261.977C123.483 261.836 123.51 261.692 123.578 261.567C123.735 261.202 123.96 260.869 124.241 260.588C124.528 260.329 124.85 260.112 125.198 259.943C125.824 259.639 126.509 259.476 127.204 259.465C128.458 259.493 129.653 260.006 130.538 260.897C131.5 261.837 132.152 263.05 132.407 264.373C132.663 265.695 132.509 267.064 131.966 268.296C131.625 269.019 131.145 269.668 130.554 270.204C130.215 270.511 129.851 270.788 129.464 271.032C129.27 271.155 129.069 271.267 128.862 271.368C128.68 271.461 128.478 271.503 128.275 271.491C128.093 271.491 127.961 271.362 127.804 271.334C127.739 271.315 127.68 271.282 127.63 271.238C127.58 271.193 127.541 271.137 127.516 271.075C127.49 271.013 127.479 270.946 127.484 270.879C127.488 270.812 127.507 270.747 127.54 270.689L127.575 270.673Z" fill="#2A1B3F"/>
<path d="M126.018 260.936C126.091 260.296 126.26 259.671 126.518 259.082C126.724 258.593 126.894 258.089 127.026 257.574C127.086 257.342 127.136 257.105 127.18 256.869L127.208 256.693C127.208 256.693 127.249 256.422 127.23 256.548C127.211 256.674 127.23 256.473 127.23 256.451C127.23 256.366 127.246 256.281 127.255 256.193C127.297 255.703 127.302 255.21 127.271 254.72C127.271 254.597 127.252 254.474 127.24 254.351L127.221 254.188C127.202 254.027 127.262 254.411 127.221 254.156C127.18 253.901 127.139 253.678 127.083 253.442C126.973 252.99 126.829 252.547 126.653 252.117C126.593 251.969 126.75 252.321 126.653 252.092C126.627 252.044 126.609 251.994 126.587 251.947C126.565 251.9 126.496 251.758 126.449 251.664C126.335 251.44 126.213 251.223 126.084 251.009C125.956 250.795 125.846 250.631 125.717 250.449L125.532 250.194C125.664 250.376 125.438 250.08 125.391 250.024C125.087 249.661 124.76 249.318 124.411 248.998C124.245 248.847 124.075 248.702 123.899 248.56C123.724 248.419 123.994 248.623 123.79 248.478C123.683 248.4 123.576 248.321 123.476 248.249C123.092 247.984 122.692 247.745 122.277 247.534C122.063 247.427 121.846 247.323 121.627 247.219C121.837 247.311 121.586 247.219 121.504 247.175C121.423 247.131 121.253 247.081 121.128 247.037C120.671 246.879 120.204 246.753 119.731 246.659C119.517 246.618 119.304 246.587 119.103 246.552C119.272 246.568 118.839 246.508 119.103 246.552C119.046 246.552 118.993 246.552 118.94 246.533L118.535 246.499C118.056 246.464 117.575 246.464 117.097 246.499L116.723 246.533C116.661 246.533 116.469 246.571 116.723 246.533L116.557 246.558C116.309 246.599 116.058 246.65 115.813 246.71C115.568 246.769 115.257 246.854 114.987 246.946C114.849 246.993 114.711 247.04 114.576 247.094L114.413 247.156C114.14 247.26 114.598 247.068 114.331 247.191C113.774 247.442 113.238 247.737 112.727 248.072C112.46 248.249 112.206 248.444 111.949 248.636L111.792 248.749C111.77 248.765 111.556 248.932 111.672 248.837C111.553 248.932 111.437 249.029 111.321 249.13C111.054 249.357 110.809 249.599 110.555 249.838C110.248 250.097 109.906 250.309 109.538 250.468C109.447 250.528 109.34 250.56 109.231 250.559C109.122 250.558 109.016 250.524 108.926 250.462C108.836 250.4 108.767 250.313 108.727 250.211C108.687 250.11 108.679 249.998 108.703 249.892C108.758 249.552 108.87 249.224 109.035 248.922C109.254 248.597 109.501 248.291 109.773 248.009C110.227 247.5 110.731 247.037 111.277 246.628C112.249 245.904 113.328 245.337 114.476 244.95C116.577 244.243 118.843 244.191 120.974 244.802C125.143 246.011 128.508 249.542 129.051 253.911C129.2 255.147 129.111 256.4 128.79 257.603C128.426 258.994 127.874 260.495 126.612 261.292C126.55 261.327 126.481 261.345 126.41 261.345C126.34 261.345 126.27 261.326 126.209 261.291C126.148 261.256 126.097 261.205 126.061 261.144C126.025 261.082 126.006 261.013 126.006 260.942L126.018 260.936Z" fill="#2A1B3F"/>
<path d="M116.769 255.43C116.43 255.03 116.016 254.769 115.658 254.401C115.276 253.998 114.863 253.624 114.424 253.283C114.004 252.969 113.508 252.717 113.059 252.443C112.549 252.128 112.02 251.848 111.473 251.603C111.351 251.546 111.247 251.505 111.232 251.499C111.09 251.439 110.946 251.386 110.802 251.332C110.516 251.228 110.227 251.134 109.935 251.052C109.643 250.97 109.417 250.917 109.154 250.86L108.764 250.788L108.566 250.759C108.548 250.759 108.227 250.718 108.46 250.759C107.92 250.694 107.376 250.68 106.834 250.718L106.601 250.74C106.78 250.712 106.432 250.74 106.601 250.74L106.234 250.806C105.963 250.863 105.697 250.939 105.437 251.033L105.22 251.118C105.418 251.02 105.261 251.102 105.22 251.118C105.11 251.175 104.997 251.225 104.887 251.285C104.777 251.345 104.671 251.411 104.573 251.477C104.476 251.543 104.143 251.773 104.338 251.631C103.729 252.078 102.627 252.815 102.1 251.839C101.613 250.945 102.561 250.083 103.23 249.636C103.744 249.304 104.3 249.045 104.884 248.865C107.226 248.122 109.747 248.695 111.907 249.724C112.507 250.013 113.086 250.344 113.639 250.715C114.211 251.107 114.744 251.553 115.231 252.047C115.674 252.462 116.093 252.902 116.487 253.365C116.847 253.861 117.134 254.406 117.341 254.983C117.491 255.336 117.052 255.798 116.75 255.439L116.769 255.43Z" fill="#2A1B3F"/>
<path d="M107.105 250.049C107.076 249.514 107.13 248.978 107.265 248.46C107.312 248.218 107.356 247.978 107.4 247.739C107.4 247.739 107.438 247.497 107.4 247.645C107.362 247.793 107.4 247.563 107.4 247.553C107.4 247.428 107.425 247.299 107.432 247.173C107.443 246.957 107.443 246.74 107.432 246.524C107.432 246.411 107.432 246.298 107.41 246.188C107.41 246.143 107.41 246.096 107.41 246.052C107.41 245.851 107.45 246.26 107.41 246.011C107.334 245.566 107.221 245.128 107.071 244.702L106.967 244.422C106.948 244.371 106.923 244.321 106.904 244.268C106.989 244.507 106.958 244.387 106.932 244.331C106.829 244.11 106.725 243.89 106.619 243.676C106.512 243.462 106.418 243.327 106.305 243.157L106.116 242.876C106.072 242.817 105.802 242.461 105.994 242.706C105.707 242.346 105.399 242.003 105.071 241.68C104.911 241.526 104.757 241.366 104.578 241.23L104.333 241.023L104.167 240.89C104.289 240.991 104.267 240.966 104.167 240.89C103.385 240.311 102.543 239.817 101.655 239.417C101.596 239.392 101.207 239.229 101.514 239.354L101.166 239.197C100.94 239.109 100.707 239.027 100.475 238.952C100.012 238.801 99.5416 238.674 99.0656 238.571C98.827 238.524 98.5885 238.479 98.3499 238.442C98.3059 238.442 98.2526 238.423 98.2055 238.42C98.5414 238.42 98.2965 238.42 98.2212 238.42L97.8633 238.382C97.3917 238.337 96.9178 238.323 96.4444 238.338C96.2121 238.338 95.9798 238.36 95.7475 238.385C95.6533 238.385 95.2609 238.385 95.6408 238.385C95.5149 238.396 95.3901 238.416 95.2672 238.445C94.8203 238.526 94.3797 238.638 93.9487 238.782L93.6003 238.904L93.4433 238.967C93.6945 238.848 93.3806 238.986 93.4433 238.967C93.1922 239.087 93.0007 239.181 92.7841 239.304C92.5681 239.427 92.3585 239.562 92.1563 239.707C92.1003 239.743 92.0469 239.783 91.9962 239.827C92.0966 239.729 92.15 239.698 92.015 239.827C91.88 239.956 91.8235 239.99 91.7325 240.075C91.3554 240.444 91.0021 240.836 90.6746 241.249C90.6369 241.293 90.5992 241.344 90.5584 241.388L90.6149 241.312L90.527 241.432C90.414 241.583 90.2979 241.728 90.1723 241.866C89.9745 242.086 89.7736 242.297 89.5884 242.527C89.2023 243.012 88.2605 242.625 88.3327 242.001C88.376 241.339 88.5465 240.691 88.835 240.094C89.1115 239.591 89.4582 239.13 89.8647 238.725C90.5807 237.975 91.4331 237.369 92.376 236.94C94.4416 236.015 96.6798 235.892 98.8898 236.264C103.021 236.956 107.224 239.606 108.832 243.603C109.247 244.661 109.409 245.802 109.306 246.933C109.199 248.155 108.869 249.735 107.714 250.396C107.653 250.43 107.584 250.447 107.514 250.447C107.444 250.447 107.375 250.428 107.314 250.393C107.253 250.358 107.202 250.309 107.166 250.248C107.13 250.188 107.11 250.12 107.108 250.049H107.105Z" fill="#2A1B3F"/>
<path d="M89.3274 242.414C89.0909 242.397 88.8565 242.358 88.6273 242.297C88.3281 242.193 88.0441 242.049 87.7829 241.869C87.3553 241.576 86.912 241.306 86.455 241.06C86.251 240.95 86.0438 240.843 85.8272 240.746L85.5133 240.604L85.4065 240.557L85.2998 240.513C84.8648 240.339 84.4205 240.19 83.9688 240.066C83.5324 239.946 83.0898 239.874 82.6472 239.786C82.5216 239.764 82.7037 239.786 82.7162 239.786L82.5436 239.764L82.2297 239.729C82.0204 239.71 81.8111 239.698 81.6018 239.691C81.1829 239.676 80.7634 239.689 80.3462 239.729L80.0165 239.764C80.2112 239.745 80.1296 239.764 79.9946 239.764C79.7811 239.798 79.5676 239.842 79.3667 239.893C78.9734 239.984 78.5865 240.101 78.2084 240.242L77.9447 240.346C77.8191 240.39 78.0483 240.299 78.0483 240.302L77.9007 240.365C77.7061 240.453 77.5146 240.547 77.3263 240.645C76.9836 240.824 76.6523 241.023 76.3343 241.243L76.1051 241.407L75.9764 241.504C75.9984 241.485 76.1993 241.325 76.036 241.46C75.8728 241.595 75.7221 241.718 75.5777 241.854C75.2783 242.131 74.9973 242.427 74.7364 242.741C74.6736 242.814 74.614 242.892 74.5543 242.965C74.7019 242.785 74.6109 242.889 74.523 243.012C74.4005 243.182 74.2812 243.355 74.1682 243.531C73.935 243.894 73.7253 244.271 73.5404 244.661C73.4965 244.752 73.4588 244.847 73.4117 244.938C73.3364 245.095 73.4933 244.718 73.4368 244.881C73.4368 244.922 73.4054 244.963 73.3897 245.004C73.3018 245.228 73.2202 245.454 73.148 245.684C72.9914 246.173 72.8677 246.673 72.7776 247.179C72.7525 247.321 72.7305 247.462 72.7085 247.607C72.7085 247.639 72.6865 247.802 72.7085 247.629C72.7305 247.456 72.7085 247.742 72.7085 247.752C72.6803 248.019 72.6583 248.284 72.6457 248.551C72.6175 249.146 72.6081 249.747 72.6206 250.342C72.6206 251.079 72.5233 251.784 71.9394 252.294C71.8506 252.376 71.7385 252.428 71.6186 252.443C71.4988 252.458 71.3772 252.436 71.2708 252.379C70.5236 252.064 70.2411 251.315 70.1469 250.559C70.0706 249.996 70.0412 249.428 70.059 248.86C70.0953 247.767 70.2554 246.681 70.5362 245.624C71.0461 243.696 72.0404 241.931 73.4242 240.497C76.1428 237.74 80.2017 236.824 83.8934 237.86C84.9987 238.183 86.0579 238.647 87.0452 239.241C87.5785 239.555 88.0913 239.903 88.5802 240.283C88.8945 240.49 89.168 240.754 89.387 241.06C89.5543 241.348 89.6771 241.658 89.7512 241.983C89.766 242.042 89.7652 242.105 89.7488 242.164C89.7325 242.223 89.7011 242.277 89.6578 242.32C89.6145 242.364 89.5608 242.395 89.5017 242.411C89.4427 242.428 89.3805 242.429 89.3211 242.414H89.3274Z" fill="#2A1B3F"/>
<path d="M77.7934 253.186C76.9522 252.915 76.0836 252.738 75.2035 252.658C74.734 252.614 74.2619 252.604 73.7909 252.626C73.5523 252.626 73.3169 252.661 73.0783 252.689C73.2604 252.667 72.9433 252.714 72.9057 252.721C72.7707 252.743 72.6357 252.768 72.5007 252.799C72.0469 252.894 71.5985 253.013 71.1571 253.155C71.0535 253.186 70.9499 253.221 70.8432 253.259C70.7365 253.297 70.4948 253.4 70.7114 253.306C70.4967 253.4 70.2871 253.505 70.0835 253.621C69.9014 253.725 69.7288 253.838 69.5561 253.954C69.5122 253.983 69.4714 254.014 69.4306 254.046C69.6095 253.917 69.4934 253.992 69.4557 254.027C69.3584 254.112 69.2579 254.19 69.1669 254.279C69.0177 254.419 68.8762 254.567 68.7431 254.722L68.6458 254.842C68.7996 254.653 68.6834 254.795 68.6458 254.842C68.6081 254.889 68.5139 255.037 68.4543 255.135C68.3946 255.232 68.3256 255.361 68.2659 255.481L68.2 255.622C68.0839 255.862 68.2659 255.412 68.1843 255.667C68.1027 255.921 68.0179 256.136 67.952 256.375C67.7825 257.004 67.6381 257.634 67.2049 258.137C67.0962 258.245 66.9496 258.305 66.7968 258.305C66.644 258.305 66.4974 258.245 66.3887 258.137C65.4061 257.158 65.8707 255.522 66.4232 254.445C66.9399 253.489 67.6975 252.685 68.6207 252.113C70.5042 250.898 72.7895 250.716 74.9587 251.112C76.0946 251.306 77.1696 251.763 78.0979 252.447C78.4306 252.695 78.2548 253.341 77.7839 253.183L77.7934 253.186Z" fill="#2A1B3F"/>
<path d="M73.6647 260.782C73.3822 260.659 73.0903 260.571 72.8015 260.467C72.6822 260.42 72.566 260.36 72.4499 260.307C72.4122 260.288 72.183 260.193 72.3463 260.259L71.7184 260.008C71.888 260.077 71.7028 260.008 71.6337 259.976L71.3888 259.888C71.2256 259.836 71.0592 259.785 70.8897 259.737C70.5475 259.646 70.2022 259.586 69.8538 259.523C70.0641 259.561 69.9385 259.523 69.8035 259.523L69.5775 259.504C69.386 259.504 69.1945 259.472 69.0031 259.463C68.6423 259.443 68.2807 259.443 67.92 259.463L67.4115 259.501L67.1384 259.529C67.0568 259.529 66.9437 259.513 67.2169 259.529C67.1649 259.53 67.1132 259.538 67.063 259.551C66.702 259.614 66.3442 259.683 65.9894 259.775C65.6347 259.866 65.2894 259.973 64.9472 260.089L64.6929 260.187C64.6459 260.203 64.4198 260.316 64.5894 260.225C64.7589 260.133 64.4983 260.266 64.4544 260.285L64.1781 260.417C63.8619 260.571 63.5538 260.741 63.2552 260.927C63.1202 261.015 62.9852 261.103 62.8565 261.194L62.6462 261.345C62.6148 261.367 62.5081 261.452 62.6462 261.345C62.7843 261.238 62.6462 261.345 62.6054 261.383C62.35 261.593 62.1068 261.818 61.8771 262.057C61.7735 262.167 61.6762 262.28 61.5789 262.396L61.5161 262.475C61.3748 262.642 61.5946 262.374 61.5914 262.374C61.5883 262.374 61.4502 262.57 61.4345 262.595C61.2654 262.856 61.1123 263.127 60.9761 263.407C60.8757 263.605 61.0797 263.127 61.0044 263.334L60.9259 263.552C60.8718 263.708 60.8257 263.866 60.7878 264.027C60.769 264.112 60.7533 264.197 60.7376 264.285C60.6842 264.559 60.7376 264.187 60.7376 264.225C60.7376 264.405 60.7093 264.581 60.7125 264.76C60.7125 264.855 60.7125 264.946 60.7125 265.037C60.7125 265.128 60.7564 265.431 60.7125 265.169C60.6685 264.908 60.7125 265.207 60.7344 265.267C60.7505 265.363 60.7715 265.459 60.7972 265.553C60.8443 265.748 60.9102 265.937 60.9761 266.129C61.0107 266.23 61.0421 266.328 61.0797 266.444C61.0797 266.482 61.108 266.516 61.1205 266.554C61.1708 266.696 61.2493 266.686 61.0923 266.494C61.2529 266.75 61.3547 267.038 61.3905 267.338C61.4886 267.69 61.4962 268.062 61.4125 268.417C61.3526 268.615 61.2322 268.789 61.0682 268.915C60.9043 269.04 60.7051 269.111 60.499 269.116C59.2433 269.091 58.5307 267.659 58.2388 266.623C57.9914 265.742 57.9368 264.818 58.0787 263.914C58.3555 262.362 59.1651 260.957 60.3671 259.941C61.666 258.833 63.1908 258.022 64.8349 257.566C66.479 257.11 68.2026 257.019 69.8852 257.301C70.3065 257.388 70.7209 257.506 71.1251 257.653L71.4391 257.779L71.6274 257.858C71.4359 257.779 71.8032 257.933 71.8817 257.971C72.0732 258.062 72.2584 258.16 72.4405 258.267C73.2612 258.734 73.8881 259.48 74.2078 260.37C74.3302 260.706 73.9284 260.892 73.671 260.782H73.6647Z" fill="#2A1B3F"/>
</g>
<g opacity="0.45">
<path d="M246.861 62.121C246.845 62.121 246.83 62.1147 246.819 62.1033C246.807 62.092 246.801 62.0766 246.801 62.0605C246.801 62.0445 246.807 62.0291 246.819 62.0177C246.83 62.0064 246.845 62 246.861 62C246.877 62 246.893 62.0064 246.904 62.0177C246.916 62.0291 246.922 62.0445 246.922 62.0605C246.922 62.0766 246.916 62.092 246.904 62.1033C246.893 62.1147 246.877 62.121 246.861 62.121Z" fill="#2A1B3F"/>
<path d="M253.951 98.1722C253.084 98.1722 252.221 98.2446 251.358 98.1974C250.416 98.147 249.474 98.0904 248.548 98.0243C246.508 97.8858 244.467 97.7725 242.424 97.6718C237.806 97.4514 233.185 97.3066 228.567 97.187C223.667 97.0611 218.767 96.9604 213.867 96.8534C209.183 96.7506 204.498 96.652 199.812 96.5576C195.838 96.4694 191.864 96.3813 187.883 96.2428C187.463 96.2271 187.052 96.1925 186.628 96.1452C186.4 96.1381 186.184 96.0443 186.023 95.8829C185.862 95.7216 185.768 95.5047 185.761 95.2766C185.765 95.0474 185.858 94.8288 186.02 94.6668C186.181 94.5047 186.399 94.4119 186.628 94.4079C188.427 94.3449 190.244 94.4928 192.046 94.5495C194.107 94.6125 196.17 94.6691 198.233 94.7195C202.861 94.8349 207.487 94.9461 212.112 95.0531C217.012 95.1759 221.912 95.3143 226.813 95.5095C231.521 95.6983 236.208 95.9155 240.901 96.2082C242.992 96.3404 245.086 96.4852 247.18 96.6551C249.063 96.8062 250.981 96.8975 252.808 97.3476C253.21 97.4451 253.612 97.5396 254.017 97.6308C254.079 97.6503 254.133 97.6915 254.168 97.7469C254.203 97.8024 254.217 97.8685 254.208 97.9336C254.199 97.9986 254.167 98.0583 254.119 98.102C254.07 98.1457 254.007 98.1706 253.941 98.1722H253.951Z" fill="#2A1B3F"/>
<path d="M253.575 97.6728L253.556 97.7672C253.561 97.6859 253.572 97.605 253.587 97.5249C253.635 97.3702 253.716 97.2282 253.826 97.1094C253.993 96.9569 254.179 96.8258 254.378 96.7191C254.454 96.6719 254.529 96.6216 254.601 96.568C254.601 96.568 254.833 96.3981 254.711 96.4925C254.846 96.3886 254.975 96.2753 255.1 96.1778C255.226 96.0802 255.336 95.9512 255.446 95.8284C255.499 95.7718 255.552 95.712 255.603 95.649C255.653 95.5861 255.782 95.4255 255.656 95.5892C255.837 95.3497 255.996 95.0949 256.133 94.8275C256.168 94.7646 256.334 94.3617 256.249 94.5946C256.296 94.4624 256.347 94.3302 256.387 94.1949C256.466 93.9265 256.525 93.6531 256.566 93.3766C256.595 93.0807 256.566 93.3168 256.566 93.3766C256.566 93.3073 256.566 93.2412 256.588 93.172C256.61 93.1027 256.588 92.9454 256.604 92.8321C256.62 92.7188 256.604 92.5582 256.604 92.4229C256.604 92.3568 256.604 92.2876 256.588 92.2215C256.573 92.1554 256.535 91.8469 256.588 92.1491C256.55 91.9062 256.499 91.6656 256.434 91.4283C256.4 91.2993 256.359 91.1702 256.318 91.0443C256.296 90.9845 256.271 90.9216 256.249 90.8586C256.152 90.5974 256.296 90.9436 256.221 90.7925C256.114 90.5754 256.011 90.3613 255.885 90.1631C255.819 90.0529 255.75 89.9459 255.675 89.8483L255.562 89.6941C255.722 89.9081 255.599 89.7413 255.562 89.6941C255.4 89.5043 255.226 89.3255 255.041 89.159L254.903 89.0394C255.088 89.159 254.742 88.8946 254.903 89.0394C254.802 88.9733 254.705 88.9009 254.589 88.838C254.472 88.775 254.381 88.7184 254.275 88.668L254.115 88.5925C254.372 88.7153 254.19 88.624 254.115 88.5925C253.892 88.5175 253.665 88.4596 253.433 88.4194C253.747 88.476 253.311 88.4194 253.217 88.4194C253.123 88.4194 252.972 88.4351 252.853 88.4383C253.076 88.3816 252.636 88.4383 252.853 88.4383C252.771 88.4603 252.686 88.4729 252.605 88.4918C252.454 88.5296 252.313 88.5862 252.165 88.6334C251.949 88.7027 252.347 88.5296 252.143 88.6334L251.923 88.7436L251.5 88.9733C251.167 89.1559 250.737 89.3164 250.47 89.4612C250.345 89.5302 250.202 89.5567 250.061 89.5367C249.92 89.5167 249.789 89.4514 249.689 89.3505C249.588 89.2496 249.523 89.1187 249.503 88.9774C249.483 88.8361 249.51 88.6922 249.578 88.5673C249.735 88.2016 249.96 87.8694 250.241 87.5885C250.528 87.3292 250.85 87.112 251.198 86.9432C251.824 86.6394 252.509 86.4761 253.204 86.4648C254.458 86.4933 255.653 87.0063 256.538 87.8969C257.5 88.8374 258.152 90.0501 258.407 91.3726C258.663 92.695 258.509 94.0641 257.966 95.2965C257.625 96.0193 257.145 96.6675 256.554 97.2038C256.215 97.5106 255.851 97.7876 255.464 98.0316C255.27 98.1549 255.069 98.2673 254.862 98.3684C254.68 98.4605 254.478 98.5029 254.275 98.4911C254.093 98.4911 253.961 98.3621 253.804 98.3337C253.739 98.3153 253.68 98.2825 253.63 98.2377C253.58 98.1929 253.541 98.1374 253.516 98.0753C253.49 98.0132 253.479 97.9461 253.484 97.8791C253.488 97.8121 253.507 97.747 253.54 97.6885L253.575 97.6728Z" fill="#2A1B3F"/>
<path d="M252.018 87.9359C252.091 87.2963 252.26 86.6714 252.518 86.082C252.724 85.5927 252.894 85.0888 253.026 84.5744C253.086 84.3415 253.136 84.1055 253.18 83.8694L253.208 83.6931C253.208 83.6931 253.249 83.4225 253.23 83.5484C253.211 83.6743 253.23 83.4728 253.23 83.4508C253.23 83.3658 253.246 83.2808 253.255 83.1927C253.297 82.7028 253.302 82.2104 253.271 81.7197C253.271 81.597 253.252 81.4742 253.24 81.3515L253.221 81.1878C253.202 81.0273 253.262 81.4113 253.221 81.1563C253.18 80.9014 253.139 80.6779 253.083 80.4419C252.973 79.99 252.829 79.5471 252.653 79.1168C252.593 78.9689 252.75 79.3214 252.653 79.0916C252.627 79.0444 252.609 78.9941 252.587 78.9469C252.565 78.8996 252.496 78.758 252.449 78.6636C252.335 78.4401 252.213 78.2229 252.084 78.0089C251.956 77.7949 251.846 77.6312 251.717 77.4487L251.532 77.1937C251.664 77.3763 251.438 77.0804 251.391 77.0238C251.087 76.6605 250.76 76.3178 250.411 75.9977C250.245 75.8466 250.075 75.7019 249.899 75.5602C249.724 75.4186 249.994 75.6232 249.79 75.4784C249.683 75.3997 249.576 75.321 249.476 75.2486C249.092 74.9841 248.692 74.7454 248.277 74.5342C248.063 74.4272 247.846 74.3233 247.627 74.2194C247.837 74.3107 247.586 74.2194 247.504 74.1754C247.423 74.1313 247.253 74.0809 247.128 74.0369C246.671 73.8794 246.204 73.7532 245.731 73.6592C245.517 73.6183 245.304 73.5868 245.103 73.5522C245.272 73.5679 244.839 73.5081 245.103 73.5522C245.046 73.5522 244.993 73.5522 244.94 73.5333L244.535 73.4987C244.056 73.464 243.575 73.464 243.097 73.4987L242.723 73.5333C242.661 73.5333 242.469 73.5711 242.723 73.5333L242.557 73.5585C242.309 73.5994 242.058 73.6497 241.813 73.7095C241.568 73.7693 241.257 73.8543 240.987 73.9456C240.849 73.9928 240.711 74.04 240.576 74.0935L240.413 74.1565C240.14 74.2603 240.598 74.0683 240.331 74.1911C239.774 74.4424 239.238 74.7371 238.727 75.0724C238.46 75.2486 238.206 75.4438 237.949 75.6358L237.792 75.7491C237.77 75.7648 237.556 75.9316 237.672 75.8372C237.553 75.9316 237.437 76.0292 237.321 76.1299C237.054 76.3565 236.809 76.5989 236.555 76.8381C236.248 77.0968 235.906 77.3089 235.538 77.4676C235.447 77.528 235.34 77.5598 235.231 77.5588C235.122 77.5579 235.016 77.5244 234.926 77.4624C234.836 77.4005 234.767 77.313 234.727 77.2113C234.687 77.1096 234.679 76.9982 234.703 76.8916C234.758 76.5518 234.87 76.224 235.035 75.9222C235.254 75.5966 235.501 75.2911 235.773 75.0094C236.227 74.4999 236.731 74.037 237.277 73.6277C238.249 72.9036 239.328 72.3375 240.476 71.9501C242.577 71.2427 244.843 71.1911 246.974 71.8022C251.143 73.0108 254.508 76.5422 255.051 80.9108C255.2 82.1469 255.111 83.4 254.79 84.6028C254.426 85.9939 253.874 87.4952 252.612 88.2915C252.55 88.3267 252.481 88.3451 252.41 88.345C252.34 88.3449 252.27 88.3263 252.209 88.291C252.148 88.2556 252.097 88.2049 252.061 88.1437C252.025 88.0825 252.006 88.013 252.006 87.9422L252.018 87.9359Z" fill="#2A1B3F"/>
<path d="M242.769 82.43C242.43 82.0303 242.016 81.7691 241.658 81.4008C241.276 80.9975 240.863 80.624 240.424 80.2835C240.004 79.9688 239.508 79.717 239.059 79.4431C238.549 79.1285 238.02 78.8477 237.473 78.6028C237.351 78.5461 237.247 78.5052 237.232 78.4989C237.09 78.4391 236.946 78.3856 236.802 78.3321C236.516 78.2282 236.227 78.1338 235.935 78.052C235.643 77.9701 235.417 77.9166 235.154 77.86L234.764 77.7876L234.566 77.7593C234.548 77.7593 234.227 77.7183 234.46 77.7593C233.92 77.6937 233.376 77.68 232.834 77.7183L232.601 77.7404C232.78 77.712 232.432 77.7404 232.601 77.7404L232.234 77.8065C231.963 77.8632 231.697 77.9389 231.437 78.0331L231.22 78.1181C231.418 78.0205 231.261 78.1023 231.22 78.1181C231.11 78.1747 230.997 78.2251 230.887 78.2849C230.777 78.3447 230.671 78.4108 230.573 78.4769C230.476 78.543 230.143 78.7727 230.338 78.6311C229.729 79.078 228.627 79.8145 228.1 78.8388C227.613 77.945 228.561 77.0826 229.23 76.6356C229.744 76.3044 230.3 76.045 230.884 75.8645C233.226 75.1217 235.747 75.6946 237.907 76.7238C238.507 77.0128 239.086 77.3441 239.639 77.7152C240.211 78.1074 240.744 78.5532 241.231 79.0466C241.674 79.4619 242.093 79.9022 242.487 80.3653C242.847 80.861 243.134 81.4057 243.341 81.9831C243.491 82.3356 243.052 82.7983 242.75 82.4395L242.769 82.43Z" fill="#2A1B3F"/>
<path d="M233.105 77.0494C233.076 76.5145 233.13 75.9783 233.265 75.4599C233.312 75.2176 233.356 74.9784 233.4 74.7392C233.4 74.7392 233.438 74.4968 233.4 74.6448C233.362 74.7927 233.4 74.5629 233.4 74.5535C233.4 74.4276 233.425 74.2985 233.432 74.1726C233.443 73.9567 233.443 73.7403 233.432 73.5243C233.432 73.411 233.432 73.2977 233.41 73.1875C233.41 73.1434 233.41 73.0962 233.41 73.0522C233.41 72.8507 233.45 73.2599 233.41 73.0113C233.334 72.5658 233.221 72.1278 233.071 71.7019L232.967 71.4218C232.948 71.3714 232.923 71.3211 232.904 71.2676C232.989 71.5068 232.958 71.3872 232.932 71.3305C232.829 71.1102 232.725 70.8899 232.619 70.6759C232.512 70.4618 232.418 70.3265 232.305 70.1565L232.116 69.8764C232.072 69.8166 231.802 69.461 231.994 69.7065C231.707 69.3461 231.399 69.0035 231.071 68.6804C230.911 68.5262 230.757 68.3657 230.578 68.2303L230.333 68.0226L230.167 67.8904C230.289 67.9911 230.267 67.9659 230.167 67.8904C229.385 67.3105 228.543 66.8167 227.655 66.4174C227.596 66.3922 227.207 66.2286 227.514 66.3545L227.166 66.1971C226.94 66.109 226.707 66.0271 226.475 65.9516C226.012 65.8007 225.542 65.6736 225.066 65.5708C224.827 65.5235 224.588 65.4795 224.35 65.4417C224.306 65.4417 224.253 65.4228 224.205 65.4197C224.541 65.4197 224.297 65.4197 224.221 65.4197L223.863 65.3819C223.392 65.3373 222.918 65.3226 222.444 65.3378C222.212 65.3378 221.98 65.3599 221.748 65.385C221.653 65.385 221.261 65.385 221.641 65.385C221.515 65.3957 221.39 65.4157 221.267 65.4448C220.82 65.5255 220.38 65.6381 219.949 65.7816L219.6 65.9044L219.443 65.9673C219.694 65.8477 219.381 65.9862 219.443 65.9673C219.192 66.0869 219.001 66.1814 218.784 66.3041C218.568 66.4275 218.358 66.5619 218.156 66.707C218.1 66.7433 218.047 66.7832 217.996 66.8266C218.097 66.729 218.15 66.6975 218.015 66.8266C217.88 66.9556 217.824 66.9902 217.732 67.0752C217.355 67.4437 217.002 67.8358 216.675 68.2492C216.637 68.2933 216.599 68.3436 216.558 68.3877L216.615 68.3121L216.527 68.4317C216.414 68.5828 216.298 68.7276 216.172 68.8661C215.975 69.0864 215.774 69.2973 215.588 69.5271C215.202 70.0118 214.261 69.6246 214.333 69.0014C214.376 68.3391 214.547 67.6915 214.835 67.0941C215.112 66.5909 215.458 66.1299 215.865 65.725C216.581 64.975 217.433 64.3693 218.376 63.9404C220.442 63.015 222.68 62.8923 224.89 63.2637C229.021 63.9561 233.224 66.6062 234.832 70.6035C235.247 71.6611 235.409 72.8016 235.306 73.9334C235.199 75.1546 234.869 76.7346 233.714 77.3956C233.653 77.4297 233.584 77.4473 233.514 77.4469C233.444 77.4465 233.375 77.428 233.314 77.3933C233.253 77.3585 233.202 77.3086 233.166 77.2483C233.13 77.1881 233.11 77.1196 233.108 77.0494H233.105Z" fill="#2A1B3F"/>
<path d="M215.327 69.4138C215.091 69.397 214.857 69.358 214.627 69.2974C214.328 69.193 214.044 69.049 213.783 68.8693C213.355 68.5757 212.912 68.3056 212.455 68.0604C212.251 67.9503 212.044 67.8433 211.827 67.7457L211.513 67.604L211.407 67.5568L211.3 67.5128C210.865 67.3389 210.42 67.1897 209.969 67.0658C209.532 66.9462 209.09 66.8739 208.647 66.7857C208.522 66.7637 208.704 66.7857 208.716 66.7857L208.544 66.7637L208.23 66.7291C208.02 66.7102 207.811 66.6976 207.602 66.6913C207.183 66.676 206.763 66.6886 206.346 66.7291L206.017 66.7637C206.211 66.7448 206.13 66.7637 205.995 66.7637C205.781 66.7983 205.568 66.8424 205.367 66.8927C204.973 66.9838 204.587 67.1005 204.208 67.2421L203.945 67.346C203.819 67.39 204.048 67.2988 204.048 67.3019L203.901 67.3649C203.706 67.453 203.515 67.5474 203.326 67.645C202.984 67.8235 202.652 68.0233 202.334 68.243L202.105 68.4067L201.976 68.5042C201.998 68.4853 202.199 68.3248 202.036 68.4602C201.873 68.5955 201.722 68.7182 201.578 68.8536C201.278 69.1307 200.997 69.4272 200.736 69.7412C200.674 69.8135 200.614 69.8922 200.554 69.9646C200.702 69.7852 200.611 69.8891 200.523 70.0118C200.401 70.1818 200.281 70.3549 200.168 70.5312C199.935 70.8939 199.725 71.2713 199.54 71.6611C199.496 71.7523 199.459 71.8468 199.412 71.938C199.336 72.0954 199.493 71.7177 199.437 71.8814C199.437 71.9223 199.405 71.9632 199.39 72.0041C199.302 72.2276 199.22 72.4542 199.148 72.684C198.991 73.1735 198.868 73.6729 198.778 74.179C198.752 74.3206 198.73 74.4623 198.709 74.607C198.709 74.6385 198.687 74.8022 198.709 74.6291C198.73 74.456 198.709 74.7424 198.709 74.7518C198.68 75.0194 198.658 75.2837 198.646 75.5513C198.617 76.1461 198.608 76.7473 198.621 77.3422C198.621 78.0787 198.523 78.7837 197.939 79.2936C197.851 79.3757 197.738 79.428 197.619 79.4433C197.499 79.4585 197.377 79.4359 197.271 79.3785C196.524 79.0638 196.241 78.3147 196.147 77.5593C196.071 76.9962 196.041 76.4277 196.059 75.8597C196.095 74.7666 196.255 73.6811 196.536 72.6242C197.046 70.6958 198.04 68.9306 199.424 67.497C202.143 64.7399 206.202 63.824 209.893 64.8595C210.999 65.1829 212.058 65.6473 213.045 66.2412C213.579 66.5552 214.091 66.9032 214.58 67.283C214.895 67.4903 215.168 67.7538 215.387 68.0604C215.554 68.3475 215.677 68.6585 215.751 68.9826C215.766 69.0422 215.765 69.1046 215.749 69.1637C215.732 69.2229 215.701 69.2768 215.658 69.3202C215.615 69.3636 215.561 69.3951 215.502 69.4115C215.443 69.4279 215.381 69.4287 215.321 69.4138H215.327Z" fill="#2A1B3F"/>
<path d="M203.793 80.1864C202.952 79.9149 202.084 79.7376 201.204 79.6576C200.734 79.6141 200.262 79.6035 199.791 79.6261C199.552 79.6261 199.317 79.6607 199.078 79.6891C199.26 79.667 198.943 79.7142 198.906 79.7205C198.771 79.7426 198.636 79.7678 198.501 79.7992C198.047 79.8941 197.598 80.0128 197.157 80.1549C197.054 80.1864 196.95 80.221 196.843 80.2588C196.736 80.2965 196.495 80.4004 196.711 80.306C196.497 80.3997 196.287 80.5047 196.084 80.6207C195.901 80.7246 195.729 80.8379 195.556 80.9543C195.512 80.9827 195.471 81.0141 195.431 81.0456C195.61 80.9166 195.493 80.9921 195.456 81.0267C195.358 81.1117 195.258 81.1904 195.167 81.2785C195.018 81.4187 194.876 81.5668 194.743 81.7223L194.646 81.8419C194.8 81.6531 194.683 81.7947 194.646 81.8419C194.608 81.8891 194.514 82.0371 194.454 82.1346C194.395 82.2322 194.326 82.3612 194.266 82.4808L194.2 82.6225C194.084 82.8617 194.266 82.4116 194.184 82.6665C194.103 82.9215 194.018 83.1355 193.952 83.3747C193.783 84.0042 193.638 84.6337 193.205 85.1373C193.096 85.2449 192.95 85.3053 192.797 85.3053C192.644 85.3053 192.497 85.2449 192.389 85.1373C191.406 84.1584 191.871 82.5218 192.423 81.4453C192.94 80.4888 193.698 79.6847 194.621 79.1131C196.504 77.8982 198.789 77.7156 200.959 78.1122C202.095 78.3055 203.17 78.7625 204.098 79.4467C204.431 79.6954 204.255 80.3406 203.784 80.1832L203.793 80.1864Z" fill="#2A1B3F"/>
<path d="M199.665 87.7818C199.382 87.6591 199.09 87.5709 198.801 87.4671C198.682 87.4199 198.566 87.3601 198.45 87.3066C198.412 87.2877 198.183 87.1933 198.346 87.2594L197.718 87.0076C197.888 87.0768 197.703 87.0076 197.634 86.9761L197.389 86.888C197.226 86.8355 197.059 86.7852 196.89 86.7369C196.548 86.6456 196.202 86.5858 195.854 86.5229C196.064 86.5606 195.939 86.5229 195.804 86.5229L195.578 86.504C195.386 86.504 195.195 86.4725 195.003 86.4631C194.642 86.4426 194.281 86.4426 193.92 86.4631L193.411 86.5008L193.138 86.5292C193.057 86.5292 192.944 86.5134 193.217 86.5292C193.165 86.5303 193.113 86.5377 193.063 86.5512C192.702 86.6141 192.344 86.6834 191.989 86.7747C191.635 86.8659 191.289 86.973 190.947 87.0894L190.693 87.187C190.646 87.2027 190.42 87.316 190.589 87.2247C190.759 87.1335 190.498 87.2657 190.454 87.2845L190.178 87.4167C189.862 87.5705 189.554 87.7407 189.255 87.9266C189.12 88.0147 188.985 88.1029 188.857 88.1941L188.646 88.3452C188.615 88.3673 188.508 88.4522 188.646 88.3452C188.784 88.2382 188.646 88.3452 188.605 88.383C188.35 88.5934 188.107 88.8183 187.877 89.0565C187.773 89.1667 187.676 89.28 187.579 89.3965L187.516 89.4751C187.375 89.642 187.595 89.3744 187.591 89.3744C187.588 89.3744 187.45 89.5696 187.434 89.5947C187.265 89.8558 187.112 90.127 186.976 90.4068C186.876 90.6051 187.08 90.1267 187.004 90.3344L186.926 90.5516C186.872 90.7075 186.826 90.8661 186.788 91.0268C186.769 91.1118 186.753 91.1968 186.738 91.2849C186.684 91.5587 186.738 91.1873 186.738 91.2251C186.738 91.4045 186.709 91.5808 186.712 91.7602C186.712 91.8546 186.712 91.9459 186.712 92.0371C186.712 92.1284 186.756 92.4306 186.712 92.1693C186.669 91.9081 186.712 92.2071 186.734 92.2669C186.751 92.3634 186.771 92.459 186.797 92.5533C186.844 92.7485 186.91 92.9373 186.976 93.1293C187.011 93.23 187.042 93.3276 187.08 93.444C187.08 93.4818 187.108 93.5164 187.121 93.5542C187.171 93.6958 187.249 93.6864 187.092 93.4944C187.253 93.7499 187.355 94.038 187.391 94.3379C187.489 94.6901 187.496 95.0615 187.412 95.4175C187.353 95.6153 187.232 95.7893 187.068 95.9147C186.904 96.0401 186.705 96.1106 186.499 96.1162C185.243 96.091 184.531 94.6589 184.239 93.6234C183.991 92.7422 183.937 91.8178 184.079 90.9135C184.355 89.3622 185.165 87.9569 186.367 86.9415C187.666 85.8327 189.191 85.022 190.835 84.5658C192.479 84.1097 194.203 84.0192 195.885 84.3008C196.306 84.388 196.721 84.5058 197.125 84.6533L197.439 84.7792L197.627 84.8579C197.436 84.7792 197.803 84.9334 197.882 84.9712C198.073 85.0625 198.258 85.16 198.44 85.267C199.261 85.7337 199.888 86.4795 200.208 87.3695C200.33 87.7063 199.928 87.892 199.671 87.7818H199.665Z" fill="#2A1B3F"/>
</g>
<g opacity="0.24">
<path d="M870.861 198.121C870.845 198.121 870.83 198.115 870.819 198.103C870.807 198.092 870.801 198.077 870.801 198.061C870.801 198.044 870.807 198.029 870.819 198.018C870.83 198.006 870.845 198 870.861 198C870.877 198 870.893 198.006 870.904 198.018C870.916 198.029 870.922 198.044 870.922 198.061C870.922 198.077 870.916 198.092 870.904 198.103C870.893 198.115 870.877 198.121 870.861 198.121Z" fill="#2A1B3F"/>
<path d="M877.951 234.172C877.084 234.172 876.221 234.245 875.358 234.197C874.416 234.147 873.474 234.09 872.548 234.024C870.508 233.886 868.467 233.772 866.424 233.672C861.806 233.451 857.185 233.307 852.567 233.187C847.667 233.061 842.767 232.96 837.867 232.853C833.183 232.751 828.498 232.652 823.812 232.558C819.838 232.469 815.864 232.381 811.883 232.243C811.463 232.227 811.052 232.192 810.628 232.145C810.4 232.138 810.184 232.044 810.023 231.883C809.862 231.722 809.768 231.505 809.761 231.277C809.765 231.047 809.858 230.829 810.02 230.667C810.181 230.505 810.399 230.412 810.628 230.408C812.427 230.345 814.244 230.493 816.046 230.55C818.107 230.612 820.17 230.669 822.233 230.719C826.861 230.835 831.487 230.946 836.112 231.053C841.012 231.176 845.912 231.314 850.813 231.509C855.521 231.698 860.208 231.915 864.901 232.208C866.992 232.34 869.086 232.485 871.18 232.655C873.063 232.806 874.981 232.897 876.808 233.348C877.21 233.445 877.612 233.54 878.017 233.631C878.079 233.65 878.133 233.691 878.168 233.747C878.203 233.802 878.217 233.869 878.208 233.934C878.199 233.999 878.167 234.058 878.119 234.102C878.07 234.146 878.007 234.171 877.941 234.172H877.951Z" fill="#2A1B3F"/>
<path d="M877.575 233.673L877.556 233.767C877.561 233.686 877.572 233.605 877.587 233.525C877.635 233.37 877.716 233.228 877.826 233.109C877.993 232.957 878.179 232.826 878.378 232.719C878.454 232.672 878.529 232.622 878.601 232.568C878.601 232.568 878.833 232.398 878.711 232.493C878.846 232.389 878.975 232.275 879.1 232.178C879.226 232.08 879.336 231.951 879.446 231.828C879.499 231.772 879.552 231.712 879.603 231.649C879.653 231.586 879.782 231.426 879.656 231.589C879.837 231.35 879.996 231.095 880.133 230.828C880.168 230.765 880.334 230.362 880.249 230.595C880.296 230.462 880.347 230.33 880.387 230.195C880.466 229.927 880.525 229.653 880.566 229.377C880.595 229.081 880.566 229.317 880.566 229.377C880.566 229.307 880.566 229.241 880.588 229.172C880.61 229.103 880.588 228.945 880.604 228.832C880.62 228.719 880.604 228.558 880.604 228.423C880.604 228.357 880.604 228.288 880.588 228.221C880.573 228.155 880.535 227.847 880.588 228.149C880.55 227.906 880.499 227.666 880.434 227.428C880.4 227.299 880.359 227.17 880.318 227.044C880.296 226.985 880.271 226.922 880.249 226.859C880.152 226.597 880.296 226.944 880.221 226.793C880.114 226.575 880.011 226.361 879.885 226.163C879.819 226.053 879.75 225.946 879.675 225.848L879.562 225.694C879.722 225.908 879.599 225.741 879.562 225.694C879.4 225.504 879.226 225.326 879.041 225.159L878.903 225.039C879.088 225.159 878.742 224.895 878.903 225.039C878.802 224.973 878.705 224.901 878.589 224.838C878.472 224.775 878.381 224.718 878.275 224.668L878.115 224.593C878.372 224.715 878.19 224.624 878.115 224.593C877.892 224.517 877.665 224.46 877.433 224.419C877.747 224.476 877.311 224.419 877.217 224.419C877.123 224.419 876.972 224.435 876.853 224.438C877.076 224.382 876.636 224.438 876.853 224.438C876.771 224.46 876.686 224.473 876.605 224.492C876.454 224.53 876.313 224.586 876.165 224.633C875.949 224.703 876.347 224.53 876.143 224.633L875.923 224.744L875.5 224.973C875.167 225.156 874.737 225.316 874.47 225.461C874.345 225.53 874.202 225.557 874.061 225.537C873.92 225.517 873.789 225.451 873.689 225.351C873.588 225.25 873.523 225.119 873.503 224.977C873.483 224.836 873.51 224.692 873.578 224.567C873.735 224.202 873.96 223.869 874.241 223.588C874.528 223.329 874.85 223.112 875.198 222.943C875.824 222.639 876.509 222.476 877.204 222.465C878.458 222.493 879.653 223.006 880.538 223.897C881.5 224.837 882.152 226.05 882.407 227.373C882.663 228.695 882.509 230.064 881.966 231.296C881.625 232.019 881.145 232.668 880.554 233.204C880.215 233.511 879.851 233.788 879.464 234.032C879.27 234.155 879.069 234.267 878.862 234.368C878.68 234.461 878.478 234.503 878.275 234.491C878.093 234.491 877.961 234.362 877.804 234.334C877.739 234.315 877.68 234.282 877.63 234.238C877.58 234.193 877.541 234.137 877.516 234.075C877.49 234.013 877.479 233.946 877.484 233.879C877.488 233.812 877.507 233.747 877.54 233.689L877.575 233.673Z" fill="#2A1B3F"/>
<path d="M876.018 223.936C876.091 223.296 876.26 222.671 876.518 222.082C876.724 221.593 876.894 221.089 877.026 220.574C877.086 220.342 877.136 220.105 877.18 219.869L877.208 219.693C877.208 219.693 877.249 219.422 877.23 219.548C877.211 219.674 877.23 219.473 877.23 219.451C877.23 219.366 877.246 219.281 877.255 219.193C877.297 218.703 877.302 218.21 877.271 217.72C877.271 217.597 877.252 217.474 877.24 217.351L877.221 217.188C877.202 217.027 877.262 217.411 877.221 217.156C877.18 216.901 877.139 216.678 877.083 216.442C876.973 215.99 876.829 215.547 876.653 215.117C876.593 214.969 876.75 215.321 876.653 215.092C876.627 215.044 876.609 214.994 876.587 214.947C876.565 214.9 876.496 214.758 876.449 214.664C876.335 214.44 876.213 214.223 876.084 214.009C875.956 213.795 875.846 213.631 875.717 213.449L875.532 213.194C875.664 213.376 875.438 213.08 875.391 213.024C875.087 212.661 874.76 212.318 874.411 211.998C874.245 211.847 874.075 211.702 873.899 211.56C873.724 211.419 873.994 211.623 873.79 211.478C873.683 211.4 873.576 211.321 873.476 211.249C873.092 210.984 872.692 210.745 872.277 210.534C872.063 210.427 871.846 210.323 871.627 210.219C871.837 210.311 871.586 210.219 871.504 210.175C871.423 210.131 871.253 210.081 871.128 210.037C870.671 209.879 870.204 209.753 869.731 209.659C869.517 209.618 869.304 209.587 869.103 209.552C869.272 209.568 868.839 209.508 869.103 209.552C869.046 209.552 868.993 209.552 868.94 209.533L868.535 209.499C868.056 209.464 867.575 209.464 867.097 209.499L866.723 209.533C866.661 209.533 866.469 209.571 866.723 209.533L866.557 209.558C866.309 209.599 866.058 209.65 865.813 209.71C865.568 209.769 865.257 209.854 864.987 209.946C864.849 209.993 864.711 210.04 864.576 210.094L864.413 210.156C864.14 210.26 864.598 210.068 864.331 210.191C863.774 210.442 863.238 210.737 862.727 211.072C862.46 211.249 862.206 211.444 861.949 211.636L861.792 211.749C861.77 211.765 861.556 211.932 861.672 211.837C861.553 211.932 861.437 212.029 861.321 212.13C861.054 212.357 860.809 212.599 860.555 212.838C860.248 213.097 859.906 213.309 859.538 213.468C859.447 213.528 859.34 213.56 859.231 213.559C859.122 213.558 859.016 213.524 858.926 213.462C858.836 213.4 858.767 213.313 858.727 213.211C858.687 213.11 858.679 212.998 858.703 212.892C858.758 212.552 858.87 212.224 859.035 211.922C859.254 211.597 859.501 211.291 859.773 211.009C860.227 210.5 860.731 210.037 861.277 209.628C862.249 208.904 863.328 208.337 864.476 207.95C866.577 207.243 868.843 207.191 870.974 207.802C875.143 209.011 878.508 212.542 879.051 216.911C879.2 218.147 879.111 219.4 878.79 220.603C878.426 221.994 877.874 223.495 876.612 224.292C876.55 224.327 876.481 224.345 876.41 224.345C876.34 224.345 876.27 224.326 876.209 224.291C876.148 224.256 876.097 224.205 876.061 224.144C876.025 224.082 876.006 224.013 876.006 223.942L876.018 223.936Z" fill="#2A1B3F"/>
<path d="M866.769 218.43C866.43 218.03 866.016 217.769 865.658 217.401C865.276 216.998 864.863 216.624 864.424 216.283C864.004 215.969 863.508 215.717 863.059 215.443C862.549 215.128 862.02 214.848 861.473 214.603C861.351 214.546 861.247 214.505 861.232 214.499C861.09 214.439 860.946 214.386 860.802 214.332C860.516 214.228 860.227 214.134 859.935 214.052C859.643 213.97 859.417 213.917 859.154 213.86L858.764 213.788L858.566 213.759C858.548 213.759 858.227 213.718 858.46 213.759C857.92 213.694 857.376 213.68 856.834 213.718L856.601 213.74C856.78 213.712 856.432 213.74 856.601 213.74L856.234 213.806C855.963 213.863 855.697 213.939 855.437 214.033L855.22 214.118C855.418 214.02 855.261 214.102 855.22 214.118C855.11 214.175 854.997 214.225 854.887 214.285C854.777 214.345 854.671 214.411 854.573 214.477C854.476 214.543 854.143 214.773 854.338 214.631C853.729 215.078 852.627 215.815 852.1 214.839C851.613 213.945 852.561 213.083 853.23 212.636C853.744 212.304 854.3 212.045 854.884 211.865C857.226 211.122 859.747 211.695 861.907 212.724C862.507 213.013 863.086 213.344 863.639 213.715C864.211 214.107 864.744 214.553 865.231 215.047C865.674 215.462 866.093 215.902 866.487 216.365C866.847 216.861 867.134 217.406 867.341 217.983C867.491 218.336 867.052 218.798 866.75 218.439L866.769 218.43Z" fill="#2A1B3F"/>
<path d="M857.105 213.049C857.076 212.514 857.13 211.978 857.265 211.46C857.312 211.218 857.356 210.978 857.4 210.739C857.4 210.739 857.438 210.497 857.4 210.645C857.362 210.793 857.4 210.563 857.4 210.553C857.4 210.428 857.425 210.299 857.432 210.173C857.443 209.957 857.443 209.74 857.432 209.524C857.432 209.411 857.432 209.298 857.41 209.188C857.41 209.143 857.41 209.096 857.41 209.052C857.41 208.851 857.45 209.26 857.41 209.011C857.334 208.566 857.221 208.128 857.071 207.702L856.967 207.422C856.948 207.371 856.923 207.321 856.904 207.268C856.989 207.507 856.958 207.387 856.932 207.331C856.829 207.11 856.725 206.89 856.619 206.676C856.512 206.462 856.418 206.327 856.305 206.157L856.116 205.876C856.072 205.817 855.802 205.461 855.994 205.706C855.707 205.346 855.399 205.003 855.071 204.68C854.911 204.526 854.757 204.366 854.578 204.23L854.333 204.023L854.167 203.89C854.289 203.991 854.267 203.966 854.167 203.89C853.385 203.311 852.543 202.817 851.655 202.417C851.596 202.392 851.207 202.229 851.514 202.354L851.166 202.197C850.94 202.109 850.707 202.027 850.475 201.952C850.012 201.801 849.542 201.674 849.066 201.571C848.827 201.524 848.588 201.479 848.35 201.442C848.306 201.442 848.253 201.423 848.205 201.42C848.541 201.42 848.297 201.42 848.221 201.42L847.863 201.382C847.392 201.337 846.918 201.323 846.444 201.338C846.212 201.338 845.98 201.36 845.748 201.385C845.653 201.385 845.261 201.385 845.641 201.385C845.515 201.396 845.39 201.416 845.267 201.445C844.82 201.526 844.38 201.638 843.949 201.782L843.6 201.904L843.443 201.967C843.694 201.848 843.381 201.986 843.443 201.967C843.192 202.087 843.001 202.181 842.784 202.304C842.568 202.427 842.358 202.562 842.156 202.707C842.1 202.743 842.047 202.783 841.996 202.827C842.097 202.729 842.15 202.698 842.015 202.827C841.88 202.956 841.824 202.99 841.732 203.075C841.355 203.444 841.002 203.836 840.675 204.249C840.637 204.293 840.599 204.344 840.558 204.388L840.615 204.312L840.527 204.432C840.414 204.583 840.298 204.728 840.172 204.866C839.975 205.086 839.774 205.297 839.588 205.527C839.202 206.012 838.261 205.625 838.333 205.001C838.376 204.339 838.547 203.691 838.835 203.094C839.112 202.591 839.458 202.13 839.865 201.725C840.581 200.975 841.433 200.369 842.376 199.94C844.442 199.015 846.68 198.892 848.89 199.264C853.021 199.956 857.224 202.606 858.832 206.603C859.247 207.661 859.409 208.802 859.306 209.933C859.199 211.155 858.869 212.735 857.714 213.396C857.653 213.43 857.584 213.447 857.514 213.447C857.444 213.447 857.375 213.428 857.314 213.393C857.253 213.358 857.202 213.309 857.166 213.248C857.13 213.188 857.11 213.12 857.108 213.049H857.105Z" fill="#2A1B3F"/>
<path d="M839.327 205.414C839.091 205.397 838.857 205.358 838.627 205.297C838.328 205.193 838.044 205.049 837.783 204.869C837.355 204.576 836.912 204.306 836.455 204.06C836.251 203.95 836.044 203.843 835.827 203.746L835.513 203.604L835.407 203.557L835.3 203.513C834.865 203.339 834.42 203.19 833.969 203.066C833.532 202.946 833.09 202.874 832.647 202.786C832.522 202.764 832.704 202.786 832.716 202.786L832.544 202.764L832.23 202.729C832.02 202.71 831.811 202.698 831.602 202.691C831.183 202.676 830.763 202.689 830.346 202.729L830.017 202.764C830.211 202.745 830.13 202.764 829.995 202.764C829.781 202.798 829.568 202.842 829.367 202.893C828.973 202.984 828.587 203.101 828.208 203.242L827.945 203.346C827.819 203.39 828.048 203.299 828.048 203.302L827.901 203.365C827.706 203.453 827.515 203.547 827.326 203.645C826.984 203.824 826.652 204.023 826.334 204.243L826.105 204.407L825.976 204.504C825.998 204.485 826.199 204.325 826.036 204.46C825.873 204.595 825.722 204.718 825.578 204.854C825.278 205.131 824.997 205.427 824.736 205.741C824.674 205.814 824.614 205.892 824.554 205.965C824.702 205.785 824.611 205.889 824.523 206.012C824.401 206.182 824.281 206.355 824.168 206.531C823.935 206.894 823.725 207.271 823.54 207.661C823.496 207.752 823.459 207.847 823.412 207.938C823.336 208.095 823.493 207.718 823.437 207.881C823.437 207.922 823.405 207.963 823.39 208.004C823.302 208.228 823.22 208.454 823.148 208.684C822.991 209.173 822.868 209.673 822.778 210.179C822.752 210.321 822.73 210.462 822.709 210.607C822.709 210.639 822.687 210.802 822.709 210.629C822.73 210.456 822.709 210.742 822.709 210.752C822.68 211.019 822.658 211.284 822.646 211.551C822.617 212.146 822.608 212.747 822.621 213.342C822.621 214.079 822.523 214.784 821.939 215.294C821.851 215.376 821.738 215.428 821.619 215.443C821.499 215.458 821.377 215.436 821.271 215.379C820.524 215.064 820.241 214.315 820.147 213.559C820.071 212.996 820.041 212.428 820.059 211.86C820.095 210.767 820.255 209.681 820.536 208.624C821.046 206.696 822.04 204.931 823.424 203.497C826.143 200.74 830.202 199.824 833.893 200.86C834.999 201.183 836.058 201.647 837.045 202.241C837.579 202.555 838.091 202.903 838.58 203.283C838.895 203.49 839.168 203.754 839.387 204.06C839.554 204.348 839.677 204.658 839.751 204.983C839.766 205.042 839.765 205.105 839.749 205.164C839.732 205.223 839.701 205.277 839.658 205.32C839.615 205.364 839.561 205.395 839.502 205.411C839.443 205.428 839.381 205.429 839.321 205.414H839.327Z" fill="#2A1B3F"/>
<path d="M827.793 216.186C826.952 215.915 826.084 215.738 825.204 215.658C824.734 215.614 824.262 215.604 823.791 215.626C823.552 215.626 823.317 215.661 823.078 215.689C823.26 215.667 822.943 215.714 822.906 215.721C822.771 215.743 822.636 215.768 822.501 215.799C822.047 215.894 821.598 216.013 821.157 216.155C821.054 216.186 820.95 216.221 820.843 216.259C820.736 216.297 820.495 216.4 820.711 216.306C820.497 216.4 820.287 216.505 820.084 216.621C819.901 216.725 819.729 216.838 819.556 216.954C819.512 216.983 819.471 217.014 819.431 217.046C819.61 216.917 819.493 216.992 819.456 217.027C819.358 217.112 819.258 217.19 819.167 217.279C819.018 217.419 818.876 217.567 818.743 217.722L818.646 217.842C818.8 217.653 818.683 217.795 818.646 217.842C818.608 217.889 818.514 218.037 818.454 218.135C818.395 218.232 818.326 218.361 818.266 218.481L818.2 218.622C818.084 218.862 818.266 218.412 818.184 218.667C818.103 218.921 818.018 219.136 817.952 219.375C817.783 220.004 817.638 220.634 817.205 221.137C817.096 221.245 816.95 221.305 816.797 221.305C816.644 221.305 816.497 221.245 816.389 221.137C815.406 220.158 815.871 218.522 816.423 217.445C816.94 216.489 817.698 215.685 818.621 215.113C820.504 213.898 822.789 213.716 824.959 214.112C826.095 214.306 827.17 214.763 828.098 215.447C828.431 215.695 828.255 216.341 827.784 216.183L827.793 216.186Z" fill="#2A1B3F"/>
<path d="M823.665 223.782C823.382 223.659 823.09 223.571 822.801 223.467C822.682 223.42 822.566 223.36 822.45 223.307C822.412 223.288 822.183 223.193 822.346 223.259L821.718 223.008C821.888 223.077 821.703 223.008 821.634 222.976L821.389 222.888C821.226 222.836 821.059 222.785 820.89 222.737C820.548 222.646 820.202 222.586 819.854 222.523C820.064 222.561 819.939 222.523 819.804 222.523L819.578 222.504C819.386 222.504 819.195 222.472 819.003 222.463C818.642 222.443 818.281 222.443 817.92 222.463L817.411 222.501L817.138 222.529C817.057 222.529 816.944 222.513 817.217 222.529C817.165 222.53 817.113 222.538 817.063 222.551C816.702 222.614 816.344 222.683 815.989 222.775C815.635 222.866 815.289 222.973 814.947 223.089L814.693 223.187C814.646 223.203 814.42 223.316 814.589 223.225C814.759 223.133 814.498 223.266 814.454 223.285L814.178 223.417C813.862 223.571 813.554 223.741 813.255 223.927C813.12 224.015 812.985 224.103 812.857 224.194L812.646 224.345C812.615 224.367 812.508 224.452 812.646 224.345C812.784 224.238 812.646 224.345 812.605 224.383C812.35 224.593 812.107 224.818 811.877 225.057C811.773 225.167 811.676 225.28 811.579 225.396L811.516 225.475C811.375 225.642 811.595 225.374 811.591 225.374C811.588 225.374 811.45 225.57 811.434 225.595C811.265 225.856 811.112 226.127 810.976 226.407C810.876 226.605 811.08 226.127 811.004 226.334L810.926 226.552C810.872 226.708 810.826 226.866 810.788 227.027C810.769 227.112 810.753 227.197 810.738 227.285C810.684 227.559 810.738 227.187 810.738 227.225C810.738 227.405 810.709 227.581 810.712 227.76C810.712 227.855 810.712 227.946 810.712 228.037C810.712 228.128 810.756 228.431 810.712 228.169C810.669 227.908 810.712 228.207 810.734 228.267C810.751 228.363 810.771 228.459 810.797 228.553C810.844 228.748 810.91 228.937 810.976 229.129C811.011 229.23 811.042 229.328 811.08 229.444C811.08 229.482 811.108 229.516 811.121 229.554C811.171 229.696 811.249 229.686 811.092 229.494C811.253 229.75 811.355 230.038 811.391 230.338C811.489 230.69 811.496 231.062 811.412 231.417C811.353 231.615 811.232 231.789 811.068 231.915C810.904 232.04 810.705 232.111 810.499 232.116C809.243 232.091 808.531 230.659 808.239 229.623C807.991 228.742 807.937 227.818 808.079 226.914C808.355 225.362 809.165 223.957 810.367 222.941C811.666 221.833 813.191 221.022 814.835 220.566C816.479 220.11 818.203 220.019 819.885 220.301C820.306 220.388 820.721 220.506 821.125 220.653L821.439 220.779L821.627 220.858C821.436 220.779 821.803 220.933 821.882 220.971C822.073 221.062 822.258 221.16 822.44 221.267C823.261 221.734 823.888 222.48 824.208 223.37C824.33 223.706 823.928 223.892 823.671 223.782H823.665Z" fill="#2A1B3F"/>
</g>
<circle cx="738" cy="123" r="4" fill="#E4E6EB"/>
<circle cx="883" cy="362" r="4" fill="#E4E6EB"/>
<circle cx="135" cy="375" r="2" fill="#E4E6EB"/>
<circle cx="544" cy="299" r="2" fill="#E4E6EB"/>
<circle cx="195" cy="181" r="3" fill="#E4E6EB"/>
<circle cx="95" cy="80" r="2" fill="#E4E6EB"/>
<path d="M141.183 448L143.617 450.814L147.317 450.403L145.393 453.587L146.928 456.98L143.302 456.134L140.55 458.639L140.233 454.933L137 453.092L140.43 451.644L141.183 448Z" fill="#E4E6EB"/>
<path d="M925.183 189L927.617 191.814L931.317 191.403L929.393 194.587L930.928 197.98L927.302 197.134L924.55 199.639L924.233 195.933L921 194.092L924.43 192.644L925.183 189Z" fill="#E4E6EB"/>
<path d="M64.1827 193L66.6167 195.814L70.3173 195.403L68.3929 198.587L69.9282 201.98L66.3016 201.134L63.5505 203.639L63.2333 199.933L60 198.092L63.4299 196.644L64.1827 193Z" fill="#E4E6EB"/>
<path d="M332.243 134L334.131 136.182L337 135.864L335.508 138.332L336.698 140.963L333.886 140.307L331.753 142.249L331.507 139.376L329 137.949L331.66 136.826L332.243 134Z" fill="#E4E6EB"/>
<path d="M842.432 55L843.848 56.6362L846 56.3977L844.881 58.249L845.774 60.2221L843.665 59.7303L842.065 61.1871L841.88 59.0321L840 57.9614L841.995 57.1193L842.432 55Z" fill="#E4E6EB"/>
</g>
</g>
<defs>
<filter id="filter0_d_8628_7514" x="0" y="0" width="980" height="562" filterUnits="userSpaceOnUse" color-interpolation-filters="sRGB">
<feFlood flood-opacity="0" result="BackgroundImageFix"/>
<feColorMatrix in="SourceAlpha" type="matrix" values="0 0 0 0 0 0 0 0 0 0 0 0 0 0 0 0 0 0 127 0" result="hardAlpha"/>
<feOffset dy="14"/>
<feGaussianBlur stdDeviation="10"/>
<feComposite in2="hardAlpha" operator="out"/>
<feColorMatrix type="matrix" values="0 0 0 0 0 0 0 0 0 0 0 0 0 0 0 0 0 0 0.16 0"/>
<feBlend mode="normal" in2="BackgroundImageFix" result="effect1_dropShadow_8628_7514"/>
<feBlend mode="normal" in="SourceGraphic" in2="effect1_dropShadow_8628_7514" result="shape"/>
</filter>
<clipPath id="clip0_8628_7514">
<rect x="20" y="6" width="940" height="522" rx="16" fill="white"/>
</clipPath>
</defs>
</svg>
