<svg width="24" height="24" viewBox="0 0 24 24" fill="none" xmlns="http://www.w3.org/2000/svg">
<circle cx="12" cy="12" r="12" transform="rotate(180 12 12)" fill="white"/>
<path d="M13.0921 11.9954L10.1421 8.89371C10.0421 8.78856 9.99488 8.6659 10.0004 8.52571C10.006 8.38552 10.0588 8.26285 10.1588 8.15771C10.2588 8.05257 10.3782 8 10.5171 8C10.656 8 10.7754 8.05257 10.8754 8.15771L14.1754 11.6274C14.231 11.6858 14.2699 11.7442 14.2921 11.8026C14.3143 11.861 14.3254 11.9253 14.3254 11.9954C14.3254 12.0655 14.3143 12.1297 14.2921 12.1881C14.2699 12.2466 14.231 12.305 14.1754 12.3634L10.8588 15.8506C10.7588 15.9557 10.6421 16.0054 10.5088 15.9995C10.3754 15.9937 10.2588 15.9382 10.1588 15.8331C10.0588 15.7279 10.0088 15.6023 10.0088 15.4563C10.0088 15.3103 10.0588 15.1847 10.1588 15.0795L13.0921 11.9954Z" fill="#6519E1"/>
</svg>
