<svg width="44" height="44" viewBox="0 0 44 44" fill="none" xmlns="http://www.w3.org/2000/svg">
<circle cx="22" cy="22" r="22" fill="white"/>
<g clip-path="url(#clip0_5844_10903)">
<path d="M28.6894 15.3212C28.2753 14.9071 27.6064 14.9071 27.1923 15.3212L22 20.5028L16.8077 15.3106C16.3936 14.8965 15.7247 14.8965 15.3106 15.3106C14.8965 15.7247 14.8965 16.3936 15.3106 16.8077L20.5028 22L15.3106 27.1923C14.8965 27.6064 14.8965 28.2753 15.3106 28.6894C15.7247 29.1035 16.3936 29.1035 16.8077 28.6894L22 23.4972L27.1923 28.6894C27.6064 29.1035 28.2753 29.1035 28.6894 28.6894C29.1035 28.2753 29.1035 27.6064 28.6894 27.1923L23.4972 22L28.6894 16.8077C29.0929 16.4042 29.0929 15.7247 28.6894 15.3212Z" fill="#70757A"/>
</g>
<defs>
<clipPath id="clip0_5844_10903">
<rect width="24" height="24" fill="white" transform="translate(10 10)"/>
</clipPath>
</defs>
</svg>
