<svg width="20" height="20" viewBox="0 0 20 20" fill="none" xmlns="http://www.w3.org/2000/svg">
<g id="format_list_bulleted_black_24dp (1) 2">
<g clip-path="url(#clip0_9100_14271)">
<rect width="20" height="20" rx="2" fill="#F6F7F7"/>
<path id="Vector" d="M3.33398 8.75C2.64232 8.75 2.08398 9.30833 2.08398 10C2.08398 10.6917 2.64232 11.25 3.33398 11.25C4.02565 11.25 4.58398 10.6917 4.58398 10C4.58398 9.30833 4.02565 8.75 3.33398 8.75ZM3.33398 3.75C2.64232 3.75 2.08398 4.30833 2.08398 5C2.08398 5.69167 2.64232 6.25 3.33398 6.25C4.02565 6.25 4.58398 5.69167 4.58398 5C4.58398 4.30833 4.02565 3.75 3.33398 3.75ZM3.33398 13.75C2.64232 13.75 2.08398 14.3167 2.08398 15C2.08398 15.6833 2.65065 16.25 3.33398 16.25C4.01732 16.25 4.58398 15.6833 4.58398 15C4.58398 14.3167 4.02565 13.75 3.33398 13.75ZM6.66732 15.8333H16.6673C17.1257 15.8333 17.5007 15.4583 17.5007 15C17.5007 14.5417 17.1257 14.1667 16.6673 14.1667H6.66732C6.20898 14.1667 5.83398 14.5417 5.83398 15C5.83398 15.4583 6.20898 15.8333 6.66732 15.8333ZM6.66732 10.8333H16.6673C17.1257 10.8333 17.5007 10.4583 17.5007 10C17.5007 9.54167 17.1257 9.16667 16.6673 9.16667H6.66732C6.20898 9.16667 5.83398 9.54167 5.83398 10C5.83398 10.4583 6.20898 10.8333 6.66732 10.8333ZM5.83398 5C5.83398 5.45833 6.20898 5.83333 6.66732 5.83333H16.6673C17.1257 5.83333 17.5007 5.45833 17.5007 5C17.5007 4.54167 17.1257 4.16667 16.6673 4.16667H6.66732C6.20898 4.16667 5.83398 4.54167 5.83398 5Z" fill="#3D424F"/>
</g>
</g>
<defs>
<clipPath id="clip0_9100_14271">
<rect width="20" height="20" rx="2" fill="white"/>
</clipPath>
</defs>
</svg>
