<svg width="20" height="20" viewBox="0 0 20 20" fill="none" xmlns="http://www.w3.org/2000/svg">
<g id="format_list_numbered_black_24dp 2">
<g clip-path="url(#clip0_9100_14274)">
<path id="Vector" d="M6.66602 5.83203H16.666C17.1243 5.83203 17.4993 5.45703 17.4993 4.9987C17.4993 4.54036 17.1243 4.16536 16.666 4.16536H6.66602C6.20768 4.16536 5.83268 4.54036 5.83268 4.9987C5.83268 5.45703 6.20768 5.83203 6.66602 5.83203ZM16.666 14.1654H6.66602C6.20768 14.1654 5.83268 14.5404 5.83268 14.9987C5.83268 15.457 6.20768 15.832 6.66602 15.832H16.666C17.1243 15.832 17.4993 15.457 17.4993 14.9987C17.4993 14.5404 17.1243 14.1654 16.666 14.1654ZM16.666 9.16536H6.66602C6.20768 9.16536 5.83268 9.54036 5.83268 9.9987C5.83268 10.457 6.20768 10.832 6.66602 10.832H16.666C17.1243 10.832 17.4993 10.457 17.4993 9.9987C17.4993 9.54036 17.1243 9.16536 16.666 9.16536ZM3.74935 13.332H2.08268C1.84935 13.332 1.66602 13.5154 1.66602 13.7487C1.66602 13.982 1.84935 14.1654 2.08268 14.1654H3.33268V14.582H2.91602C2.68268 14.582 2.49935 14.7654 2.49935 14.9987C2.49935 15.232 2.68268 15.4154 2.91602 15.4154H3.33268V15.832H2.08268C1.84935 15.832 1.66602 16.0154 1.66602 16.2487C1.66602 16.482 1.84935 16.6654 2.08268 16.6654H3.74935C3.98268 16.6654 4.16602 16.482 4.16602 16.2487V13.7487C4.16602 13.5154 3.98268 13.332 3.74935 13.332ZM2.08268 4.16536H2.49935V6.2487C2.49935 6.48203 2.68268 6.66536 2.91602 6.66536C3.14935 6.66536 3.33268 6.48203 3.33268 6.2487V3.7487C3.33268 3.51536 3.14935 3.33203 2.91602 3.33203H2.08268C1.84935 3.33203 1.66602 3.51536 1.66602 3.7487C1.66602 3.98203 1.84935 4.16536 2.08268 4.16536ZM3.74935 8.33203H2.08268C1.84935 8.33203 1.66602 8.51536 1.66602 8.7487C1.66602 8.98203 1.84935 9.16536 2.08268 9.16536H3.16602L1.76602 10.7987C1.69935 10.8737 1.66602 10.9737 1.66602 11.0654V11.2487C1.66602 11.482 1.84935 11.6654 2.08268 11.6654H3.74935C3.98268 11.6654 4.16602 11.482 4.16602 11.2487C4.16602 11.0154 3.98268 10.832 3.74935 10.832H2.66602L4.06602 9.1987C4.13268 9.1237 4.16602 9.0237 4.16602 8.93203V8.7487C4.16602 8.51536 3.98268 8.33203 3.74935 8.33203Z" fill="#70757A"/>
</g>
</g>
<defs>
<clipPath id="clip0_9100_14274">
<rect width="20" height="20" rx="2" fill="white"/>
</clipPath>
</defs>
</svg>
