<svg width="20" height="20" viewBox="0 0 20 20" fill="none" xmlns="http://www.w3.org/2000/svg">
<g id="format_bold_black_24dp 2">
<g clip-path="url(#clip0_9100_14268)">
<path id="Vector" d="M13.0007 8.99037C13.809 8.43203 14.3757 7.51536 14.3757 6.66536C14.3757 4.78203 12.9173 3.33203 11.0423 3.33203H6.66732C6.20898 3.33203 5.83398 3.70703 5.83398 4.16536V14.1654C5.83398 14.6237 6.20898 14.9987 6.66732 14.9987H11.484C13.209 14.9987 14.784 13.5904 14.7923 11.857C14.8007 10.582 14.084 9.49037 13.0007 8.99037ZM8.33398 5.41536H10.834C11.5257 5.41536 12.084 5.9737 12.084 6.66536C12.084 7.35703 11.5257 7.91536 10.834 7.91536H8.33398V5.41536ZM11.2507 12.9154H8.33398V10.4154H11.2507C11.9423 10.4154 12.5007 10.9737 12.5007 11.6654C12.5007 12.357 11.9423 12.9154 11.2507 12.9154Z" fill="#70757A"/>
</g>
</g>
<defs>
<clipPath id="clip0_9100_14268">
<rect width="20" height="20" rx="2" fill="white"/>
</clipPath>
</defs>
</svg>
