<svg width="20" height="18" viewBox="0 0 20 18" fill="none" xmlns="http://www.w3.org/2000/svg">
<g id="Layer_1" clip-path="url(#clip0_11988_25729)">
<path id="Vector" d="M4.61325 5.89897C4.5716 5.89651 4.52989 5.9026 4.49067 5.91685C4.45145 5.9311 4.41556 5.95321 4.38521 5.98183C4.35485 6.01046 4.33066 6.04498 4.31412 6.08329C4.29759 6.1216 4.28906 6.16289 4.28906 6.20461C4.28906 6.24634 4.29759 6.28762 4.31412 6.32593C4.33066 6.36424 4.35485 6.39876 4.38521 6.42739C4.41556 6.45601 4.45145 6.47812 4.49067 6.49237C4.52989 6.50662 4.5716 6.51271 4.61325 6.51025H11.0731C11.1148 6.51271 11.1565 6.50662 11.1957 6.49237C11.2349 6.47812 11.2708 6.45601 11.3012 6.42739C11.3315 6.39876 11.3557 6.36424 11.3723 6.32593C11.3888 6.28762 11.3973 6.24634 11.3973 6.20461C11.3973 6.16289 11.3888 6.1216 11.3723 6.08329C11.3557 6.04498 11.3315 6.01046 11.3012 5.98183C11.2708 5.95321 11.2349 5.9311 11.1957 5.91685C11.1565 5.9026 11.1148 5.89651 11.0731 5.89897H4.61325Z" fill="#8361FE"/>
<path id="Vector_2" d="M4.61325 3.53959C4.5716 3.53714 4.52989 3.54322 4.49067 3.55747C4.45145 3.57172 4.41556 3.59384 4.38521 3.62246C4.35485 3.65108 4.33066 3.68561 4.31412 3.72392C4.29759 3.76223 4.28906 3.80351 4.28906 3.84524C4.28906 3.88696 4.29759 3.92824 4.31412 3.96655C4.33066 4.00486 4.35485 4.03939 4.38521 4.06801C4.41556 4.09663 4.45145 4.11875 4.49067 4.133C4.52989 4.14725 4.5716 4.15333 4.61325 4.15088H11.0731C11.1148 4.15333 11.1565 4.14725 11.1957 4.133C11.2349 4.11875 11.2708 4.09663 11.3012 4.06801C11.3315 4.03939 11.3557 4.00486 11.3723 3.96655C11.3888 3.92824 11.3973 3.88696 11.3973 3.84524C11.3973 3.80351 11.3888 3.76223 11.3723 3.72392C11.3557 3.68561 11.3315 3.65108 11.3012 3.62246C11.2708 3.59384 11.2349 3.57172 11.1957 3.55747C11.1565 3.54322 11.1148 3.53714 11.0731 3.53959H4.61325Z" fill="#8361FE"/>
<path id="Vector_3" d="M16.9017 0.0525197L19.8477 1.75053C19.8825 1.77059 19.913 1.79731 19.9375 1.82916C19.9619 1.86101 19.9798 1.89736 19.9902 1.93614C20.0006 1.97492 20.0033 2.01537 19.9981 2.05518C19.9928 2.09498 19.9798 2.13337 19.9597 2.16814L19.9486 2.18618L13.9302 12.6114C13.9042 12.6551 13.8677 12.6916 13.824 12.7176L10.3893 15.3267C10.3405 15.3638 10.2817 15.3854 10.2205 15.3887C10.1593 15.392 10.0985 15.3768 10.046 15.3451C9.99356 15.3134 9.95184 15.2667 9.92628 15.211C9.90072 15.1553 9.8925 15.0932 9.90269 15.0327L10.3956 10.7097C10.401 10.6584 10.4193 10.6093 10.4487 10.5669L16.4676 0.153339L16.7329 0.305099L16.4676 0.152278C16.5082 0.0824313 16.5748 0.031468 16.6528 0.0104956C16.7309 -0.0104769 16.814 0.000241707 16.8842 0.0403153L16.9017 0.0514585V0.0525197ZM19.2773 2.12834L16.8423 0.721112L10.9995 10.8434L10.5925 14.4129L13.4319 12.257L19.2773 2.12834Z" fill="#8361FE"/>
<path id="Vector_4" d="M15.9478 1.6576C15.9132 1.63771 15.875 1.62483 15.8354 1.6197C15.7958 1.61458 15.7555 1.6173 15.717 1.62772C15.6784 1.63814 15.6423 1.65606 15.6107 1.68044C15.579 1.70482 15.5525 1.7352 15.5326 1.76983C15.5127 1.80446 15.4998 1.84268 15.4947 1.88229C15.4896 1.9219 15.4923 1.96213 15.5027 2.00068C15.5131 2.03924 15.5311 2.07537 15.5554 2.107C15.5798 2.13863 15.6102 2.16515 15.6448 2.18505L18.6089 3.89686C18.6788 3.93492 18.7608 3.94413 18.8374 3.92251C18.9139 3.90089 18.979 3.85017 19.0187 3.78118C19.0583 3.7122 19.0694 3.63044 19.0496 3.55339C19.0297 3.47634 18.9805 3.41011 18.9124 3.36888L15.9478 1.6576Z" fill="#8361FE"/>
<path id="Vector_5" d="M11.0128 10.2012C10.9429 10.1631 10.8609 10.1539 10.7843 10.1755C10.7078 10.1971 10.6427 10.2479 10.603 10.3168C10.5634 10.3858 10.5523 10.4676 10.5721 10.5446C10.592 10.6217 10.6412 10.6879 10.7093 10.7291L13.6734 12.4404C13.7433 12.4807 13.8264 12.4915 13.9043 12.4705C13.9822 12.4495 14.0486 12.3984 14.0888 12.3285C14.1291 12.2585 14.1399 12.1755 14.1189 12.0975C14.0979 12.0196 14.0468 11.9532 13.9769 11.913L11.0128 10.2012Z" fill="#8361FE"/>
<path id="Vector_6" d="M14.6875 10.0805C14.6907 10.0742 14.6944 10.0682 14.6986 10.0625L14.6875 10.0805Z" fill="#8361FE"/>
<path id="Vector_7" d="M1.68766 0.140625H14.0041C14.3354 0.141465 14.653 0.273431 14.8874 0.507685C15.1217 0.741939 15.2538 1.05943 15.2548 1.39079V2.55817L14.6435 3.61943V1.39079C14.6418 1.22197 14.5738 1.06057 14.4542 0.941443C14.3346 0.822313 14.1729 0.754999 14.0041 0.754032H1.68766C1.51921 0.755419 1.35806 0.82295 1.23894 0.942066C1.11983 1.06118 1.05229 1.22234 1.05091 1.39079V16.752C1.05216 16.9205 1.11964 17.0817 1.23879 17.2008C1.35793 17.32 1.51917 17.3875 1.68766 17.3887H14.0041C14.173 17.388 14.3348 17.3208 14.4545 17.2016C14.5742 17.0824 14.6421 16.9209 14.6435 16.752V11.07L15.2548 10.0087V16.7477C15.2538 17.0791 15.1217 17.3966 14.8874 17.6308C14.653 17.8651 14.3354 17.997 14.0041 17.9979H1.68766C1.35713 17.9969 1.04035 17.8655 0.806236 17.6321C0.572117 17.3988 0.439597 17.0825 0.4375 16.752L0.4375 1.39079C0.43848 1.05952 0.570508 0.74211 0.804746 0.507871C1.03899 0.273633 1.3564 0.141605 1.68766 0.140625Z" fill="#8361FE"/>
</g>
<defs>
<clipPath id="clip0_11988_25729">
<rect width="19.5611" height="18" fill="white" transform="translate(0.4375)"/>
</clipPath>
</defs>
</svg>
