<svg width="20" height="18" viewBox="0 0 20 18" fill="none" xmlns="http://www.w3.org/2000/svg">
<g clip-path="url(#clip0_9100_14242)">
<path d="M4.17575 5.89897C4.1341 5.89651 4.09239 5.9026 4.05317 5.91685C4.01395 5.9311 3.97806 5.95321 3.94771 5.98183C3.91735 6.01046 3.89316 6.04498 3.87662 6.08329C3.86009 6.1216 3.85156 6.16289 3.85156 6.20461C3.85156 6.24634 3.86009 6.28762 3.87662 6.32593C3.89316 6.36424 3.91735 6.39876 3.94771 6.42739C3.97806 6.45601 4.01395 6.47812 4.05317 6.49237C4.09239 6.50662 4.1341 6.51271 4.17575 6.51025H10.6356C10.6773 6.51271 10.719 6.50662 10.7582 6.49237C10.7974 6.47812 10.8333 6.45601 10.8637 6.42739C10.894 6.39876 10.9182 6.36424 10.9348 6.32593C10.9513 6.28762 10.9598 6.24634 10.9598 6.20461C10.9598 6.16289 10.9513 6.1216 10.9348 6.08329C10.9182 6.04498 10.894 6.01046 10.8637 5.98183C10.8333 5.95321 10.7974 5.9311 10.7582 5.91685C10.719 5.9026 10.6773 5.89651 10.6356 5.89897H4.17575Z" fill="#565C75"/>
<path d="M4.17575 3.53959C4.1341 3.53714 4.09239 3.54322 4.05317 3.55747C4.01395 3.57172 3.97806 3.59384 3.94771 3.62246C3.91735 3.65108 3.89316 3.68561 3.87662 3.72392C3.86009 3.76223 3.85156 3.80351 3.85156 3.84524C3.85156 3.88696 3.86009 3.92824 3.87662 3.96655C3.89316 4.00486 3.91735 4.03939 3.94771 4.06801C3.97806 4.09663 4.01395 4.11875 4.05317 4.133C4.09239 4.14725 4.1341 4.15333 4.17575 4.15088H10.6356C10.6773 4.15333 10.719 4.14725 10.7582 4.133C10.7974 4.11875 10.8333 4.09663 10.8637 4.06801C10.894 4.03939 10.9182 4.00486 10.9348 3.96655C10.9513 3.92824 10.9598 3.88696 10.9598 3.84524C10.9598 3.80351 10.9513 3.76223 10.9348 3.72392C10.9182 3.68561 10.894 3.65108 10.8637 3.62246C10.8333 3.59384 10.7974 3.57172 10.7582 3.55747C10.719 3.54322 10.6773 3.53714 10.6356 3.53959H4.17575Z" fill="#565C75"/>
<path d="M16.4642 0.0525197L19.4102 1.75053C19.445 1.77059 19.4755 1.79731 19.5 1.82916C19.5244 1.86101 19.5423 1.89736 19.5527 1.93614C19.5631 1.97492 19.5658 2.01537 19.5606 2.05518C19.5553 2.09498 19.5423 2.13337 19.5222 2.16814L19.5111 2.18618L13.4927 12.6114C13.4667 12.6551 13.4302 12.6916 13.3865 12.7176L9.95178 15.3267C9.90302 15.3638 9.84421 15.3854 9.783 15.3887C9.72179 15.392 9.661 15.3768 9.60853 15.3451C9.55606 15.3134 9.51434 15.2667 9.48878 15.211C9.46322 15.1553 9.455 15.0932 9.46519 15.0327L9.95815 10.7097C9.96351 10.6584 9.98176 10.6093 10.0112 10.5669L16.0301 0.153339L16.2954 0.305099L16.0301 0.152278C16.0707 0.0824313 16.1373 0.031468 16.2153 0.0104956C16.2934 -0.0104769 16.3765 0.000241707 16.4467 0.0403153L16.4642 0.0514585V0.0525197ZM18.8398 2.12834L16.4048 0.721112L10.562 10.8434L10.155 14.4129L12.9944 12.257L18.8398 2.12834Z" fill="#565C75"/>
<path d="M15.5103 1.6576C15.4757 1.63771 15.4375 1.62483 15.3979 1.6197C15.3583 1.61458 15.318 1.6173 15.2795 1.62772C15.2409 1.63814 15.2048 1.65606 15.1732 1.68044C15.1415 1.70482 15.115 1.7352 15.0951 1.76983C15.0752 1.80446 15.0623 1.84268 15.0572 1.88229C15.0521 1.9219 15.0548 1.96213 15.0652 2.00068C15.0756 2.03924 15.0936 2.07537 15.1179 2.107C15.1423 2.13863 15.1727 2.16515 15.2073 2.18505L18.1714 3.89686C18.2413 3.93492 18.3233 3.94413 18.3999 3.92251C18.4764 3.90089 18.5415 3.85017 18.5812 3.78118C18.6208 3.7122 18.6319 3.63044 18.6121 3.55339C18.5922 3.47634 18.543 3.41011 18.4749 3.36888L15.5103 1.6576Z" fill="#565C75"/>
<path d="M10.5753 10.2012C10.5054 10.1631 10.4234 10.1539 10.3468 10.1755C10.2703 10.1971 10.2052 10.2479 10.1655 10.3168C10.1259 10.3858 10.1148 10.4676 10.1346 10.5446C10.1545 10.6217 10.2037 10.6879 10.2718 10.7291L13.2359 12.4404C13.3058 12.4807 13.3889 12.4915 13.4668 12.4705C13.5447 12.4495 13.6111 12.3984 13.6513 12.3285C13.6916 12.2585 13.7024 12.1755 13.6814 12.0975C13.6604 12.0196 13.6093 11.9532 13.5394 11.913L10.5753 10.2012Z" fill="#565C75"/>
<path d="M14.25 10.0805C14.2532 10.0742 14.2569 10.0682 14.2611 10.0625L14.25 10.0805Z" fill="#565C75"/>
<path d="M1.25016 0.140625H13.5666C13.8979 0.141465 14.2155 0.273431 14.4499 0.507685C14.6842 0.741939 14.8163 1.05943 14.8173 1.39079V2.55817L14.206 3.61943V1.39079C14.2043 1.22197 14.1363 1.06057 14.0167 0.941443C13.8971 0.822313 13.7354 0.754999 13.5666 0.754032H1.25016C1.08171 0.755419 0.920556 0.82295 0.801441 0.942066C0.682325 1.06118 0.614794 1.22234 0.613407 1.39079V16.752C0.614657 16.9205 0.682145 17.0817 0.801289 17.2008C0.920434 17.32 1.08167 17.3875 1.25016 17.3887H13.5666C13.7355 17.388 13.8973 17.3208 14.017 17.2016C14.1367 17.0824 14.2046 16.9209 14.206 16.752V11.07L14.8173 10.0087V16.7477C14.8163 17.0791 14.6842 17.3966 14.4499 17.6308C14.2155 17.8651 13.8979 17.997 13.5666 17.9979H1.25016C0.919632 17.9969 0.602854 17.8655 0.368736 17.6321C0.134617 17.3988 0.00209674 17.0825 0 16.752L0 1.39079C0.000979865 1.05952 0.133008 0.74211 0.367246 0.507871C0.601485 0.273633 0.9189 0.141605 1.25016 0.140625Z" fill="#565C75"/>
</g>
<defs>
<clipPath id="clip0_9100_14242">
<rect width="19.5611" height="18" fill="white"/>
</clipPath>
</defs>
</svg>
