<svg width="34" height="24" viewBox="0 0 34 24" fill="none" xmlns="http://www.w3.org/2000/svg">
<g id="more_horiz_black_24dp (1) 3">
<path id="Vector" d="M10.9429 10C9.87429 10 9 10.9 9 12C9 13.1 9.87429 14 10.9429 14C12.0114 14 12.8857 13.1 12.8857 12C12.8857 10.9 12.0114 10 10.9429 10ZM22.6 10C21.5314 10 20.6571 10.9 20.6571 12C20.6571 13.1 21.5314 14 22.6 14C23.6686 14 24.5429 13.1 24.5429 12C24.5429 10.9 23.6686 10 22.6 10ZM16.7714 10C15.7029 10 14.8286 10.9 14.8286 12C14.8286 13.1 15.7029 14 16.7714 14C17.84 14 18.7143 13.1 18.7143 12C18.7143 10.9 17.84 10 16.7714 10Z" fill="#70757A"/>
</g>
</svg>
