<svg width="20" height="20" viewBox="0 0 20 20" fill="none" xmlns="http://www.w3.org/2000/svg">
<g id="people_black_24dp (2) 1" clip-path="url(#clip0_9113_20334)">
<path id="Vector" d="M15.3237 6.66797C15.3237 7.77734 14.437 8.66797 13.332 8.66797C12.2248 8.66797 11.332 7.77516 11.332 6.66797C11.332 5.56078 12.2248 4.66797 13.332 4.66797C14.437 4.66797 15.3237 5.5586 15.3237 6.66797ZM8.65703 6.66797C8.65703 7.77734 7.77038 8.66797 6.66536 8.66797C5.55817 8.66797 4.66536 7.77516 4.66536 6.66797C4.66536 5.56078 5.55817 4.66797 6.66536 4.66797C7.77038 4.66797 8.65703 5.5586 8.65703 6.66797ZM1.33203 13.7513C1.33203 13.4496 1.47921 13.1485 1.80942 12.844C2.14304 12.5363 2.62901 12.2601 3.20634 12.0291C4.36179 11.5667 5.75698 11.3346 6.66536 11.3346C7.57375 11.3346 8.96894 11.5667 10.1244 12.0291C10.7017 12.2601 11.1877 12.5363 11.5213 12.844C11.8515 13.1485 11.9987 13.4496 11.9987 13.7513V15.0013C11.9987 15.1835 11.8476 15.3346 11.6654 15.3346H1.66536C1.48317 15.3346 1.33203 15.1835 1.33203 15.0013V13.7513ZM13.7705 11.3502C14.653 11.4093 15.8087 11.6359 16.7911 12.0291C17.3684 12.2601 17.8544 12.5363 18.188 12.844C18.5182 13.1485 18.6654 13.4496 18.6654 13.7513V15.0013C18.6654 15.1835 18.5142 15.3346 18.332 15.3346H14.6451C14.6582 15.2257 14.6654 15.1144 14.6654 15.0013V13.7513C14.6654 12.789 14.3139 11.9955 13.7705 11.3502Z" stroke="#8361FE"/>
</g>
<defs>
<clipPath id="clip0_9113_20334">
<rect width="20" height="20" fill="white"/>
</clipPath>
</defs>
</svg>
