<svg width="20" height="20" viewBox="0 0 20 20" fill="none" xmlns="http://www.w3.org/2000/svg">
<g id="sentiment_satisfied_alt_black_24dp 3">
<g clip-path="url(#clip0_9100_14277)">
<path id="Vector" d="M12.916 9.16797C13.6064 9.16797 14.166 8.60832 14.166 7.91797C14.166 7.22761 13.6064 6.66797 12.916 6.66797C12.2257 6.66797 11.666 7.22761 11.666 7.91797C11.666 8.60832 12.2257 9.16797 12.916 9.16797Z" fill="#70757A"/>
<path id="Vector_2" d="M7.08398 9.16797C7.77434 9.16797 8.33398 8.60832 8.33398 7.91797C8.33398 7.22761 7.77434 6.66797 7.08398 6.66797C6.39363 6.66797 5.83398 7.22761 5.83398 7.91797C5.83398 8.60832 6.39363 9.16797 7.08398 9.16797Z" fill="#70757A"/>
<path id="Vector_3" d="M9.99102 1.66797C5.39102 1.66797 1.66602 5.4013 1.66602 10.0013C1.66602 14.6013 5.39102 18.3346 9.99102 18.3346C14.5993 18.3346 18.3327 14.6013 18.3327 10.0013C18.3327 5.4013 14.5993 1.66797 9.99102 1.66797ZM9.99935 16.668C6.31602 16.668 3.33268 13.6846 3.33268 10.0013C3.33268 6.31797 6.31602 3.33464 9.99935 3.33464C13.6827 3.33464 16.666 6.31797 16.666 10.0013C16.666 13.6846 13.6827 16.668 9.99935 16.668ZM13.6743 11.5763C13.3827 11.393 12.991 11.4846 12.816 11.7763C12.1993 12.7513 11.1493 13.3346 9.99935 13.3346C8.84935 13.3346 7.79935 12.7513 7.18268 11.768C6.99935 11.4763 6.61602 11.3846 6.32435 11.568C6.03268 11.7513 5.94102 12.1346 6.12435 12.4263C6.97435 13.7846 8.41602 14.5846 9.99935 14.5846C11.5827 14.5846 13.0243 13.7763 13.8743 12.4346C14.0577 12.143 13.966 11.7596 13.6743 11.5763Z" fill="#70757A"/>
</g>
</g>
<defs>
<clipPath id="clip0_9100_14277">
<rect width="20" height="20" rx="2" fill="white"/>
</clipPath>
</defs>
</svg>
