<svg width="17" height="16" viewBox="0 0 17 16" fill="none" xmlns="http://www.w3.org/2000/svg">
<g id="visibility_FILL1_wght300_GRAD200_opsz24 1" clip-path="url(#clip0_9111_15634)">
<path id="Vector" d="M8.64349 10.7846C9.50998 10.7846 10.246 10.4813 10.8516 9.87475C11.4571 9.26818 11.7599 8.53164 11.7599 7.66513C11.7599 6.79863 11.4566 6.06261 10.8501 5.45705C10.2435 4.85149 9.50696 4.54872 8.64045 4.54872C7.77395 4.54872 7.03792 4.85199 6.43237 5.45855C5.82681 6.06512 5.52403 6.80166 5.52403 7.66817C5.52403 8.53467 5.82731 9.27069 6.43387 9.87625C7.04043 10.4818 7.77697 10.7846 8.64349 10.7846ZM8.64 9.49998C8.1302 9.49998 7.69752 9.32155 7.34197 8.96468C6.98641 8.60783 6.80863 8.17449 6.80863 7.66468C6.80863 7.15488 6.98707 6.72221 7.34394 6.36665C7.70079 6.01109 8.13412 5.83332 8.64394 5.83332C9.15374 5.83332 9.58641 6.01175 9.94197 6.36862C10.2975 6.72547 10.4753 7.15881 10.4753 7.66862C10.4753 8.17842 10.2969 8.61109 9.94 8.96665C9.58315 9.32221 9.14981 9.49998 8.64 9.49998ZM8.64197 12.8333C7.11633 12.8333 5.71228 12.4468 4.4298 11.6737C3.14733 10.9006 2.15353 9.84912 1.4484 8.51922C1.38601 8.40126 1.34093 8.26926 1.31315 8.1232C1.28537 7.97713 1.27148 7.82621 1.27148 7.67042C1.27148 7.51462 1.28537 7.36243 1.31315 7.21387C1.34093 7.0653 1.38601 6.93204 1.4484 6.81408C2.15353 5.48418 3.14733 4.43269 4.4298 3.65962C5.71228 2.88654 7.11633 2.5 8.64197 2.5C10.1676 2.5 11.5717 2.88654 12.8541 3.65962C14.1366 4.43269 15.1304 5.48418 15.8355 6.81408C15.8979 6.93204 15.943 7.06404 15.9708 7.2101C15.9986 7.35617 16.0125 7.50709 16.0125 7.66288C16.0125 7.81868 15.9986 7.97087 15.9708 8.11943C15.943 8.268 15.8979 8.40126 15.8355 8.51922C15.1304 9.84912 14.1366 10.9006 12.8541 11.6737C11.5717 12.4468 10.1676 12.8333 8.64197 12.8333Z" fill="#94A3B8"/>
</g>
<defs>
<clipPath id="clip0_9111_15634">
<rect width="16" height="16" fill="white" transform="translate(0.642578)"/>
</clipPath>
</defs>
</svg>
